<mxfile host="app.diagrams.net" modified="2021-06-02T07:07:24.090Z" agent="5.0 (Windows NT 10.0; Win64; x64) AppleWebKit/537.36 (KHTML, like Gecko) Chrome/91.0.4472.77 Safari/537.36 Edg/91.0.864.37" etag="HZGE-zYVg4I5l1crD6Sv" version="14.7.3" type="github">
  <diagram id="jU9KiFtzckxi6wA96-1i" name="Page-1">
    <mxGraphModel dx="2076" dy="1104" grid="0" gridSize="10" guides="1" tooltips="1" connect="1" arrows="1" fold="1" page="1" pageScale="1" pageWidth="2339" pageHeight="3300" math="0" shadow="0">
      <root>
        <mxCell id="0" />
        <mxCell id="1" parent="0" />
        <mxCell id="EAB-HPIiQFBKxoSY5FRi-9" value="" style="edgeStyle=orthogonalEdgeStyle;rounded=0;orthogonalLoop=1;jettySize=auto;html=1;entryX=0.5;entryY=0;entryDx=0;entryDy=0;" parent="1" source="EAB-HPIiQFBKxoSY5FRi-2" target="EAB-HPIiQFBKxoSY5FRi-3" edge="1">
          <mxGeometry relative="1" as="geometry">
            <mxPoint x="1060" y="320" as="targetPoint" />
          </mxGeometry>
        </mxCell>
        <mxCell id="EAB-HPIiQFBKxoSY5FRi-2" value="&lt;font style=&quot;font-size: 20px&quot;&gt;Environment&lt;/font&gt;" style="rounded=0;whiteSpace=wrap;html=1;fillColor=#fad7ac;strokeColor=none;" parent="1" vertex="1">
          <mxGeometry x="991" y="240" width="137" height="40" as="geometry" />
        </mxCell>
        <mxCell id="EAB-HPIiQFBKxoSY5FRi-3" value="" style="rounded=0;whiteSpace=wrap;html=1;" parent="1" vertex="1">
          <mxGeometry x="878.5" y="334" width="363" height="444" as="geometry" />
        </mxCell>
        <mxCell id="EAB-HPIiQFBKxoSY5FRi-10" value="" style="edgeStyle=orthogonalEdgeStyle;rounded=0;orthogonalLoop=1;jettySize=auto;html=1;" parent="1" source="EAB-HPIiQFBKxoSY5FRi-4" edge="1">
          <mxGeometry relative="1" as="geometry">
            <mxPoint x="1061" y="446" as="targetPoint" />
            <Array as="points">
              <mxPoint x="1061" y="420" />
              <mxPoint x="1061" y="420" />
            </Array>
          </mxGeometry>
        </mxCell>
        <mxCell id="EAB-HPIiQFBKxoSY5FRi-4" value="&lt;font style=&quot;font-size: 20px&quot;&gt;&lt;b&gt;Meta&lt;br&gt;Controller&lt;/b&gt;&lt;/font&gt;" style="rounded=0;whiteSpace=wrap;html=1;strokeColor=none;fillColor=#CCE5FF;" parent="1" vertex="1">
          <mxGeometry x="1000" y="350" width="120" height="60" as="geometry" />
        </mxCell>
        <mxCell id="EAB-HPIiQFBKxoSY5FRi-5" value="" style="rounded=1;whiteSpace=wrap;html=1;dashed=1;strokeColor=#003366;strokeWidth=2;" parent="1" vertex="1">
          <mxGeometry x="930" y="450" width="283" height="289" as="geometry" />
        </mxCell>
        <mxCell id="EAB-HPIiQFBKxoSY5FRi-6" value="&lt;font style=&quot;font-size: 20px&quot;&gt;Actor&lt;/font&gt;" style="rounded=0;whiteSpace=wrap;html=1;strokeColor=none;fillColor=#B0E3E6;" parent="1" vertex="1">
          <mxGeometry x="999.5" y="619" width="120" height="40" as="geometry" />
        </mxCell>
        <mxCell id="EAB-HPIiQFBKxoSY5FRi-7" value="&lt;font style=&quot;font-size: 20px&quot;&gt;Critic&lt;/font&gt;" style="rounded=0;whiteSpace=wrap;html=1;strokeColor=none;fillColor=#B0E3E6;" parent="1" vertex="1">
          <mxGeometry x="1004" y="471" width="120" height="42" as="geometry" />
        </mxCell>
        <mxCell id="EAB-HPIiQFBKxoSY5FRi-11" value="" style="endArrow=classic;html=1;exitX=1;exitY=0.5;exitDx=0;exitDy=0;entryX=1.016;entryY=0.586;entryDx=0;entryDy=0;entryPerimeter=0;" parent="1" source="EAB-HPIiQFBKxoSY5FRi-2" target="EAB-HPIiQFBKxoSY5FRi-5" edge="1">
          <mxGeometry width="50" height="50" relative="1" as="geometry">
            <mxPoint x="1410" y="360" as="sourcePoint" />
            <mxPoint x="1460" y="310" as="targetPoint" />
            <Array as="points">
              <mxPoint x="1280" y="260" />
              <mxPoint x="1280" y="619" />
            </Array>
          </mxGeometry>
        </mxCell>
        <mxCell id="EAB-HPIiQFBKxoSY5FRi-12" value="" style="endArrow=classic;html=1;startArrow=none;startFill=0;endFill=1;" parent="1" edge="1">
          <mxGeometry width="50" height="50" relative="1" as="geometry">
            <mxPoint x="1280" y="379.58" as="sourcePoint" />
            <mxPoint x="1137" y="380" as="targetPoint" />
          </mxGeometry>
        </mxCell>
        <mxCell id="EAB-HPIiQFBKxoSY5FRi-13" value="" style="endArrow=classic;html=1;entryX=0;entryY=0.5;entryDx=0;entryDy=0;" parent="1" target="EAB-HPIiQFBKxoSY5FRi-2" edge="1">
          <mxGeometry width="50" height="50" relative="1" as="geometry">
            <mxPoint x="928" y="640" as="sourcePoint" />
            <mxPoint x="920" y="670" as="targetPoint" />
            <Array as="points">
              <mxPoint x="928" y="640" />
              <mxPoint x="840" y="640" />
              <mxPoint x="840" y="260" />
            </Array>
          </mxGeometry>
        </mxCell>
        <mxCell id="EAB-HPIiQFBKxoSY5FRi-15" value="" style="endArrow=classic;html=1;entryX=0;entryY=0.5;entryDx=0;entryDy=0;exitX=0;exitY=0.5;exitDx=0;exitDy=0;" parent="1" source="EAB-HPIiQFBKxoSY5FRi-6" target="EAB-HPIiQFBKxoSY5FRi-7" edge="1">
          <mxGeometry width="50" height="50" relative="1" as="geometry">
            <mxPoint x="970" y="640" as="sourcePoint" />
            <mxPoint x="1000" y="620" as="targetPoint" />
            <Array as="points">
              <mxPoint x="970" y="639" />
              <mxPoint x="970" y="492" />
            </Array>
          </mxGeometry>
        </mxCell>
        <mxCell id="EAB-HPIiQFBKxoSY5FRi-16" value="" style="endArrow=classic;html=1;exitX=1;exitY=0.5;exitDx=0;exitDy=0;entryX=1;entryY=0.5;entryDx=0;entryDy=0;" parent="1" source="EAB-HPIiQFBKxoSY5FRi-7" target="EAB-HPIiQFBKxoSY5FRi-6" edge="1">
          <mxGeometry width="50" height="50" relative="1" as="geometry">
            <mxPoint x="1080" y="610" as="sourcePoint" />
            <mxPoint x="1130" y="560" as="targetPoint" />
            <Array as="points">
              <mxPoint x="1150" y="492" />
              <mxPoint x="1150" y="639" />
            </Array>
          </mxGeometry>
        </mxCell>
        <mxCell id="EAB-HPIiQFBKxoSY5FRi-17" value="&lt;span style=&quot;font-size: 18px&quot;&gt;action&lt;/span&gt;" style="text;html=1;strokeColor=none;fillColor=none;align=center;verticalAlign=middle;whiteSpace=wrap;rounded=0;dashed=1;" parent="1" vertex="1">
          <mxGeometry x="895" y="240" width="50" height="20" as="geometry" />
        </mxCell>
        <mxCell id="EAB-HPIiQFBKxoSY5FRi-18" value="&lt;font style=&quot;font-size: 18px&quot;&gt;state&lt;/font&gt;" style="text;html=1;strokeColor=none;fillColor=none;align=center;verticalAlign=middle;whiteSpace=wrap;rounded=0;dashed=1;" parent="1" vertex="1">
          <mxGeometry x="1170" y="240" width="50" height="20" as="geometry" />
        </mxCell>
        <mxCell id="EAB-HPIiQFBKxoSY5FRi-19" value="&lt;font style=&quot;font-size: 18px&quot;&gt;extrinsic reward&lt;/font&gt;" style="text;html=1;strokeColor=none;fillColor=none;align=center;verticalAlign=middle;whiteSpace=wrap;rounded=0;dashed=1;" parent="1" vertex="1">
          <mxGeometry x="1070" y="295" width="80" height="20" as="geometry" />
        </mxCell>
        <mxCell id="EAB-HPIiQFBKxoSY5FRi-22" value="&lt;font style=&quot;font-size: 18px&quot;&gt;intrinsic reward&lt;/font&gt;" style="text;html=1;strokeColor=none;fillColor=none;align=center;verticalAlign=middle;whiteSpace=wrap;rounded=0;dashed=1;" parent="1" vertex="1">
          <mxGeometry x="1070" y="561" width="80" height="20" as="geometry" />
        </mxCell>
        <mxCell id="EAB-HPIiQFBKxoSY5FRi-23" value="&lt;font style=&quot;font-size: 18px&quot;&gt;action&lt;/font&gt;" style="text;html=1;strokeColor=none;fillColor=none;align=center;verticalAlign=middle;whiteSpace=wrap;rounded=0;dashed=1;" parent="1" vertex="1">
          <mxGeometry x="970" y="570" width="50" height="20" as="geometry" />
        </mxCell>
        <mxCell id="EAB-HPIiQFBKxoSY5FRi-25" value="&lt;font style=&quot;font-size: 18px&quot;&gt;subgoal&lt;/font&gt;" style="text;html=1;strokeColor=none;fillColor=none;align=center;verticalAlign=middle;whiteSpace=wrap;rounded=0;dashed=1;" parent="1" vertex="1">
          <mxGeometry x="1074" y="418" width="80" height="20" as="geometry" />
        </mxCell>
        <mxCell id="EAB-HPIiQFBKxoSY5FRi-27" value="&lt;font style=&quot;font-size: 20px&quot;&gt;agent&lt;/font&gt;" style="text;html=1;align=center;verticalAlign=middle;whiteSpace=wrap;rounded=0;dashed=1;" parent="1" vertex="1">
          <mxGeometry x="1176" y="748" width="60" height="20" as="geometry" />
        </mxCell>
        <mxCell id="EAB-HPIiQFBKxoSY5FRi-32" value="&lt;font style=&quot;font-size: 20px&quot;&gt;&lt;b&gt;Meta&lt;br&gt;Controller&lt;/b&gt;&lt;/font&gt;" style="rounded=0;whiteSpace=wrap;html=1;strokeColor=none;fillColor=#CCE5FF;" parent="1" vertex="1">
          <mxGeometry x="1008" y="350" width="120" height="60" as="geometry" />
        </mxCell>
        <mxCell id="EAB-HPIiQFBKxoSY5FRi-33" value="" style="shape=image;verticalLabelPosition=bottom;labelBackgroundColor=#ffffff;verticalAlign=top;aspect=fixed;imageAspect=0;image=data:image/png,iVBORw0KGgoAAAANSUhEUgAABh8AAAKKCAYAAAAtL0qjAAAgAElEQVR4AezdB3BU1eP+/71bQofQkSYIRBAQNIB0CCAgIBCkChaICBYEK4KIon4QBUFBxIKo9CKKiOKASkcQfvQ6SB360P5AJsns7vf5zyYkpNyUTTZhN3k7k8mWe88953U2JpznnnMs4j8EEEAAAQQQQAABBBBAAAEEEEAAAQQQQAABBBBAwIcCFh+WRVEIIIAAAggggAACCCCAAAIIIIAAAggggAACCCCAgAgf+BAggAACCCCAAAIIIIAAAggggAACCCCAAAIIIICATwUIH3zKSWEIIIAAAggggAACCCCAAAIIIIAAAggggAACCCBA+MBnAAEEEEAAAQQQQAABBBBAAAEEEEAAAQQQQAABBHwqQPjgU04KQwABBBBAAAEEEEAAAQQQQAABBBBAAAEEEEAAAcIHPgMIIIAAAggggAACCCCAAAIIIIAAAggggAACCCDgUwHCB59yUhgCCCCAAAIIIIAAAggggAACCCCAAAIIIIAAAggQPvAZQAABBBBAAAEEEEAAAQQQQAABBBBAAAEEEEAAAZ8KED74lJPCEEAAAQQQQAABBBBAAAEEEEAAAQQQQAABBBBAgPCBzwACCCCAAAIIIIAAAggggAACCCCAAAIIIIAAAgj4VIDwwaecFIYAAggggAACCCCAAAIIIIAAAggggAACCCCAAAKED3wGEEAAAQQQQAABBBBAAAEEEEAAAQQQQAABBBBAwKcChA8+5aQwBBBAAAEEEEAAAQQQQAABBBBAAAEEEEAAAQQQIHzgM4AAAggggAACCCCAAAIIIIAAAggggAACCCCAAAI+FSB88CknhSGAAAIIIIAAAggggAACCCCAAAIIIIAAAggggADhA58BBBBAAAEEEEAAAQQQQAABBBBAAAEEEEAAAQQQ8KkA4YNPOSkMAQQQQAABBBBAAAEEEEAAAQQQQAABBBBAAAEECB/4DCCAAAIIIIAAAggggAACCCCAAAIIIIAAAggggIBPBQgffMpJYQgggAACCCCAAAIIIIAAAggggAACCCCAAAIIIED4wGcAAQQQQAABBBBAAAEEEEAAAQQQQAABBBBAAAEEfCpA+OBTTgpDAAEEEEAAAQQQQAABBBBAAAEEEEAAAQQQQAABwgc+AwgggAACCCCAAAIIIIAAAggggAACCCCAAAIIIOBTAcIHn3JSGAIIIIAAAggggAACCCCAAAIIIIAAAggggAACCBA+8BlAAAEEEEAAAQQQQAABBBBAAAEEEEAAAQQQQAABnwoQPviUk8IQQAABBBBAAAEEEEAAAQQQQAABBBBAAAEEEECA8IHPAAIIIIAAAggggAACCCCAAAIIIIAAAggggAACCPhUgPDBp5wUhgACCCCAAAIIIIAAAggggAACCCCAAAIIIIAAAoQPfAYQQAABBBBAAAEEEEAAAQQQQAABBBBAAAEEEEDApwKEDz7lpDAEEEAAAQQQQAABBBBAAAEEEEAAAQQQQAABBBAgfOAzgAACCCCAAAIIIIAAAggggAACCCCAAAIIIIAAAj4VIHzwKSeFIYAAAggggAACCCCAAAIIIIAAAggggAACCCCAAOEDnwEEEEAAAQQQQAABBBBAAAEEEEAAAQQQQAABBBDwqQDhg085KQwBBBBAAAEEEEAAAQQQQAABBBBAAAE/E4g+rc2Lpun9N1/SC6+8oxl//KebflZFqoMAArlPgPAh9/UpLUIAAQQQQAABBBBAAAEEEEAAAQQQQEDSNe38dqiali+sso0jNP6H5Vr9+1yNf7yxmg5ZqmOH5+qZJveqXr+ZOuwCDAEEEPCtAOGDbz0pDQEEEEAAAQQQQAABBBBAAAEEEEAAgTsvEHNEc5+6VwWtBVX72Z90ypmoSu4zmt+3jurUriCbxSLbPcO0NibR+zxEAAEEfCBA+OADRIpAAAEEEEAAAQQQQAABBBBAAAEEEEDAbwRcJ7XwiWrKZ1hVov00HUocPNyqZMzWN1XbbpHFYlVwrwW65jeVpyIIIJBbBAgfcktP0g4EEEAAAQQQQAABBBBAAAEEEEAAAQTk1IGpD6uk1SKjQFNNOGCSPEhyn/1cbYMsshj51Xbaabn9Us6lg1O7KeTuyqpUqVLsV+XKNfTwh9sUbVpfty4uHKTa1WqoZp36Cm3YUKH166pWSA01fP1v0zN4EQEEsk+A8CH7bCkZAQQQQAABBBBAAAEEEEAAAQQQQACBHBVwn5qpR4tbY2c0lAj/QedTSRVuLO2vUlaLLI4H9e6eVAKKS9u0aOZP2n0llULSbFmkTmzfpdNZXs7JrZgbl3R87uO6y2GTzbDIWjJcP5xNrU4uRV7Yp6VDa8thr6QuHyzTjpNXFZ3a4Wm2gTcRQCArAoQPWdHjXAQQQAABBBBAAAEEEEAAAQQQQAABBPxGIFobX6sph2GRxVpSfRaltphSjNYOuyduv4eqL+pv02kEkfrrhXtkMwqrx7wb3rcw6icNKF1VL/xlWriX5Tm1a2wD1R08UuFlrLIYDt0/emsqsx88Rbt14atHdFf4D7pA6OClNYcj4DsBwgffWVJSXhGIPqNtK+ZqxicTNXX2nzqcid+/eYWKdiKAAAIIIIAAAggggAACCCCAQA4KRK3U4Io2WSwWGcW664dLqVzbuVfjQh1xsyP6LZbp0EbMOg2vbpfF8ZDGH3KlUlAaL0cuVK/gCnrmdx+ED+5Tmtq2qiJWXNO2MfUV5Jn9UPoxzUltWoduatlTVfTIl+f8dDmpNNx4C4FcJED4kIs6k6Zks4D7ojZNHaiHKpRQtQ7P639ffKuvPhissId6avquK9r/w/N6pG1/Td+V5fmE2dwQikcAAQQQQAABBBBAAAEEEEAAgdwoELPlDdWK3UTaUL6wqTqVyl3/7jOfq11+QxajgNrPOGs6QO/a/74aOCyy3/uqNmVmqMOX4cPV+epVKVyzL0vuc3PUo5Rn9kOQ6o/ZJtOqxWzUK/c10QcHMhGa5MYPBm1C4A4JED7cIXguG2ACN3dqWvcqyme/Sx0/2abEkxYj/31XLUObqUFJzy++gnr0uysB1jiqiwACCCCAAAIIIIAAAggggAACuUHg+uzuKuhZcsliV603/jEfmJd0bUEvFY/d76GB3t9vNkDv1tkv2quAYVW5gcsVmRkcH4YP0auGqHrYZB2PDVOitXVU3dilpaxlemm+ybpKroP/U9P7XtYG02QiM43hHAQQyIwA4UNm1DgnbwnE7NMXXcrLbuRT7ZfXJAke4iCuaGGfUrJaPJs0hWrcXvNNmvIWGq1FAAEEEEAAAQQQQAABBBBAAIGcFrj4ZXvl84xPGMXUc4HpYkqSorV6aOXY/R7s1YdrffwAvfOAZr/cX71791KvXj3VJqSwDItNZR7sol69eql37wF6e9kZ01kSpu30Wfjg1PYxD+rBt7YrfsTFffZ7dY+9CTSfHhy7I1nI4tb5rzqpylPLdNO0YryIAAI5JUD4kFPSXCdABSK19Z1GKmxYZKv6rFYmnvKQ0CKndrxdTw6L55jUNmlKOJgHCCCAAAIIIIAAAggggAACCCCAQLYIRC7pq2DPzAd7iF7ZGJ8qJLtUzFa9Wdseu99D6QE/3R6gd1/TkU2r9cfKlVr56//0SAmrDMcDenH+71q5cqX+WLVGe87HD/8nK9Psqa/CB/cJTQmrriGrEu8dEa3Nb9SOm/1Qtq8WXky8vtQNLe1/tx799qJZrXgNAQRyUIDwIQexuVTgCbgOfKRmBT1rIDpUf+zOhIQ9SUvc5/VVx4IyLFYV77NI15O8Gf/ErYt71mjjf+bvxh/FdwQQQAABBBBAAAEEEEAAAQQQQCCzAq5jk9XKs5eD7R4NW2sWPrh1en4fVbB5ZkcUUqdvzpvOZHDuHKv6nv0e7hupLWbFZKSCvgofrsxRj8q9NP9q0ou6T3+rrsU9S2DnU+i7u26P2cSs1Us1W+ijI2bLSSUtg2cIIJC9AoQP2etL6QEtcE2/RlSKnYZoOBrpf6ltUnTzJz1R2vPLLr/aTjtt+kvbfXqWupawytF8ko7xuy+gPxVUHgEEEEAAAQQQQAABBBBAAAG/FXCf1ezwUrIa+dVi0n9KOgTh1oXVr6tBMauM2KWjG2v8oaRHxLXLrVNTw5TfsKl8xG+KymxjfRQ+RP3+jKq1m2ayeXaUNr5aM3b2g+2ux7XkUtzsB+fecXqoXhZCk8y2l/MQQCCFAOFDChJeQOCWwJV56ulJ0C0WOe4fo+2pzCyM2fCyQuye/R4e0Nhd5gdd+q6rihg2VRi8UoknCWKNAAIIIIAAAggggAACCCCAAAII+FLAdWK+BlTLJ0f1p7T4RNy0Befl/Vo+vqcaNBmooR3Lxu5baQ95VZtMZzVc1fyewTKMogqffTmVqrl08Jun1bJRA4WGhqbyVV0l7EEqE5La+6EKbfCQ2ry0OJVreF526t9R9dXwnd23ZzYkOtp96mt1Do67IbTh+3vklFtnpnfQPVkJTRKVz0MEEMiaAOFD1vw4OxcLRP/+TNw0RItNVV74K5XQwKVD4xvH7fdQeahWmyYLUVoRUV5Wo5h6zL2Si8VoGgIIIIAAAggggAACCCCAAAII+IOA68xaffpcVzVvEKoGoQ+oXoMOGvzJSh29tk1v1XXE7vdQ9qlfFGlW2ehVGlLJJiOolSYfT7yXQtKDr+3+SdMnT9LEiRPNvz58Wg8UCFbTIRPM3/ecN2myvvztUNKCEz9zHdWkViF64W/TARdJkVo3IkR2z16d5Z/Q0svXtKhvFYXPZvwlMSOPEbhTAoQPd0qe6/q5gFsnP22tIM80RKOwun2fStLvvqCZnQvJsBgKfmyeki0/GNfGmK0aeZ9dRr7WmnIi9V/afg5C9RBAAAEEEEAAAQQQQAABBBBAIMAF3CemqFU+z96WhfXoLPMNmZ07xuh+h0WOum+lugpEhhh8sezS5e/V/e5+Wnwj9Su6T8xQx9jZDwX00LszNCQkTFPSCE1SL4l3EEDA1wKED74WpbxcIuDS/vcbxs5oSGs5JUUu01Nl4zY3av3pyYT9HpwHF2vssOc0dOhQDY1oq6p2Q9ai96v7s0M19LnnNOzDFbnEiWYggAACCCCAAAIIIIAAAggggECgCFyeHa5ihkVGUDN9/J/5fg8nPwtTPsOmis/+kWgViGhtHd9Ho8yXfDBvvg/Ch6hfB+mejjN0Ls17OSO1ZliN2NkP1sJFFVx/jHaYr4ptXk9eRQCBbBMgfMg2WgoObAG3zk1vp3yeX8j5Outb0ykNUvT6EaoRu9/D/Xor0aYQ7nP/atn8uZozZ45mDK4vh2FVmQ5v6/s5czRn7lwtXnMksHmoPQIIIIAAAggggAACCCCAAAIIBJjADS17qlzsfg+OeqkN0Edp2ZOlZTUKqdv3twdDnIemqH3oC1p93YsmZzl8iNH6EbXUaNxe0/0eEtfEdexzPVzUkMViU+WhqxOFJomP4jECCOS0AOFDTotzvYARiNkyUvfZPeFDR319yaTa7lP6oUfcL21bhcFaGWVyjKK08pkKshlF1PU7s0LMzuE1BBBAAAEEEEAAAQQQQAABBBBAwAuBqN36akCoKpSqrLB3N8hslSLX0elq71meyBqsdtP+k9m8Bylaq4ZUks1WUc/+EbfPguvMbxrRvJle+9PLfRSyEj64b+rY76PVorhDdV5ep6tpznzwON3Qn89Xk91aXL0WXPMCjkMRQCA7BQgfslOXsgNbwLlX/2tcQIbtbg1dlSxZcF/UXyMbqpjVIovFUNHw2TL9FezcptF1HDIcTfXREfNf64GNRO0RQAABBBBAAAEEEEAAAQQQQOBOC5z7+hEVNjxjFBY5Gn+oQ8mHIKL26rMOnhkNdpXv+pUOxaReY9fJxRpSr4QqtH5Wrz3fS2HNwvXu6rOphBWpl6NMhQ9O7Rgfpooli6lIsWCVLFlCwUUKqUiJqurx9fE06+A6OkOd7u6sr86km1SkUWneQgABXwoQPvhSk7JynUDktglqXcqukg9/ot03Pc1z6/p/f2jS403UImKI2pfy7PcQpBaTjpn+AnQfn6xWQYbsNV/X5jR+sec6OBqEAAIIIIAAAggggAACCCCAAAI5JnBqWlsVMAxZC9dSxOJTCXtSeioQdWyFxravIIe1mOo89a32RmagWq6rOr5jozZsP6ormd0/IVPhQwbqxiEIIBAwAoQPAdNVVPROCVzft0Cj+7ZR44YP6aEGD6pBu0GasOKIrt5alsliv08jt5onC1fmeDZysqrc08uVkd/td6qNXBcBBBBAAAEEEEAAAQQQQAABBAJY4Po2ffFUY1WrWlctH+2niKHP67mIAQoPq6O7SlTUg48O09RVx5RsXYfsbTDhQ/b6UjoCASBA+BAAnUQV/VHApWOTWijIsMh61yD9avrbO1orB3v2eyisLrMu+mMjqBMCCCCAAAIIIIAAAggggAACCOQmgZgrOrFvmzatW6O/123Wjv0ndMX8fsnsb3XMJr3d6hFN3JPZqRPZX0WugAAC2StA+JC9vpSeawUu6/tuRWVYDBV+dJZMt5J27tTb9RyyOJpowuHbiy0690/XoFG/51oZGoYAAggggAACCCCAAAIIIIAAAggggAACCBA+8BlAIDMCN5bpqXKe/R7yq/UU8/0edPlbdSloyF59uNbF32XgPqM5vR/Ukz9m30yIAwcO6O+//+YrHYPNmzdnpuc5BwEEEEAAAQQQQAABBBBAAAEEEEAAAQQyIED4kAEkDsljAtf/0cRHQxRcrLK6TNurlJMDXTo2vb2CrRZZy/bSvHNuc6Cr8/RYsCFH04/0X+zEh2v69+POahyxVGdTOcW8IO9effLJJ2WxWPhKx6Bq1arewXI0AggggAACCCCAAAIIIIAAAggggAACCGRYgPAhw1QcmDcE3Do1rY0KGJ7Be0PFei3QzWQNj9o3VR1LW2U47tETC08p9RwhWvu+fEzVStVWz9deU0SXlurw0iIdiU5WoI+fbt26VYsXL+YrDYNBgwZp9OjRPpanOAQQQAABBBBAAAEEEEAAAQQQQAABBBCIFyB8iJfgOwKxAm6d+CxM+Q1DjnJhen/T9UQuUTr227vqUMkhe8mGemHRf4pfTSnRQSkeRl84qC0b/tH+c5Ep3uOFOyNQvnx5devW7c5cnKsigAACCCCAAAIIIIAAAggggAACCCCQBwQIH/JAJ9NELwVu7NTXg1urTkhdPfRwuPo+8aT69+ysFvdVULkaTdXrja+14UxGYgcvr8vhOSZA+JBj1FwIAQQQQAABBBBAAAEEEEAAAQQQQCCPChA+5NGOp9kZEHBH6fKpI9q/e5d27/9Ppy5HprHEUgbK4xC/ESB88JuuoCIIIIAAAggggAACCCCAAAK5QODMmTO5oBU0AQEEfC1A+OBrUcpDAAG/FyB88PsuooIIIIAAAggggAACCCCAAAIBJPDoo4/qr7/+CqAaU1UEEMgJAcKHnFDmGggg4FcChA9+1R1UBgEEEEAAAQQQQAABBBBAIIAF/t//+3+yWCxq2bJlALeCqiOAQHYIED5khyplIoCAXwsQPvh191A5BBBAAAEEEEAAAQQQQACBABLwzHrwhA+eL2Y/BFDHUVUEckCA8CEHkLkEAgj4lwDhg3/1B7VBAAEEEEAAAQQQQAABBBAITIH4WQ/x4QOzHwKzH6k1AtklQPiQXbKUiwACfitA+OC3XUPFEEAAAQQQQAABBBBAAAEEAkgg8ayH+ACC2Q8B1IFUFYFsFiB8yGZgikcAAf8TIHzwvz6hRggggAACCCCAAAIIIIAAAoElkHzWQ3z4wOyHwOpHaotAdgoQPmSnLmXnCYH/+7//07x58/JEW3NLIwkfcktP0g4EEEAAAQQQQAABBBBAAIE7JWA26yE+gGD2w53qFa6LgH8JED74V39QmwAUWLRokYoWLaorV64EYO3zZpUJH/Jmv9NqBBBAAAEEEEAAAQQQQAAB3wikNushPnxg9oNvnCkFgUAXIHwI9B6k/ndUwDProXbt2vL8ch0zZswdrQsXz7gA4UPGrTgSAQQQQAABBBBAAAEEEEAAgeQCac16iA8gmP2QXI3nCOQ9AcKHvNfntNiHAp5ZD/G/VJn94EPYbC6K8CGbgSkeAQQQQAABBBBAAAEEEEAgVwv8f//f/6dr167FfnlWgvCMjQwePDjhNc970dHRudqAxiGAQPoChA/pG3EEAqYCiWc9xAcQzH4wpfK7Fwkf/K5LqBACCCCAAAIIIIAAAggggECACrjd7tjw4cUXXwzQFlBtBBDILgHCh+ySpdxcL5B41kN8+MDsh8DodsKHwOgnaokAAggggAACCCCAAAIIIOD/AoQP/t9H1BCBOyVA+HCn5LluQAuYzXqIDyCY/eD/XUv44P99RA0RQAABBBBAAAEEEEAAAQQCQ4DwITD6iVoicCcECB/uhDrXDHgBs1kP8eEDsx/8v3sJH/y/j6ghAggggAACCCCAAAIIIIBAYAgQPgRGP1FLBO6EAOHDnVDnmgEtkNash/gAgtkP/t3FhA/+3T/UDgEEEEAAAQQQQAABBBBAIHAECB8Cp6+oKQI5LUD4kNPiXC/gBfbv36/evXsnfN1///2xGyt16tQp4bXBgwfL88uX//xTgPDBP/uFWiGAAAIIIIAAAggggAACCASeAOFD4PUZNUYgpwQIH3JKmuvkWoGJEyfGhg9Hjx7NtW3MbQ0jfMhtPUp7EEAAAQQQQAABBBBAAAEE7pQA4cOdkue6CPi/AOGD//cRNfRzAcIHP+8gk+oRPpig8BICCCCAAAIIIIAAAggggAACmRAgfMgEGqcgkEcECB/ySEfTzOwTIHzIPtvsKpnwIbtkKRcBBBBAAAEEEEAAAQQQQCCvCRA+5LUep70IZFyA8CHjVhyJgKkA4YMpi1+/SPjg191D5RBAAAEEEEAAAQQQQAABBAJIgPAhgDqLqiKQwwKEDzkMzuVynwDhQ+D1KeFD4PUZNUYAAQQQQAABBBBAAAEEEPBPAcIH/+wXaoWAPwgQPvhDL1CHgBYgfAi87iN8CLw+o8YIIIAAAggggAACCCCAAAL+KUD44J/9Qq0Q8AcBwgd/6AXqENAChA+B132ED4HXZ9QYAQQQQAABBBBAAAEEEEDAPwUIH/yzX6gVAv4gQPjgD71AHQJagPAh8LqP8CHw+owaI4AAAggggAACCCCAAAII+KcA4YN/9gu1QsAfBAgf/KEXqENACxA+BF73ET4EXp9RYwQQQAABBBBAAAEEEEAAAf8UIHzwz36hVgj4gwDhgz/0AnUIaAHCh8DrPsKHwOszaowAAggggAACCCCAAAIIIOCfAoQP/tkv1AoBfxAgfPCHXqAOAS1A+BB43Uf4EHh9Ro0RQAABBBBAAAEEEEAAAQT8U4DwwT/7hVoh4A8ChA/+0AvUIaAFCB8Cr/sIHwKvz6gxAggggAACCCCAAAIIIICAfwoQPvhnv1ArBPxBgPDBH3qBOgS0AOFD4HUf4UPg9Rk1RgABBBBAAAEEEEAAAQQQ8E+B//u//9OMGTO0YcMG/6wgtUIAgTsmQPhwx+i5cG4RIHwIvJ4kfAi8PqPGCCCAAAIIIIAAAggggAACCCCAAAKBJUD4EFj9RW39UIDwwQ87JZ0qET6kA8TbCCCAAAIIIIAAAggggAACCCCAAAIIZFGA8CGLgJyOAOFD4H0GCB8Cr8+oMQIIIIAAAggggAACCCCAAAIIIIBAYAkQPgRWf1FbPxQgfPDDTkmnSoQP6QDxNgIIIIAAAggggAACCCCAAAIIIIAAAlkUIHzIIiCnI0D4EHifAcKHwOszaowAAggggAACCCCAAAIIZFwgUsd27tMld8bP4EgE8ozAjSPaefCa+PHIMz1+RxtK+HBH+bl4bhAgfAi8XiR8CLw+o8YIIIAAAggggAACCCCAQIYE3Bf051ut1Shiqc4wupohMg7KYwLX1mtMWDMNWXJczjzWdJqb8wKEDzlvzhVzmQDhQ+B1KOFD4PUZNUYAAQQQQAABBBBAAAH/FHBe2KGln72t4RH91LVtEzVo2FztHu2nF977Vn8cvJrDd1dHatv/Wuru5u/r35v+6UWtEMiYgFOn/vpCoyK6q02rh/XYiC+1xYdTeVwn5qrvvQ9oxKrLOfwzmrHWc1TuESB8yD19SUvukADhwx2Cz8JlCR+ygMepCCCAAAIIIIAAAggggICk63sX6K1ejVQh+C416DtGX/28RjuOntOF04f0z89TNbx9FRUIKqcmz36jHddygsytSytf0H0VHtU3x1w5cUGugUD2CMQc00+vtlCFql00ftVRXY86qR8H1lDxxuO0NdJ3l7y66gXVqtJTs4/z8+I7VUpKLkD4kFyE5wh4KXD27Flt3bpVUVFRXp7J4XdKgPDhTslzXQQQQAABBBBAAAEEEAh4gZgT+v29rqpeyKEyLd/QT0dSmWLgvqIN41qqpNWq4k1G66+L2bsGkvv8Eg2oVEJtpx4WQ6kB/ynLuw1wn9eK52urYLHm+nBndIKDc/c7etBRTB2+OOHDmQqXtSLiHpVsP13/8UOTYM0D3woQPvjWk9IQQCAABAgfAqCTqCICCCCAAAIIIIAAAgj4n8DVzZrQrpzs1mCFvrBYR26PjZrX1X1Ksx8rJ5thU4Vec3Qy2/KHSG187T4VrD1S/6RXJ/Oa8ioCfiAQrd2TwlTCVljNJ+xLuh9D5BL1DbYqf+spOu7DnyPX0alqG1xBA3686MNQww8oqYLfCBA++E1XUBEEEMgpAcKHnJLmOggggAACCCCAAAIIIJBbBNwX/tSoJsVlNYJUY1DGN3N27nhb9R2GLLZKiliRPesvuY58pjbFgtVxhi/vCs8tPUc7AkXAuX+SWhW1yh7yktYkn1AUvUpDKtpkBPfSghu+bNF1rYiopPy1X9NGHy7p5MsaUlZgCxA+BHb/UXsEEMiEAOFDJqXSItgAACAASURBVNA4BQEEEEAAAQQQQAABBPKuwM2ter95sKwWq4q3mqDt3gxSOndr7AMOWSyGij7ylU778K7tuA65qVVD7pajVB8tvJJ3u4iWB7iA66hmdCwhq1FYYZ/+l3LpsFvhg8URqnF7nT5tbPS64aruCFa3784x+8GnshTmESB84HOAAAJ5ToDwIc91OQ1GAAEEEEAAAQQQQACBzAq4L+m3oSFyGBZZg9truteLw0fpl6fLyGqxyAh+THOvZrYiqZx3ZZH6lrar9ONLlD3zKlK5Li8j4EOBG6uGqorNImvpvlpkFqJFLlG/YEMWezW9tDbGh1eWFLNRr4TYVaDVZB1l7wff2lIa4QOfAQQQyHsChA95r89pMQIIIIAAAggggAACCGRO4MqKwbrHbshi5FPoOzvk/bBnjLaMvE92i0UWe3UNX+d9CWnV/OqC3iphK6ruP1xO6zDeQ8B/Bdyn9U3nuJlF5Z78WddNauo+MVmtgiyy2KrqxTW+3tgkSr9FVJAtf0t9Qvpgos9LWRFg5kNW9DgXAQQCUoDwISC7jUojgAACCCCAAAIIIIBATgtEb9Go+4NkWDx3ZPfU3POZWTPJqZ1j68vhCR+MYPVbEuXDVkTql6fLyhrUXBMZNPWhK0XlpIBz51g94NkXxVpWT/5svqFD9MrBqmDzBHi19eZW3y675Gnr1dnhKmItqI5fnWfppZzs/DxwLcKHPNDJNBEBBJIKED4k9eAZAggggAACCCCAAAIIIJBSwK3zc3qolNUii8WmykP+kDdbPdwuL0brXqoWN/PByK+u35sPrt4+3otHMZv1ek27bFVf0N9e3wwerRN/TtMrvduqRcvWat2qhZq2fFTPffq3Tvt+bNeLRgXmoVEn1ujL13qpdaOGatqytToN+kRrz7kl9xUd3rpLp32ZOfkpkev8Rs0cN0YfLtipjK8u5tS20XViwzkjuIfmmi25JJeOTmwWF+AFhemzU5kJAdNGc+7yBCBWlX7i50z+nKddPu/mXQHCh7zb97QcgTwrQPiQZ7uehiOAAAIIIIAAAggggEBGBVxHNblVgdhZD3HrzHs9un/rStc0O7xwXDnW4nr8R9+NQrvPfaF2+QwFtZmmM96Mx7ovavWbTVShVl99tu604mvkvn5AS15prYeG/qpL3pSXUdNcedxN7Z/zrEJLFNF9/b/Q1kueTQOcOrvqTbVt85a+GvmgChhBavzhwVzZ+oRGuU9oRkfP0kmepZEqaOAvZosnJRx9+4Fzu96qG7che4F201P5HF/Xwt5xZVvLDtTy+A/s7VKy/ujmIvUJNuR4YKx2Eb5l3ZMSEgQIHxIoeIAAAnlFgPAhr/Q07UQAAQQQQAABBBBAAIHMCriOfKzm+QxZLBbZKg3RqswOeDq33RpctcjiqKNR//puZDNm4ysKsVt116AVCQFC+u1168y83ipfqLE+2JNs/wn3BW2Y1l91S3fSNxdIH9K3jNK+Gd1UwW5XlX7zdSLJZsUx2j4mVAU8ywkZhdR55sX0iwvkI2I26dUQe+zPi8UIUsvJJzLUmrgZB3Gzi6r0napffv1Vvyb/+mWq+laxyWIxFNRyso5nx0czZpNeu9cua4kB+imzP+sZajEH5TUBwoe81uO0FwEERPjAhwABBBBAAAEEEEAAAQQQSEvArfPfdFIhwzMoalVwrwWmm+CmVUL8e+6z09Uuf1yIYS3eR4t8uOrSzfmPqYjhUO1R/yrDkYZzj8aFBsnR9CMdSTJYLsWvq28U7KxvL8W3wD++R57/TwcP7Nf+/fu1/8ABHb+ULDhJqGaMLp88oqMnz+rilSu6fOGMTh47qjPXfD9ifW3Ny6qdz5Ct4hP60SSsidn8mu61e0Knhnp/fzLshPrm/IPssXTq4Ld9dW/R/CoZOky/nM2It1unp7VRfs/PmVFAZarVVM2aJl93l5Aj9mfRrntf3ZSJTd8zYOw+rsktg2TJpmWdMlADDsmlAoQPubRjaRYCCKQuQPiQug3vIIAAAggggAACCCCAAAJStP56/m7ZPEvIWBxqPvGoMjt0fG1RX5WM3TfCUOFHvlLKMVmXLm5bqI9eflo9u3VXn4iXNfaTudpwKr3br906/klLBXlZP89STQ/nM2Sv+ao2JruEc9cUdQttpn6fbPRizf4c+Ly4T2vRiEfUusmDuruYNe4O+PtHa6tZ/hCzRZMea677yuaLXerKCCqlkEYPa/ji077dSDhyvV6tFSTDcKj+2J2m4c/NnwbE7hliq5KZPTmyyTXbLTMSOsS3LUrLPRumWywyioRrtul+D9LFmZ3jgkBbJT37R/KdVzL78xNfh/jv1/Xdo/lksd+nkaYfrPjj+I6AdwKED955cTQCCOQCAcKHXNCJNAEBBBBAAAEEEEAAAQSyUeCKvu2c/9Y+DXdp0Ipko/QZvvI1/fh46bh18K3F1f27c0kHwN0X9dfYNqrXeogmzl+lTf+s1/JvRqlrjUKyFr5XfWbs1M1Ur+XS/vcbyGEJUptpZ5KWm+o5kvvCDLX3LCdlOFSpzXB9tnSjjlzO8LwJxez+WhHhQzX7sHdxTMzOmRoza7fpIH0a1U36lnOH3g4tr7IlbbJYy6rfotSnZ7j2vacGwU30zpYM7j2Q9ErpPHPr9DddFGy1yAhqogmmFjHa9Oq9slsMBfecr2smJeZ5S9d/+qipZ78HixyNP5Qpo25q2VNxAYWt4jP6PXH2kKWfn+QdEqkFPQvLsN2jYWsyu79L8jJ5joBE+MCnILAFIvdr9rDBmron438oBHaDA7H2bp1b9LoGf/qPrnhzA0A2NpXwIRtxKRoBBBBAAAEEEEAAAQQCX8B9UlNaB8WtX+94UO9m9t/clxeqb2nPnfoW2SoP1u9Jllxy68ycXqrb7SsdSXYHv/vMYvWvbJPhqKqIX1IbYHdqx5j75bDkU4cvvdhPwHVYU8KKxAUrsTM7LDLsRVQptIfG/HREicd2U3ZkpJYPLCervbbe3OrNOIRb56a3U5H2X8qLmqa4vPvM5+rQaJTmjW2gfIahgs0/1sFUMpCYtS+pXvdvs3S9FBWIf8H1nyY2D4o1THWDYtfRuGNi9z84bhIOYanoNXqxqmcvB5sqDVkl0yH/6DUadk/cMRUifkv0+czqz098Z8Z/j9LS/iVktVXQ4JWmNYk/kO8IeCVA+OAVFwfLeU2n9m/V38sX6Nsvv9R383/W6u2n0rgTIRvNbm7XJx3vVYt3N2d67clsrF1AFu26dkxbV8zVrLkrtOOcN39IpdNc5zHN6Xe/mry+SibLQKZzsu/fJnzwvSklIoAAAggggAACCCCAQG4SuKJvHolbtscS1FqfnszMnWQuHZncOm65GKOwmk3Yl/Suf9cRfdw8WDV7fKy/zicv36WD4x+SwzCUv/WUVGCd2jsuNHbmQ9vPz5oMbqdymiTn0R/1SlglFYhdR9+ztFTcl2ENVpNx/6Q+xhHzj16vZZe13ED9mnZKkezinvChrYq0n6ELyd7x5umNJQNU95nfFHnuB4WXtMpir6YX/jKbG+LSofEt1HLC4Uwvl5VWvdxnZ6h9Qc8+HnZVH77OfA+Cq3MUXsyQxV5Lb2xJli55CsdSivpRjxe3yrNBdWqzd2I2vRq7b4bhqKnXNiUKBbL885O8hyO1qHcxGbaqevHvRNdJfhjPEfBSgPDBS7C8ebhLF3cs0aRh3RVauYLqtOurwa+M1YSPx2vs8AFqe29JFa3YWAPGL9dhs9952YHmPq0lT4Uo5KkfdSb53yjZcb3cXqbrgjZM6ad6Ic0V8cGXmvXJIIXe/ZBeX3nBqz/g0mS6+a/ea36POny21zzNT/Nk375J+OBbT0pDAAEEEEAAAQQQQACB3CYQpWVP3louydFcE4+mcnt9Ws2+sUbDQuyx+xPkqzdK/yRfuSn6Tz1/ty124DXs01Mp/u0ZvXqoKtssspZ5KpWruHRsUnM5PHs+TDqWiUH2aJ3dsULfTxqliM71VCYoblNso2ArTf7PvL2uY5+oRZChQp1nejmjwBfhQ4w2vPyAus/yzASJ0roRIbJ7NgN/dKZOpxgXuaRZ3R/Qy+tNBv1T0fTm5eg/nlUFm2eT5GLqMc9sQSXpdv89qWUmQQ2WkiLn67HChizW1JY2i9HGVz39bKhwm8+U5Mcwyz8/yXv8pmZ3LyDDXkuv/5M9n5vkV+R53hAgfMgb/ZzpVroubNYXzzRS6Xyl9NDgqfrjSJI5knHlus5rw8SuquywKjj0Bf14NLv/JxWt3RPDVLrGYK24nOI3bKbbmmdPdB7V3P7VVKBCuL45GP/XYLQ2vBwiR8WntSyVDY8y4xWzd6Jala2t4X9ezczpPjuH8MFnlBSEAAIIIIAAAggggAACuVLArdPT2iq/Z2aAPUSvbPT23/lR2jY2NHZmgVHoQb253mzfgSv6a2x7hbYYpG/3pZx5H/VbhO6yWmS9KyJV4Rtzw1XYcKjO6G1JZ1WkcoY78qLOXIr/d2/Sg27sma6u5T1hSDH1WZRotPzmae3dtlVbtmzRuo86qKhhV80hC7V5yxZt3X5YF1NWPWnBsc98ED64jmhCqxYafyguGHH9N0VhhQwZjvp6e3uySkT9pmfq9NcSkyEck8p5/VLkwl4q4vlsOEL1nknfSU7tedczK8VQwY5fKWFiC5ZJraN+0gDPDBZHHY3elqwPPUdeX6GIijZZbJU0aHnycZSs//wkqYz7lD4NC5LF0UKTjpmHb0mO5wkCGRQgfMggVN47zK2zf4xWy7IO2cs016s/HU3nbvVo7f6olYpZDeWvM0J/ZuPi/q7/punh4hXUf8nFFHdG5L1+ymKL3ee0/LnaKuiopmd+Tep5Y0EvFbMWVscvvZu+mnaNorV19P0qcv9IbUr0t1za5/j+XcIH35tSIgIIIIAAAggggAACCOQuAdfBCWqa37Mxc36FfXYyyb+/nadX6b0+YWrWtIkeatZNb/2WdMPnm9vGqUkRzx3dZdXpi4Pmy/KkyeXUttF15PDc2d/tu1SPjFn3kqrZbSof8Xs6YxZS9M5JalvWLqNgA43bYTLQqxite6ma7LYKeub328vO3Fjzofr36KHw8O5qXMkhz9JMtduFKzy8h3r0Ha2fUk47MKmvD8KHy98rvP5wrU3Iga7o5ycryGaxqfyTPyvxfYPO7W+pYYfPs22liKjlA1XWs9l0ga763mzig/usZrQvIMPiUOi4vQnBEJbJPhq3lp7yhDgp91Vx68xMz6beVpXuPkverXyWsZ+fJLVxbtdbdR0ygvtq8R0cr0lSJ57kCgHCh1zRjb5uRKT2z+qvkAKGrKXaatKODP5fJ2arRtVxyDDsqvbCn8qWgN19Xov6VVChRh9or9nfCr6myNXluXV6bi+Vt1lVrvd8nUs2iST6z+dU2WYouNcCn+6p4b4wT73KFFHTD/dk4g9Q33QI4YNvHCkFAQQQQAABBBBAAAEEcrGA+4Lm9y4jq+fu9bApt5d8ubpaI1p11v823LqB7eomjX7kaS26FPePStfxuepXxSHDVkqtxq1XphYsuLJMT1e0ych/v97YkPr6zu5TnyosyFC+dtNT/Js2ac9Ea/XQSrJ59nawV9cI0+WIovXHsxVlL91XixKP5McX5Nyjd0M9g7OPKZWVhuKPNPme9fAheuWzqttvYZJ/nzt3jNUDQYaMQmGakrBUlFunprZXo7d3Jgz6m1Qo4aWYE6v02ag39P68HUp+b33CQckexC+ZZBTpqQUmQ0bOvePVxLMnhK2yhq6+HeQkFJNrLf/QZ2++qnfm7JBZJpPQ/oQHVzUnvKgMe029tjkhVYp79+ZaDQ9xyBrcVlMPezkTIYM/PwnV8DyIXKr+Jaxy1Bkts0kYSY7lCQJeCBA+eIGVNw6N1oEvu6qC3fPLq75eXpX0bvi0DVw68EFDOSwWGUU7aIZ3sWzaRd96N3rT66rlCFa3788nuesiQydzUBIB9+l56l3BJiNfqN7dlTLJif77RVW1WeSo97Z2pnw7SVnePYnU6qFV5CjdS/MvJks8vCso00cTPmSajhMRQAABBBBAAAEEEEAgDwk4D3+pzmWtMuxVNOgXz/iAW6e/CFe3z48n2mPBszn0w+o776qijyxQRJ1Csua7W12n/JtkoDzDbO7LWvlciBy2u9T5i/1pz2iIXqNh99hkrz5cpnlCwkU9e1iUUXDlUHUd85vpjAD3hSXqX6GQQt/eanpN9/mv1LGgoaCWn+i41/+UzWr44NTOsQ+pXbIZKHKf0bddi8tqsStk+DrFLSh1XYsfr6PBv5svL5VA4nng+k+fhhWW4RnHsd2lxxdfythYi+uYprUtIsNRT28nGzBwn/tVL9QtGFdmsXDNMUk0cqvllLBCce12hGjEOpPQJQm+54nn56m9CtvK6MkkG2NEatu7jVTIUUX95iX+WUtRQMoXvPn5SXS269B4NXZYVbzv4uy5mTjRtXiYtwQIH/JWf6fb2it/jlAdz7RKa1G1mrgvQyl54kLj7pb3bDpUSJ2+8XVAcFU/PXGX7KX6aKHZXQiJK8LjdARu6q8Xq8duTlU8/AddMPnDKernJ1TKapGt4rP6IyO/M9O5YuK3Yza+ohB7QbWe/F+iP1gTH5G9jwkfsteX0hFAAAEEEEAAAQQQQCC3CLh1/o831Ki4Vbay7fTh5vPa8EZ3jUq2Ie2Vb7qoWovOCi3lUKGQxzRpw4WMDWKnYLp1Q2SBqgqfvisDg6DXtLB3cVmDWmnKCZN/2CYq/8qvz+jB9h9pm8n2E+6LmzShY0VV7DxNu1MZs4/85SmVtdpV640t5rP4o/ZpyYdjNOrNN/WmyddLj9yjoGqdNcLkPc/xo97+WL8cTuXOP/dZTX+kgUb9m/L9yL9fVHW7RdaS4frBs6RBzDoNrx+u7y4nanxqD2M26pXYTcEtsRuDFw2fk+HZD1E7PlLrEg5VffonnY2lj9HZjZ/ryRZtNKDbfbH7PQQ1n3h7xkyiOuROyw16OcEybrmpRE1O/eHlZXq6kkM1Xlp7Kzxy6czy51SnUBm1+WibUp/3Y1aktz8/t8u4vrC3ilvzq820lJu/3z6KRwh4L0D44L1Zrj3DfWm5Iqo6ZFgM5Qsdq+2ZGHB27XtPDRyeX1pW3RWx4tb/OH1EdmWBepW0qVj4nCRrGfqo9DxVjPvEDHUoZpXFWk5P/GQ2GdCt01PDFGSxyFbhGa3MxGchTdDo1Xqusk1BTT7UQS9nD6ZZbgbfJHzIIBSHIYAAAggggAACCCCAAAKefW93fqcXWlVUgYJ3K7RuZdUbukg7jxzW7k2/a/ZHw/RorWKyl2msIdP+1slk/350X9ytHceTLSljqurUf3MeV/WyDTVi2YkM3gzp1rlvOqmItbh6LzRJFZJc54Z2fhOhZnWbqMfzYzThs8/12cfv6Y2IzmpQu6F6jftNx5PV/fbpMdr6Zm3ZrcnvUL99hK6v16SBvdQj3LMfRMqvLqHl5CgXqi4m73mO79ErQlO3pJJ83FyqJ2oP0q8mSxzJdUgTWxSUYeRTg/f2KPrQeLVoOUEZW6nHqQMz++q+kqVUo1UbhT78gfZ78W/0qztmaUT3lmrSrJVaNGmstk+N14oj5zT3sWIyLHbd++omk6Am91ru+7KXahUvonIh1VR36KpEH460Hrp14Y839FD5Wgp/8wO9PbiNQqqGaeSy9PZeTV5mZn5+4suI1poXq8oW1Fgf3olBmvhq8D1XChA+5MpuzUyjbmrN8BA5DIssnql2SzI41S7ZpVyHJ6hJbPhgKH+XWRlc4y5ZIak8vbG0v0pbU250lcrhqb7siom+I3fbp1ohkzfcLlcm7xIxKSzFSzHa/Hqt2L623vW0fjGN0ePWuvSsh2kPeUUbM/J3YorrpPXCDS3uW1zWfK3TvTslrVIy+x7hQ2blOA8BBBBAAAEEEEAAAQTyrsBNndi0SJ+OGqIBjz2q9m3aqmP4E3ph7GRNeDxE+R8Yq90pbsyP0ba3mqvPXJO1d5JAunRySYTurxmuadsThQjuq9q/7t8kRyZ/4j77tToVsemugcszdpd49Dnt+fsnzfn2a30za56WrTugSynqnewq7pP6tHU+GQU76MvkGyYmO9T8adaWXYrZ+Koe6PqN6aoFnutdXvK4ynlWLqg0SHOnddcDL683GfQ3r1nCq9Gr9GL4B9rnRfiQcG7iB9F/6fkqNlmspTRgqcmAQx6wdG4bq+6vrE2sku5j5/ld+n3hPP20/pAueT0Gk/mfn9iKObdpdB2H8jW+MzeIpovDAQEtQPgQ0N3nu8q7jk5V26KGLJ7B5ntf1cZU0/60rxmz5Q3VsntmPlgUlO6GT2mXlfTdaK0Zdo9s9hC94vVIuFNn13+uYd1bqWmrh9WpSxd1aNNSrToP0bRN3uxpkbRGvn7mPL1OM14JV+N6oWrx8CPq0LaLhnyzQ9fd17V/+Uz9sO5Uskte167vX1P/Xk9p7NIjpmtSJjsh7qlnTcxq9tjZKaX6LTYPiFxH9FFTR1w/Zmo9S9MrJ3rRpSMTmshhFFW42QKQiY7MjoeED9mhSpkIIIAAAggggAACCCCQNwVi9M/rNeUo0kXfnk+69FH0ganqULWrvk1zwN6ts7++qKZNhmrJsWQpQNSveqbV6+mwXtaivmVkrxChFSZj3emcnLG3ry9U7+JWOULf1Z74KrovaMX4z7QhQ+MnWQkfXPrv49Zq9v7+1G+kjPlXo+s6ZBgFVK78Peq/5EbG2pX4qIvf6LGe3+pS4tcy8di5512FOiwyCjysL+LWY0paSh6wjPzxKXWacDhpu7PtWVZ/fiTnv6NU21FE7b84mY03wmYbAAX7uQDhg593UM5Uz6ntb90fN+vB4lD9sTszOL0xZe1uzH9MRT2zJyyGivRckLG7DlIWk/IV93F90sIho0AnzfTqN2GUdk/rokoVH9YHa84madfNw4s0uGl7fbIv/i+HlJfNmVecOrb0ZTUtk1+Vunyk9edu3WbgPKnFg1rosed66m67IUfdt5JUx7nnPTUIiguMjCKP6OszSf/IS3JwoidRq5/T3TbPvhxF9Oisi4neSfTw6hyFx4ZR2bB81q3LRK0YpLusdoW8vCHRhXPmIeFDzjhzFQQQQAABBBBAAAEEEMgLAtH687nKshkF1ejtLbc2mY7R6bWTFF41v+7q/6NS337ArYurR+rh9qP0x5kYOZ3OhK+YyGs6/etzqtvl63QRo7eMVr38pfTY3MzuNZH2JWL+eV017TZVGLwy4ca/yM1vqlWPb3UqQ/8Uz0r4cFGzutfR83+mlXK4deqrTgq2WmTkb6vPT2eoUkkafXXhAHX4YF/qAUeio2MiI5OMr9x+y62TU8OU3zAU1OgDHTCZRZH7LZ36963OeumvtPrrtljWHvni5+em/nqhmoJqvKA/M5FZZa3+nJ0XBAgf8kIvp9fGmK0aeZ/nTniLLI46Gr0ts4PxMdo68j7ZPeVYHKozelsqv4zSq5DJ+9F/xu4RYKs8VKu9+P93zPZ3FFqolMJ/OJcsvb2hLZN7qV6Zwmr28Z3Z9DiulS4dX/CkQvJbFdz6I+1Ktn6j+9wsdQ22xoY5wT3mJoFx7vtAjfLdCh+KddHMNO8kiT81Wn+/UFWe5ZQstjJq+uRwjRgxIsXX8AGNVdrqCSjyq930M8ns4svK2nfn7rF6wGGoUPjsrBWUibMJHzKBxikIIIAAAggggAACCCCAgKlAjNZ6ViqwWGRYC6tivYcUWrOcCloNGQUb6r2dqa0h49aV9WPVrLjn37xxKyik/G7TPcMysnzNZS0fdLcKNZ1gOuBtWm0vXoxb5SFuE2HPiInr3Aq9GBauLw5mdPwks+FDjE7/NlwPFKmh51eb7deYqBE3VmloVZsc9d7WjoxWK/509xl917uzJpilBfHHeL67TmrR0AYqmy+/7h3+Z8obTqP+0ZueGRjWkur6rfnGxbneMnqj3ug2UptS+9gn9szSY9/8/LhPz9SjJUqr+3ens2XsJ0tN5ORcIUD4kCu6MWuNcB3+UI1j92nwrA84RKu8GNxPcmXXMX3SIkiG548GazkNNN0JKckZGX9yeaY65TfkePCd21Mc0z07SquGVJLN0UwTjyaL26N+0oCS8RsuJ1pPMt0yfXtA9O6P1SrYKqNgM03Yb/LXgXOn3q7nkMXIp7BPTya7+E3tnTdaA/sP1vvLj2VsPUfnHr3zYNxySrbKHfTSW2M0Zkzyr1EaEFpUVk8/OkI1bq9JvZLVJFNPL32ljvkscjR4L1OnZ+Ukwoes6HEuAggggAACCCCAAAIIIJBYwK3jU1opX+wqCIlCBKOwQt/enHKAOv7UmA16JcQeN4aQWvhgBKnt52fjz0jzu+v4V+pUqrx6zzvr+0FU92ktebaOytYK18uvRahz236atOmyF9fxNnxw68LCCNWtVFrBwcVVsmSwihYrpcqNR2ttqmM2Lh2YFKY6L/yZMDsjTbBEb15dPUxhTy/RxXQmTDj3jotdUsmz2kXR7j8kndHivqy/X3tABQ2HqvSbqxPJhmESLperLV06/vVj6vThPt/djJsAl+yBT35+rmn1iyEKfuh9pZoRJrssTxHwVoDwwVuxXHh85NL+KuG5y91iqGDnmZle38996gu1Lxx3J7613BP62WxM//pBLZ/yigZ0CVPzFm3Vrf8Qvf7xAv17Pu0BbteRuI2sg1pN0cl0fhkmdJH7pKa0DpLFGqzm727WlSTn3dDepdM18/dDt6aEJpyVcw9cR/RpWBEZFqtK9pxn+kveff4bdSpkyOKop7d3pm2UoYpf/UHdYvso6XTRJOfe2u/BsBhJ17OMPyiTfRh/esL3yPl6rJAhe7WXEl7KqQeEDzklzXUQQAABBBBAAAEEEEAgLwi4T81Rz/K2hCDBsJVQ6ItLdTK1AehsQXHp+A+PqXKNCC2/lGQAwEdXi9Hl8VKI0gAAIABJREFU/7brn+1Hddnrf557Gz74qMoZKMZ9coGeCovQTxlYTcF96kt1LGpVUMXO+nTH7aUbIk+s0bSB9RXsKKOmwxfrSKoBSXyFcqel68iXCm/7pjZk194j8Xw++n5z05uqX76dpuxNt8N8dEWKyYsChA95sdeTtNnzC7CdgmLvMohbfz9zM8PcOv5ZmAp47nQwHKr1+uYUSXvM4R/0ZKOmemriz/r32AVdOntAa797TWEVHLKXbKQRy06luragc5dniR6Lgh7+Qsn2r0rSmqRPburnJ8vE3cFv2BVco4XCI97QhJnLtTOdsCO2nOtrNLbNA+rw0fZsSawjVz+nqp69F6yl1G+JWVIj3fz5idjlj7xdbiqpw+1nzm1vqa5nlotRRN2+v3L7jUSP3GdmqH1BI7YfG76fdL3HrPRhokvEPfTMPilhla3CMyneyu4XCB+yW5jyEUAAAQQQQAABBBBAIK8JRB79QzPGjdSb736m+ZtOZ2x2vq+R3Je1avj9qtrtGx3xOiDwdWUSl+e/4UPUjp/14+6MLvbv0pk1n+nFHq31UMMmatGypZo3aaDQRm3VZ/hELd1zOdVxncQaWXvsx5Y7l+mX/VFZa14One0+/4sG1w5R/wXmy2PlUDW4TB4QIHzIA52cdhPdOjM17Fb44Mj8/gcx2/V2/bgll4xiD2v6sWS3Nzj3aUJYQ43462qK6kRtf1eNChqyFgvT5IPJzrt1tHPnWNWPDR9m6IIXNzBE7/1cncs7Eu6+iFs/0pCtRKgiZu5Mc9bDtQW9FGy9vaZjiopn6YUorRxcMW5NzGLhmm26+1aM1o+oIbvFquCe85XO6o4Zqk3U8oEq65nl4qivsbvM/hJz68KsripmWGQUbKVPjiTqjyz2YYoKRv2sJ0pZZSsfkeKt7H6B8CG7hSkfAQQQQAABBBBAAAEEELhDAs6jmvd0qJqNXCPzW+7uTL2i1ryjPuPWpbhR887UJrCvimUW+y9qlyZ3elDdP9+l2/NXslgmpyOQigDhQyoweenlyAU9VSR2bcYgtZ5y0os1C+OV3Lq4qG/coLZRWI0/2Jnil2nszIUCwarW4UP9k+L/bJf0XVfP8kMO1Rn1b3yhSb7H70sR1PpTnfIifPAU4rq4Q4vGP6fHwuqpUtHbQYThqK7nVqYMQ+IuHK3VQyvJZq+ml9Zmbi5IkgYkfxKzRW/U8mzybSio5WSdMGuT64A+aOTZ7yG/2kzzTRId39dG0Z5aYDYN0H1WX3fy9IVNFZ5eluQPtaz2YXICRS5S76KGbPcMS/FWdr9A+JDdwpSPAAIIIIAAAggggAACCNxBAfdFbV2xXqcT3U93B2vDpRHwKwH35X/1+7pTd2Z2kl9JUJmcECB8yAllP79G/KwCi8Wh+mN3er/E0NU/Nexez6C+VUUbv6dtJjPMYra+qdp2i4z8bTQ1RXrgucO/uuwWQ8V6LzLXuvS1Ono2nA5914sNp02Kcl7QziXj1LWqZ5aGVSX6LzVPeZ07NKaeQ9ZS/bU0o7MPTS6X6kuRi9Un2LM/hl01Rqw3/R+++9xX6uhZ/sjxoN7ZbTZLIdXSU30jcnFfBRsW2asP13qTTMV1eKJaFDRk5G+k9/ckvWaW+zB5rS5/o0fyGXI8MDb5O9n+nPAh24m5AAIIIIAAAggggAACCCCAAAIIIIBAHhcgfMjjH4DY5sds0MshcXfhFwufraQrALl0fuM3euvZPgrv85wmrDiabKD8ila/WFMOw5CjyuOafyKV2wrcl7V94Rea9edRk8H+61rYu7isFruqj1hv3iPRf+jZijbZ7n5ef6a3D477gv7+X281bxCmFxefNF1v8MbygapgM1S4xzwlZAuRWzRjWIQGDRyogU+EqYrDkK1sI/V8eqAGDhqsd5eZl2Ve4XRejVqq/iWssliC1G76OdPZJjd+7K9SVotsVZ7XX+m1OZ3Lxb8dvWaY7rFZ5Kj3tlLuXx2pNcOqy24EqdaINSmXpMpqH8ZX4tZ31/4P1NBhqECXWcneyf6nhA/Zb8wVEEAAAQQQQAABBBBAAAEEEEAAAQTytgDhQ97u/1utd+nQJ61U2LDIWrKH5iRsquDUwa/7KazfRK08eEFXzmzRl4930Ct/xw/XR2rnlA4qZzPkqPSoPtthto5P+sDus9+pewmrjHz3a/SWVEbZXYc1oYlDRoHOmpk0HUlxgZgtI3WfwzOrwKpyA3+VyUQMxWx+TTUdBdV6ytHb4YT7sg5tXqd1a9dqxehmym84VPf5BVqzdq3Wrduk/edNpgp4rh55TOt/XKTfdl+4XVaKWiV7wblH7z7oWVKpkHrMS7EOleQ+r/m9y8pqsap4n0Upg4BbxUUeW6/F837RjouphD7JLus+N0PtCxiy3/uaNidrjuvQFIUVtcpx7zD96eUGExnqw2R1iV45WBVsNt0zbE2yd7L/KeFD9htzBQQQQAABBBBAAAEEEEAAAQQQQACBvC1A+JC3+/92629u1tiGRWQY+XT/yI2KjREuL9QTD49NsoySc884teu/UNfcV/Xvp11VyWFV0brPaMF/yUayb5ec9iP3Za18LkQOa7Cavrsp1UF2KVp/PFtBNntNvZZ81DzZFaJ+fFzFHQVVunZPfb7LLHq4qY2v3qd8dw/SL5fMNlvwbAbtuVY1vbQunXa5z2j2Y2Vk82zQnL+WRvwVH8wkq1SKp07tHheqfIZDDT/Ynyy0uKldUzvpLpshi1FAD08/Yzozwn1mtnqUscmwGCrU6H2Z7h+d/Lquw/q4WX5Zyz6t5YlpXMc0s1tZ2Uu01Af/XE9+VtrPM9yHiYtx6+SU1goyCunRWZcSv5EjjwkfcoSZiyCAAAIIIIAAAggggAACCCCAAAII5GEBwoc83PnJm+46Ol8DaxWS1VFFPb/eqyv/jFa31zckXWbp2ix1C3lEEeH3qkhQObUYsUAHMjfhQVKMDn/bQxUdpdRs9GqdN8sBElXyypweCrbmU9jUtDdfdp9fqMdDe2jmIbNZFDd14IcnVfOuphqz5rLpoL6c2zS6jme/hwFaml7bYtZrRA3PklWW2JkWJfosUoYnDVxbq1GhReSo+YJW3QpB3DcO6seRj6hll7YK8czecIRq3N6key/Ek8SsH67qds91LbI4Gul/BzMy+8Gtc/N7q5yjpl7bdMvHfUWb3m2u4sVC9eofF8xN4i+a4rt3fXj79Jta9mQZWYOa6qMjGan37TN98YjwwReKlIEAAggggAACCCCAAAIIIIAAAggggEDqAoQPqdvkyXfclzdrekRTlc9fTCHNQ3XPA89r8c4jOrJ3i1Yv/FRv9HlAJe0l9MCA8fpp39WkA9Xuqzq455jpMkcpMWN0ePbjqlGytp6atTdupkXKg5K84j77tToVsap4rwXpDPC7dXXrdA1s3UgPP/GaPvjsa838apomvvOS+oQ1UOPw0Vq8P/UZCq5jn6hlkKFCj3ydbiDiCVD2zuilmsULq3Tdhqrb7n/a78VYuvviZn3xfBe1bNlG7duFqWXbvhozf5dOL+qrEp79Hu4ZpjVmGYpHJnqXpnYPUXDBYFWocJ+GrkrtwCSMkvusVrzykCrV66t3Pxmvl7vXU40WL2nevtRNkpVw66n3fZhQzq3QJssbiCcU6N0DwgfvvDgaAQQQQAABBBBAAAEEEEAAAW8EtmzZotWrV3tzCscigEAuFCB8yIWd6osm3TyxWT9+PlYvDuynHo92UqdufRTx8nuaNvlp3Zevlt7YknI5Iufu99Q6/JsMDNhH6+CsPqoZ0l2T/0k0+8Ado8hI87v8Y9vkPq/vuwfLVqa/fszQ9IJoXTiwQSuWzNPsOfP14++bdPhyGuXfgrv8Q3cVNRxqPP5QsuWQ0pGN/kMvhHsXPpiXGK01L1aVzWJVyceX3N4Q2/xgSU5te7u7Xk1viagk57t0af/f+vnHFdr83xWlr5LkZE/ykbk+vFWM899RquPIp4fGJ19yKvl1suc54UP2uFIqAggggAACCCCAAAIIIIAAAh6Bjh07qlmzZmAggEAeFyB8yOMfAG+b79z2luo68qvV5GNJB+Zv7NDHbauo89fm+xPcvk6U9n3dU6GtR+q300mnCMRsfE1hz628fajJoxu/D1ZlRyn1WXTF5F1fvBSl3yLKy2a/V69uuh2wRO39Rcv3pj2zwH32C4X3+UFZrplzl8Y+4NmMuoA6zDiXdHaJaRNvatETXTTpaFJP00N98mLW+tAzW2TDyyFyBHfRzDPprLXlk/qmLITwIaUJryCAAAIIIIAAAggggAACCCDgCwHPrIe45aktWrVqlS+KpAwEEAhQAcKHAO24O1XtmPUjVMNuyFF9gOYdjpLcUTq9aZaGtygrR6VBWn41rZpFas8XvdW635falWKFH5f2f9BcbSefSKsAyXVE09oFq0jrycqWrQKcu/XOgw5ZyzypZZG3quI6pMmd2uvDfWnND3Dr/Lc91WXy0aShjGlr3Lp+dJu2HU+BEHu06+CHahJkyCjQSpMzEihEr9HLXUbJZDKK6dWz9mLW+9B9aYkev6ugHhizVWnHOVmraVpnEz6kpcN7CCCAAAIIIIAAAggggAACCGRewDPrIT58YPZD5h05E4HcIED4kBt6MQfb4Nw2WnUccZscG7b8KlzQIcOwyGItoY5fHElj4P2GdnzWWRUc+RVcrrw8g7+3v+5SmRJFFGQvr4jf0h+Ojtn5nhoVqa7nVl33fctj/tEbtey6vRfBVW0a10mPvL9V8VmE6UWdezT+kd769nR6d/JHaev7zVTcbshaoofmXEx2vPu8fnyikmyGQzWeW6k0s5xbFbm89Bn1+OhAGvamNc7Ei77oQ6d2v9dQhaoN0cqMNC4TtczIKYQPGVHiGAQQQAABBBBAAAEEEEAAAQS8E0g86yE+gGD2g3eGHI1AbhIgfMhNvZkTbbm6SH1LWRMS7NhfJEaQ7uk3V8fSWPUnZsubqu0wkp5niQsx4n8ZWRwtNCmtQhLad1Mb3qyv4HojtfFmwos+euDSiYURqnNXXfUeOVrPPdZRfd7/K519LKK199Nwdfpge/p38ju3a8z9DlkshuyVB+v3xJMf3Fe0+cO2KmNzqEKnT7UjI227vk6vt39KC88lCzF8pJG4GF/0oevQVLUrXUVPLDmbgeWkEl/dt48JH3zrSWkIIIAAAggggAACCCCAAAIIeAQSz3qIH+9h9gOfDQTyrgDhQ97t+0y2PEb7v+ql6oWsMiyGbEVqqNPon/Vf+hMWMnm9VE6LOaDpne5W/Vf+0uVsGHd3XjmmXdt26fiVtJZaiqtb5NqRerjvTB1O/1BJN7R2VKiK5augtiO/129rN2rTulX6edZ4DWlTRcHlQvX4hNU6dXu7iVQAPC/f1F+vPKyIOzyQn0YFk74VvVeftK2sh8ZsVDbMWUl6rXSeET6kA8TbCCCAAAIIIIAAAggggAACCHgpYDbrIT6AYPaDl5gcjkAuESB8yCUdmdPNcF47rUOHTupahgbcs6d27kur9XrDGur8+b70ZxxkTxXiSo26oRteOcTo3M7f9MPUD/XOW2/qjTfH6L2PpmveH7t0Lsq7ikbduJkDyy15VyfTo91ntWxwPdUeMC/NGTKm52bDi4QP2YBKkQgggAACCCCAAAIIIIAAAnlawGzWQ3z4wOyHPP3RoPF5WIDwIQ93fm5ouvvien3Ys5cm7vZq9D83ND2A2uDW2XlDFf7GLzrhJ91E+BBAHx+qigACCCCAAAIIIIAAAggg4PcCac16iA8gmP3g991IBRHwuQDhg89JKRABBPxdgPDB33uI+iGAAAIIIIAAAggggAACCASSwLJlyzRq1KiEr4oVK6p06dIJzz3vLVy4MJCaRF0RQMAHAoQPPkCkCAQQCCwBwofA6i9qiwACCCCAAAIIIIAAAgggEFgCzZs3V926dQOr0tQWAQR8LkD44HNSCkQAAX8XIHzw9x6ifggggAACCCCAAAIIIIAAAoEsQPgQyL1H3RHwnQDhg+8sKQkBBAJEgPAhQDqKaiKAAAIIIIAAAggggAACCASkAOFDQHYblUbA5wKEDz4npUAEEPB3AcIHf+8h6ocAAggggAACCCCAAAIIIBDIAoQPgdx71B0B3wkQPvjOkpIQQCBABAgfAqSjqCYCCCCAAAIIIIAAAggggEBAChA+BGS3UWkEfC5A+OBzUgpEAAF/FyB88Pceon4IIIAAAggggAACCCCAAAKBLED4EMi9R90R8J0A4YPvLCkJAQQCRIDwIUA6imoigAACCCCAAAIIIIAAAggEpADhQ0B2G5VGwOcChA8+J6VABBDwdwHCB3/vIeqHwP/P3p3ANXElfgDPTBIO8cCjWsG73latdatV13bVxaotulpbsbVuW6pr1x7aS1stPbb1wlu8oJ541Ps+6o1Hq2KtWhFdTywoWgX/CAU2SX//zwwBAiQhgQQyyY/PhxLCzJv3vm9Mk/nNe48CFKAABShAAQpQgAIUoICSBRg+KLn3WHcKOE6A4YPjLFkSBSigEAGGDwrpKFaTAhSgAAUoQAEKUIACFKAABRQpwPBBkd3GSlPA4QIMHxxOygIpQAFXF2D44Oo9xPpRgAIUoAAFKEABClCAAhSggJIFGD4oufdYdwo4ToDhg+MsWZIHCxgMBuh0Og8WUFbTGT4oq79YWwpQgAIUoAAFKEABClCAAhRQlgDDB2X1F2tLAWcJMHxwlizL9SiB1atXY/HixR7VZiU3luGDknuPdacABShAAQpQgAIUoAAFKEABVxdg+ODqPcT6UaBsBBg+lI0zj+LGAtKoh5YtW+Kxxx7j6AeF9DPDB4V0FKtJAQpQgAIUoAAFKEABClCAAooUYPigyG5jpSngcAGGDw4nZYGeJiCNelCpVPI3Rz8oo/cZPiijn1hLClCAAhSgAAUoQAEKUIACFFCmAMMHZfYba00BRwswfHC0KMvzKIHcUQ+54QNHPyij+xk+KKOfWEsKUIACFKAABShAAQpQgAIUUKYAwwdl9htrTQFHCzB8cLQoy/MoAdNRD7kBBEc/uP4pwPDB9fuINaQABShAAQpQgAIUoAAFKEAB5QowfFBu37HmFHCkAMMHR2qyLI8SKDzqITd84OgH1z8NGD64fh+xhhSgAAUoQAEKUIACFKAABSigXAGGD8rtO9acAo4UYPjgSE2W5VEC5kY95AYQHP3g2qcCwwfX7h/WjgIUoAAFKEABClCAAhSgAAWULcDwQdn9x9pTwFECDB8cJclyPErA0qiH3PCBox9c+3Rg+ODa/cPaUYACFKAABShAAQpQgAIUoICyBRg+KLv/WHsKOEqA4YOjJFmORwlYG/WQG0Bw9IPrnhIMH1y3b1gzClCAAhSgAAUoQAEKUIACFFC+AMMH5fchW0ABRwgwfHCEIsvwOIHTp09jx44ded/NmzdHw4YN836X/nbq1CmPc1FKgxk+KKWnWE8KUIACFKAABShAAQpQgAIUUKIAwwcl9hrrTAHHCzB8cLwpS/RAgU6dOqFt27Ye2HJlNpnhgzL7jbWmAAUoQAEKUIACFKAABShAAWUIMHxQRj+xlhRwtgDDB2cLs3yPEGD4oKxuZvigrP5ibSlAAQpQgAIUoAAFKEABClBAWQIMH5TVX6wtBZwlwPDBWbIs16MEGD4oq7sZPiirv1hbClCAAhSgAAUoQAEKUIACFFCWAMMHZfUXa0sBZwkwfHCWLMv1KAGGD8rqboYPyuov1pYCFKAABShAAQpQgAIUoAAFlCXA8EFZ/cXaUsBZAgwfnCXLcj1KgOGDsrqb4YOy+ou1pQAFKEABClCAAhSgAAUoQAFlCTB8UFZ/sbYUcJYAwwdnybJcjxJg+KCs7mb4oKz+Ym0pQAEKUIACFKAABShAAQpQQFkCDB+U1V+sLQWcJcDwwVmyLNejBBg+KKu7GT4oq79YWwpQgAIUoAAFKEABClCAAhRQlgDDB2X1F2tLAWcJMHxwlizL9SgBhg/K6m6GD8rqL9aWAhSgAAUoQAEKUIACFKAABZQlwPBBWf3F2lLAWQIMH5wly3I9SoDhg7K6m+GDsvqLtaUABShAAQpQgAIUoAAFKEABZQkwfFBWf7G2FHCWAMMHZ8myXI8SYPigrO5m+KCs/mJtKUABClCAAhSgAAUoQAEKUEBZAgwflNVfrC0FnCXA8MFZsizXowQYPiiruxk+KKu/WFsKUIACFKAABShAAQpQgAIUUJYAwwdl9RdrSwFnCTB8cJYsy/UoAYYPyupuhg/K6i/WlgIUoAAFKEABClCAAhSgAAWUJcDwQVn9xdpSwFkCDB+cJctyPUqA4YOyupvhg7L6i7WlAAUoQAEKUIACFKAABShAAWUJMHxQVn+xthRwlgDDB2fJslyPEmD4oKzuZvigrP5ibSlAAQpQgAIUoAAFKEABClBAWQIMH5TVX6wtBZwlwPDBWbIs16MEGD4oq7sZPiirv1hbClCAAhSgAAUoQAEKUIACFFCWAMMHZfUXa0sBZwkwfHCWLMv1KAGGD8rqboYPyuov1pYCFKAABShAAQpQgAIUoAAFlCXA8EFZ/cXaUsBZAgwfnCXLcj1KgOGDsrqb4YOy+ou1pQAFKEABClCAAhSgAAUoQAFlCTB8UFZ/sbYUcJYAwwdnybJcjxJg+KCs7mb4oKz+Ym0pQAEKUIACFKAABShAAQpQQFkCDB+U1V+sLQWcJcDwwVmyLNejBBg+KKu7GT4oq79YWwpQgAIUoAAFKEABClCAAhRQlgDDB2X1F2tLAWcJMHxwlizL9SgBhg/K6m6GD8rqL9aWAhSgAAUoQAEKUIACFKAABZQlwPBBWf3F2lLAWQIMH5wly3I9SoDhg7K6m+GDsvqLtaUABShAAQpQgAIUoAAFKEABZQkwfFBWf7G2FHCWAMMHZ8myXI8SYPigrO5m+KCs/mJtKUABClCAAhSgAAUoQAEKUEBZAgwflNVfrC0FnCXA8MFZsizXowQYPiiruxk+KKu/WFsKUIACFKAABShAAQpQgAIUUJYAwwdl9RdrSwFnCTB8cJYsy/UoAYYPyupuhg/K6i/WlgIUoAAFKEABClCAAhSgAAWUJcDwQVn9xdpSwFkCDB+cJctyPUqA4YOyupvhg7L6i7WlAAUoQAEKUIACFKAABSjgDgIGgwH37qfg6tXruBB/Cb+cOYfjJ0/h8NEfsW//IezYtQcbN2/Dug1bLH7PnLPA4t+s7VfWf/vgo7F4b9SHiqhrcTZSn2zf+QP27juImCPHcPzEKbnv4i5cxJWr1/D77/cg9S2/KECBogIMH4qa8BkK2C3A8MFusnLdgeFDufLz4BSgAAUoQAEKUIACFKAABTxC4P79FJyM/Rlbtu3Ed4uXY1L4THw7aRq/3dBg4pQZiFq0HJu37pDDCSmQ+PPPPz3iPGcjKWBNgOGDNR3+jQI2CjB8sBHKRTZj+OAiHcFqUIACFKAABShAAQpQgAIUcDOBP/74Qx7NsCBqSYGQYfLUWVi0dAW2bt+Foz8ex6mff8G583G49N8ruJFwE7duJ0MKKx6mpyMzM9Pid3p6hsW/WduPf7NsWpyNZJ6SkorbyXfkvvrv5Sv49fwFnDp9Bsd+PC6Pili8bCWmTJtVoM/nLViEH386AWl/flHAUwUYPnhqz7PdDhVg+OBQTqcXxvDB6cQ8AAUoQAEKUIACFKAABShAAY8S0Ov1OHrseN7oBmmUgzSdz5mzv+J+Sgqn5fGAs0Ea6ZCSmopzv56Xp8+SAidppIs0KuJgzBHodDoPUGATKVBQgOFDQQ/+RoESCTB8KBFbue3E8KHc6HlgClCAAhSgAAUoQAEKUIACbieQmHQLkd8tlS80z4pYII98kEZA8MuzBTKzshD78y+YMy9SPjfmL1wkj5zwbBW23tMEGD54Wo+zvU4RYPjgFFanFcrwwWm0LJgCFKAABShAAQpQgAIUoIDHCPzvf//DD3sP5E21s+uHvZAuOPOLAqYC2dnZ8mLVuet9SAuLZ2Vlm27CxxRwWwGGD27btWxYWQowfChL7dIfi+FD6Q1ZAgUoQAEKUIACFKAABShAAU8WkIKHlavXysHDgsjFuPlboidzsO02CCTdui0vSi2FEEuWr0IWgyob1LiJ0gUYPii9B1l/lxBg+OAS3WBzJRg+2EzFDSlAAQpQgAIUoAAFKEABClCgkIBp8CCt68C5/AsB8VeLAtLaIFu27ZJDKwYQFpn4BzcSYPjgRp3JppSfAMOH8rMvyZEZPpREjftQgAIUoAAFKEABClCAAhSgQOHgQbqYzC8K2CNgMBgYQNgDxm0VLcDwQdHdx8q7igDDB1fpCdvqwfDBNiduRQEKUIACFKAABShAAQpQgAL5An/++SfWrt8k37UujXhg8JBvw0f2CZgGECtWrYV0bvGLAu4owPDBHXuVbSpzAYYPZU5eqgMyfCgVH3emAAUoQAEKUIACFKAABSjgkQLn4+Ll4EG6WMzgwSNPAYc2WgogcsOsn0+fcWjZLIwCriLA8MFVeoL1ULQAwwdldR/DB2X1F2tLAQpQgAIUoAAFKEABClCgvAUy/vgDM2bNw+Sps5Ca+qC8q8Pju4nAw4fpmDojAuHT5yAtLc1NWsVmUCBfgOFDvgUfUaDEAgwfSkxXLjsyfCgXdh6UAhSgAAUoQAEKUIACFKCAYgW2bs9ZJPj4iVOKbQMr7poCv5w5lzeVl2vWkLWiQMkFGD6U3I57UiBPgOFDHoUiHjB8UEQ3sZIUoAAFKEABClCAAhSgAAVcQiDh5m/yxeFFS1dAmipHOV8G3DkQgc/GjMGYMWPx1fdx0NlZeUPiLkz/TNp/DD6dshXXub62nYLFby6t9xC9co18jv338tXid+AWFFCQAMMHBXUWq+q6AgwfXLdvzNWM4YM5FT5HAQpQgAIUoAAFKEABClCAAuYEpMWlv500DYmJSeaThgkwAAAgAElEQVT+7MLP6XHhmw7QqlRQqVRQN3gb+zLtqa4e8ROfhreQs7+m8SgczrZnf25rq8Dd3+/J59jK1Wtt3YXbUUARAgwfFNFNrKSrCzB8cPUeKlg/hg8FPfgbBShAAQpQgAIUoAAFKEABCpgXkObhnzB5OhYtiTa/gUs/mxs+CPD28YagDsAbWx/aXmPdWXzxpBaCt48cQDgjfEjfNBJPtmqHEeu5joa0kLkUct27n2J7H3FLCri4AMMHF+8gVk8ZAgwflNFPubVk+JArwZ8UoAAFKEABClCAAhSgAAUoYE3g5KnT8gXhn0+fsbaZi/4tN3zQoGnffmilFVFj0Pew9dJ29omxaKVRIzC4PzpqVXBG+JC2JBjeKm/0jrK1Vi5K7YBq/Rp3QT7Xjh477oDSWAQFXEOA4YNr9ANroXABhg/K6kCGD8rqL9aWAhSgAAUoQAEKUIACFKBAeQmsWrNeviAsjYBQ3ld++NDioxX4qoMXRP++WJJsy7oVWYgZ1QQadSP8e+VkPOvF8MHZ/Z+ZmSmPslm6fJWzD8XyKVBmAgwfyoyaB3JnAYYPyupdhg/K6i/WlgIUoAAFKEABClCAAhSgQHkISAsBT5k2C5HfLS2PwzvgmCbhwyc/4uL0Z+ErVETQ3JsoNn7I2IMR9dXQNP8Yx67MsCN80CPjXgIuX7yCpJTMYo9j78gH3cNkXL8Uh7iL15D80P1Wv14WvVoOu3Q6e5cGd8DpwiIo4AQBhg9OQGWRnifA8EFZfc7wQVn9xdpSgAIUoAAFKEABClCAAhQoD4GU1FT5QvCWbTvL4/AOOKZp+HAcWYnz8VxFAT5dp+JyMdftH259AwFqLZ4I+wVZCcWHD4bUM1gxbhC6NKwMtXGBapXgherNuyE0fA9uZJk2x4Db60ajT1AQerSpBbVKjZqtuyMoKAhBvUdixY1ClUu/iM3fvI5uLWrCRy3Ii2dLC2gLGj8EPtkXo787ifvFpimmx3fdx7t/2Cefc8nJd1y3kqwZBewQYPhgBxY3pYAlAYYPlmRc83mGD67ZL6wVBShAAQpQgAIUoAAFKEABVxK49N/L8oXgH3866UrVsqMuBcOHbEMylvTzh+j1F3z9q7U761OxdvAjEL064tsLehiKCR90V1bi9RZ+ELW10OG1MCxYtwsHD+3D1uipGPVCM1QS1ajVYwKOpeZW3YA7277AkJAQvNS5jhw+BHZ6ESEhIQgZMg4bbpokCWlH8WXnahDFimjS+x1MXrwRuw8dwZFDu7E+8iu83qEmNGIltP8sBkqcGCtXJPentLaItOj0uV/jcp/iTwooWoDhg6K7z3UrbzAYcO9+CuIv/hdHjv6E3Xv2Y8u2XVi3YTNWrFqLxUtXYH7kYsycswBTps2WhzFKQxkLf0svuIWfc8Xfv5k4Fd9MCFdEXW3xmzFrHuYu+A7fLV6O6JVrsGbdJmzeugO7ftiLg4eO4Nz5OCTfuQOlDgNk+OC6rx2sGQUoQAEKUIACFKAABShAAVcRkBb+la5LXL5y1VWqZGc9CoUPAFK+H4QaohaPf3oSluIHw93l6F9VhO+z03FVD+vhQ/pRfNquAkS/Nhi5JRGFxiwAyMC5uX0RqNGg7pB1KLzchPVpl7Jx/NPW8BJ80e6jA+ZHN2SextdP+0H07YLJ8UWPbidYuW9+87dE+ZzbfzCm3OvCClDAEQIMHxyhyDIghQ0JN3/DvgMx+G5JNCaFz5RfLKX/SZv7njx1FmbOno95CxfJF7gXLV0Bc9/Svuae53PmvRzisiQaC6KWYFbEQoRPn222/3L7dMLk6VgQuRg7du2BdEfI//73P0X8a2D4oIhuYiUpQAEKUIACFKAABShAAQqUq4B0E570+ffBg/8r13qU/OBFwwekbcHrAWpomozC4QJTIeUexYBbUX1QWayInvNy1oawPPJBj7hJnVFBrIguE88hO7eIwj8NyVgzOABqbWt8Flsw8rAaPmT/iI+aayBWfxmr7xcuNPd3A5Ln94SP4IPeUfdyn1Tszz8yM+Vzbs26jYptAytOAVMBhg+mGnxst0B6RgakOwHmzIvMu0gtBQ+LlkRj6/Zd+Ol4LK5cvYY7d+/K/7OWXkSloIJfyhGQFtjKysrC//1fGu7+fg83Em7i1M+/yKMglq1Yjakz5uT1/dQZEdiz94A86sWVW8jwwZV7h3WjAAUoQAEKUIACFKAABSjgGgKr12yQP+8qddQ/YCZ8QAb2jqgPtboehu/OKAptuIHZ3StA9O+LJcZhChbDh+xj+LCpBmLtodj4oGhRps9k7h+JhmoNWnxyvEBIYTV80J3B8nEf4ZOZ+3DHyqWkjNUvobKgRadJl82MvDCthes/lq7BTJwyA0ujV7l+ZVlDCtggwPDBBiRuUlRAejH85cw5SBebpbsApKmTpLvfpaBBKXe/F20VnymJgBQm/ZaYhAOHDsvTaEnngzQi4mDMEZedlonhQ0l6mvtQgAIUoAAFKEABClCAAhTwLAHpArB0IVi6BqLML3PhA5B1ZDSaakQ8+tpGFM4M9JfD8VcfETVeXo3cwQaWwgfd2TC004qoFrK2+PUWHixFvwoCvLrNRqJJkGA1fLAB3ZAWh0Uv14NapcXTEy8qPnyQmjxt5lxELlpmQ+u5CQVcX4Dhg+v3kcvV8P79FHndBukiszQtz4mTp5CVZXFwncvVnxVynoBer8eF+Et5I2HmL1wkj5Rw3hFLVjLDh5K5cS8KUIACFKAABShAAQpQgAKeJCBdAJ4+c66Cm2w+fIAuFp+11kKsNhArC8xUpMf5/zwFL3VtDN2Uv3yzpfAhXR5xoEbtbm8jLCzM+vf4V/FkRQGaph/gqMklJJvDh+w7iDu0EYtn/gefvheKkL7d0fHx+qjqLUJQqaByo/AhYl6UfF1FwSceq06BPAGGD3kUfGCLQOyp03nrOaxdvxlpafn/M7Jlf27jGQLZ2dnYu+9g3nRM0kLVrjTdFsMHzzgP2UoKUIACFKAABShAAQpQgAKlEZCmmI6YH1WaIsp5XwvhA3Q5IYNQBc9H3ULeQATdaYxvq4W63nCYzshkPnww4M78nvBSCfD2D0CdOnVs+q7fYSxi7AkfHp7H6jHBaFVNawwZpKDB+C1oUKlOe/Tq1gy+gvuMfIhatAzTZkSU87nDw1PAMQIMHxzj6BGlHPvphHwxWVooOv7iJQUPO/SI7nKJRibdui0PFZRGyWzcvM1lAgiGDy5xerASFKAABShAAQpQgAIUoAAFXFpAugAsXQhW7pel8AHQX56Krj4CKnSfjevG9CH72EdoptGg8fsxMF2L2nz4AKQueh7eghZtPz+NgstI2y5mdeRDRiwmPlMNokoFwa8eOg/8N8ZPmYvFqzdjz5HTiE9Kk6dZytz4KqqJ7hM+SOtrStNZK3e6L9v7n1u6vwDDB/fvY4e0MDd4kFL/1AeFZwR0yCFYiJsKZGf/D8tXfC8HV64SQDB8cNOTjc2iAAUoQAEKUIACFKAABSjgIAHpwq90AVi6EKzcL8vhAwwJmBvkB8G7MyZd1APIxIF3GkGtaYkxx02GJgCwFD5k7QhFgFpErde3IrOESJbDBwNuzn8OlQUBPi1CseaK5SO4W/jw/dqN8jUUrqlawpOKu7mUAMMHl+oO16wMgwfX7Bcl1crVAgiGD0o6e1hXClCAAhSgAAUoQAEKUIACZS8gXfiVRvFLF4KV+2UlfIABtxcFo4qgxZNhZ6BL34m36qihffILnC00jMFS+GBImocgXwGalmNQKK8oQmZIjcP+zRux+fAVZJj81XL4kIF1If4QxOoY9H2qyR5FH6YsfgEV3GjaJenGTence5ieXrSxfIYCChNg+KCwDivr6l767xX5BY8jHspa3v2OZxpAHIw5Uq4NZPhQrvw8OAUoQAEKUIACFKAABShAAZcXSM/IkK+HbNi0zeXrarmC1sIHAPdX46XqIjQtPsa+tUPxqNobnSddlKcyMi3TUvgA/XXM7uEHQd0Qw3ZamyVDj2uzusFP0KDZh8dgOq7CcvjwEMv/4QtB0wpjTxRKQwpU7g5WvVwTohstOL195w/yuZeSYj10MWXgYwq4qgDDB1ftGReoV1ZWFmZFLMTEKTPw++/3XKBGrILSBbKysiEFWdLQ1Tt375Zbcxg+lBs9D0wBClCAAhSgAAUoQAEKUEARArnhg3QXunK/igkfkIZNQ2tDVAeieVN/iBW6YdZ1aQqmgl8WwwcAD3aPQGOtAO8WI7Dtdt7S1QUK0F1bjoGBaoj+PRFxtWD5D5f1hY/ghZ7z7+QvfC3vrcPp8W2gFSohaO6NQn/LLT4T8YsGooGPFhpBi44T4osEJ7lbKunnjl175PDhfkqKkqrNulLArADDB7MsfFIS2PXDPvnF7sixnwhCAYcJXLl6TT6vlixbWW4LUDN8cFh3siAKUIACFKAABShAAQpQgAJuKeAZ4QOQsXs46qlVUKkEVOq9EElm8gNr4QOQipjxHeEvCvBr2h9frj2FZOPQBkN6Ao4tG4Oe9bwhaALRL/JikYWpM3eEoraoQaPhO5FzqT0b2caBDoab0XgpQA2xake8uzwWycZVsHUPbyM+ZgW+euVJBDQZiIjF76CpRkStFyNx+uxJxN0x0wgFnaUMHxTUWaxqsQIMH4ol8swNbv6WKF8gjvxuKfT6gqm0Z4qw1Y4U2Lx1h3x+nYz92ZHF2lwWwwebqbghBShAAQpQgAIUoAAFKEABjxTwlPABWTEY1UQDleiP/svvmh1hYD18kE6PVJyK+he6BHpDUAkQtRVRrUY1+GkFCIIIvwZ/x4dr4gus9ZB3UqXtw/vNfSAIGlSoWhPVq9RH6I78xaXTYudhSNuq0AgCBK0f/Kv6QSsIEH0D0WXYfBy/ZwCyz2JG70B4CwJU6joYvtuYUuQdRFkPGD4oq79YW+sCDB+s+3jkX//88098tyRavjicmJikIAMD7hyIwGdjxmDMmLH46vu4Iol6cY0xJO7C9M+k/cfg0ylbYWa0YXFF8O82CEhv4qbPnIsp02YjMzP/TYUNuzpkE4YPDmFkIRSgAAUoQAEKUIACFKAABdxWwD3ChzLunuxknNv7PSJnTsaEbycgfPYirDt4AfeLuafVcP8ctkZNw8SJ07FwbQyuFF4+wpCGq0c3YvHsKZg0NQKL1uzF+XuF14HIwMVtC7Bg3QncMl1UoowJHHE4hg+OUGQZriLA8MFVesKF6pGYdEsOHtZv3OpCtbKlKrlzGUrDBVVQN3gb++y6rq1H/MSn4S3k7K9pPAqHFf4/LFvUymubH386KZ9nsadOl3kVGD6UOTkPSAEKUIACFKAABShAAQpQQFECDB8U1V1uVVmGD27VnR7fGIYPHn8KFAXYtmO3fFH42vUbRf/o0s/khg8CvH28IagD8MbWh7bXWHcWXzypheDtIwcQjg8f0rFp5JNo1W4E1hdO8W2vpdtsmZ6eIS9mHrloWZm3ieFDmZPzgBSgAAUoQAEKUIACFKAABRQlwPBBUd3lVpVl+OBW3enxjWH44PGnQEEAg8EgT4czK2IhpOmXlPWVGz5o0LRvP7TSiqgx6HvjgkXFtyT7xFi00qgRGNwfHbUqOD58SMOSYG+ovHsjKmcVpeIr5eZbrF2/WQ66UlJSy7SlDB/KlJsHowAFKEABClCAAhSgAAUooDgBhg+K6zK3qTDDB7fpSjYEAMMHngYFBKQ1Hr6dNA3SC53yvvLDhxYfrcBXHbwg+vfFkmSDDU3JQsyoJtCoG+HfKyfjWS+GDzaglXqTX86ck8+3sl54muFDqbuOBVCAAhSgAAUoQAEKUIACFHBrAYYPbt29Lt04hg8u3T2snJ0CDB/sBHP3zU/E/ixfDD4fF6/AppqED5/8iIvTn4WvUBFBc2+i2PghYw9G1FdD0/xjHLsyw/bwQZ+BewmXcfFKElIyizuKvSMfdHiYfB2X4uJw8VoyHhazQJMCOwwpqany+bZ5644yrT7DhzLl5sEoQAEKUIACFKAABShAAQooToDhg+K6zG0qzPDBbbqSDeHIB54DhQW27/xBvhh89/d7hf+kgN9Nw4fjyEqcj+cqCvDpOhWXi7lw/3DrGwhQa/FE2C/ISigufDAg9cwKjBvUBQ0rqyGochaoFryqo3m3UITvuYEsUy3Dbawb3QdBQT3QppYaKnVNtO4ehKCgIPQeucJ0S/lx+sXN+Ob1bmhR0wdq4+LXKpUAjV8gnuw7Gt+dvF98mFKkVNd8Qpraa8q0WYhatLxMK8jwoUy5eTAKUIACFKAABShAAQpQgAKKE2D4oLguc5sKM3xwm65kQxg+8BwoLLBk2Up5EWC9vpir9YV3dInfC4YP2YZkLOnnD9HrL/j6V52VGqZi7eBHIHp1xLcX9DBYDR90uLLydbTwE6Gt1QGvhS3Aul0HcWjfVkRPHYUXmlWCqK6FHhOOIW8VA8MdbPtiCEJCXkLnOlL4EIhOL4YgJCQEQ8ZtKFCvtKNfonM1EWLFJuj9zmQs3rgbh44cwaHd6xH51evoUFMDsVJ7fBaTVmA/Jf+y2HjOSeuNlNUXw4eykuZxKEABClCAAhSgAAUoQAEKKFOA4YMy+80das3wwR16kW3IFeC0S7kS/CkvMD1l2mxELlqmUI1C4QOAlO8HoYaoxeOfnoSl+MFwdzn6VxXh++x0XNXDaviQfvRTtKsgwq/NSGxJNBPQZJzD3L6B0GjqYsi65EIjFIqZdin7OD5t7QXBtx0+OmB+dEPm6a/xtJ8I3y6TEW/m8ErsuG07dsujbX6/d7/Mqs/wocyoeSAKUIACFKAABShAAQpQgAKKFGD4oMhuc4tKM3xwi25kI4wCDB94KuQJPHyYLl8E3rBpW95zynpQNHxA2ha8HqCGpskoHC4wF1Juywy4FdUHlcWK6DkvZ20IiyMf9HGY1LkCxIpdMPFcdm4BRX4aktdgcIAa2tafIbZA4mE9fMj+8SM014io/vJqWLwMb0jG/J4+EHx6I0qJM2MV0QJ+On5SPu/+e/mKmb865ymGD85xZakUoAAFKEABClCAAhSgAAXcRYDhg7v0pPLawfBBeX3GGlsWYPhg2cbj/nLv3n35IvDO3XsV2nYz4QMysHdEfajV9TB8d0bRdhluYHb3ChD9+2JJcs60P5bCh+xjH6KpRkTtoRvxoGhJJs9kYv/IhlBrWuCT46YhhfXwQXdmOcZ99Alm7rtTaMSESdHIwOqXKkPQdsKk4hayMN3NhR//cuacfN79ev5CmdWS4UOZUfNAFKAABShAAQpQgAIUoAAFFCnA8EGR3eYWlWb44BbdyEYYBRg+8FTIE0i6dVu+CLzvQEzec8p6YC58ALKOjJZDg0dfKxoa6C+H468+ImqYjDYwHz7ocDasHbRiNYSsLX69hQdL+6GC4IVusxNNggTr4UPx1gakxS3Cy/XUUGmfxsSL7jHvUtyFi/J5d+r0meIJHLQFwwcHQbIYClCAAhSgAAUoQAEKUIACbirA8MFNO1YBzWL4oIBOYhVtFmD4YDOV+2947XqCfBH4yNGfFNpY8+EDdLH4rLUWYrWBWFlgqiI9zv/nKXipa2PopvxAwXz4kJ4z4kBdG93eDkNYmPXv8a8+iYqCBk0/OIr8sQ+2hw/Zd+JwaONizPzPp3gvNAR9u3fE4/WrwlsUoFKp3Cp8uHL1mnze/fjTiTI77xg+lBk1D0QBClCAAhSgAAUoQAEKUECRAgwfFNltblFphg9u0Y1shFGA4QNPhTyBi5f+K18EPhH7c95zynpgIXyALidkEKrg+ahb+SMRdKcxvq0W6nrDYTojk9nwwXAH83t6QSV4wz+gDurUseW7PjqMjbErfHh4fjXGBLdCNa0xZJCCBuO3oKmEOu17oVszXwhuNPLht9+S5PPu4KEjZXa6MXwoM2oeiAIUoAAFKEABClCAAhSggCIFGD4ostvcotIMH9yiG9kIowDDB54KeQJnz52XLwKfOftr3nPKemApfAD0l6eiq4+ACt1n43rO0g7IPvYRmmk0aPx+DEzXojYbPiAVi573hqBti89PF1hF2g4i6yMfMmIn4plqIlQqAX71OmPgv8djytzFWL15D46cjkdSmjTNUiY2vloNohuFD3fu/i6fdz/s2W+HZek2ZfhQOj/uTQEKUIACFKAABShAAQpQwN0FnBo+GFIRvysSX737Cp7r2AqN6z2K6v5V8UhgI7Tu+g+89XkUDl43s26lu6Pb077Mk1gybgzGLSo8i0ImTi4ZhzHjFuGEQgkZPthzInBbVxdg+ODqPVSG9Tt56rR8ETj+4qUyPKojD2U5fIAhAXOD/CB4d8Ykea2ETBx4pxHUmpYYU2BRaMB8+JCFHaEBUIu18PrWzBJW2kr4YLiJ+c9VhiD4oEXoGlyxeAj3Cx8ePPg/+bzbun1XCV3t343hg/1m3IMCFKAABShAAQpQgAIUoIAnCTgnfDAg5eR8vNm+BrSCNNOBANHLH7UbNEaTRnVRq4oXRPl5FQSf+ugVthMJJb3/0d07K/U79PFWwbtXZKGWpuK7Pt5QefdCZIGptwtt5sK/Mnxw4c5h1ewWYPhgN5n77nD02HH5IvDVazcU2kgr4QMMuL0oGFUELZ4MOwNd+k68VUcN7ZNf4Gyh/5GbDx8MSJoXBF9Bg5ZjjptMpWSOyoDUuP3YvHEzDl8xjdmthA8Z6xDiL0CsPgjfp5orM/e5FCx+oYJbTbv0R2amfN6t27Alt5FO/8nwwenEPAAFKEABClCAAhSgAAUoQAFFCzg+fDAgeedotK8iQiVoUL39EExYF4ukAjcfZuHu+T2IHNMPzSqLEARvPDZkFW5IEyG42Ff6ppF4slU7jFj/oHxqxvChfNx5VArYKcDwwU4wd9780OGj8kXghJu/KbSZ1sIHAPdX46XqIjQtPsa+tUPxqNobnSddROH/h5sPHwD99dno4SdA3XAYdlr7f6v+GmZ184OgaYYPj+UvNw1YCR8eLsc/fAVoWo3FiUJhiGlnGO6swss1RbdacFqn08nn3eo1G0yb6tTHDB+cysvCKUABClCAAhSgAAUoQAEKKF7A0eGD/tI89KohBQ9+aD18La6azv9sRivt9Ez0CVBDEKsiKOJykWsXZnYp06fSlgTDW+WN3lEpZXrcvIMxfMij4AMKuLIAwwdX7p0yrpvbhw9Iw6ahtSGqA9G8qT/ECt0w63rh6MHStEtSZzzA7hGNoRW80WLENtw2rh1RsJt0uLZ8IALVIvx7RuBqgeIfYllfHwhePTH/TqGdpcWv22ghVArC3BuF/pZ7gMx4LBrYAD5aDQRtR0yIL1B47laK+8nwQXFdxgpTgAIUoAAFKEABClCAAhRwewGHhg+G21gxsCZElYiaLyzEFZs+zhtwZ/0QBKpVUNd9CzseuhY5wwfn9QenXXKeLUsuewGGD2Vv7rJHdP/wAcjYPRz11DnzKlbqvRBJZq7zWxr5IHdcagzGd/SHKPihaf8vsfZUsnEKJgPSE45h2ZieqOctQBPYD5EXCw9hyMSO0NoQNY0wfKfxzoDs3JERBtyMfgkBahFVO76L5bHJxkWwdXh4Ox4xK77CK08GoMnACCx+pyk0Yi28GHkaZ0/Guez5ZGvFGD7YKsXtKEABClCAAhSgAAUoQAEKUKCsBBwZPugvTEQnbwGCX1eE23Mjoe4XhD2hhUp8BEM2FJM+6B8i+Vo8zsddQsK9TJi53FE8XXYKEi7G41LCXaQXE5CUJHzITr2JKwkpFkdx6B8m41r8ecRdSsC9zGJa4JCRD3pk3EvA5YtXkJRSUrNU3LySgJRivIrHz9+C4UO+BR8pX4Dhg/L70GEt8ITwAVkxGNVEA5Xoj/7L75r9n7HV8EHSTj2FqH91QaC3AJUgQluxGmpU84NWECCIfmjw9w+xJt50rYf8Lkrb9z6a+wgQNBVQtWZ1VKkfmv9HpCF23hC0raqBIAjQ+vmjqp8WgiDCN7ALhs0/jnsGIPvsDPQO9IYgqKCuM9xkf2U+ZPigzH5jrSlAAQpQgAIUoAAFKEABCrizgOPCBz0uTnwaXoKIqgOicdcuNB1+XfgW+gX/A+9GXzG7Z9r5tQgL6YQGlbUQVNLNliqoBC9Ua9YdoeG7cd3s9E7ZODpxAHr2fh9rkgww3D+O+cOeQf2KamMZArRVG6PrkG+wvUABBtxeNxp9goLQo00tqFVq1GzdHUFBQQjqPRIrchen0J3Hgjd6oVdoFC7o9EjcOwGDnwpEBVGAV48I3CqQK6Th/NowhHRqgMpaIaf+KhUEr2po1j0U4buvG2/OLNT8UoQPhtQzWDFuELo0rAy1cYFvyax6824IDd+DG2bNdDi/4A306hWKqAs66BP3YsLgpxBYQYTg1QMRBRtVqLL2/crwwT4vbu3aAgwfXLt/yrR2yg8fypQL2cnnsPf7SMycPAHfTgjH7EXrcPDCfYsJfk7tDLh/biuipk3ExOkLsTam6JsHQ9pVHN24GLOnTMLUiEVYs/c87hUeRJFxEdsWLMC6E7fKttFOOBrDByegskgKUIACFKAABShAAQpQgAIUKJWA48KHFCztVxGC4Ic+UXfM3gRZsorqcG3NMLSuJEL0b4X+H8/C6p2HcPTIAWyLnobRwc1RWVSjRpdx2He3wNV+AJlY/0pViNpO+GpbJAY39UedZ97CN0u2YP/hGOzbshzh7/VEI18B2noDsTRvnigD7mz7AkNCQvBS5zpy+BDY6UWEhIQgZMg4bLhpPE72EYxuqoGm+UfYvXMUHvcVIPoF4oluwRj09W6k5jZYdw1rhrVGJVGEf6v++HjWauw8dBRHDmxD9LTRCG5eGaK6BrqM24ciTShh+KC7shKvt/CDqK2FDq+FYcG6XTh4aB+2Rk/FqBeaoZKoRq0eE3Asr5K5lc3GkdFNodE0x0e7d2LU477yDaiBT3RD8KCvsbvI9rn72f+T4TnFoyYAACAASURBVIP9ZtzDdQUYPrhu35R5zRg+lDk5DwiA4QNPAwpQgAIUoAAFKEABClCAAhRwNYHMrCx8O2ka1q7fXLqq6WIxrrUWKm0bjDtV+M7CkhedeeILPFVRgLb+i4iKMzf7QjrORgTLa1LW6D0flwtMC2QMH8SKqFKlKjqO3Y/CS1MCeiSuDpH3r95/WaHRCoDVaZdyw4fGvfF8y4po0C8cMbcKtz0TJ754ChUFLeq/GAXzTTiLiOBAqMUa6D2/0KLbJQkf0o/i03YVIPq1wcgtiWZuHs3Aubl9EajRoO6QdUgukNnkhg+N0fv5lqjYoB/CY26hcKtK3qP5e27Ztks+9x783//lP8lHFFCoAMMHhXacM6rN8MEZqiyzOAGGD8UJ8e8UoAAFKEABClCAAhSgAAUoUNYCBoNBvgC8YtXa0h06awdCA9RQeffCwnulKypvb/11RARVhqCuj9DtxjUl8/5o8sBwGytfqgVRHYDXNppuZwwfVAL8/joFFyxdQc8+jk9aaCBUfhErCy05YUv4IE8j3T4MsZkmdTI+1F+PQFBlAer6obDehJV4qZYIdcBrKNAEu8MHPeImdUYFsSK6TDxnXL+zaL1gSMaawQFQa1vjs1hTGGP4IAgQfdsjzFyjzBRXkqfWbdgsn3tSAMYvCihdgOGD0nvQgfVn+OBATBZlswDDB5upuCEFKEABClCAAhSgAAUoQAEKlKHAlGmzsWhJdOmOmLkRr1YTIVQYgJXmBiiUoHR9/AQ87SXAq8M3uFBgREPRwrIOvYfHNCL8+0fjft6fjeGDUBF9opKtTAWVjpUDKkLQdsXUawUPZEv4IK23OSDaXOKiR/wEaR0ML3T45oKZEQh5FQWQhUPvPQaNtHZndH4LYG/4kH0MHzbVQKw9FBsfmJZf9HHm/pFoqNagxSfHTUIKY/igEuE/IBrmWlW0pJI9IwVe0qgbKQDjFwWULsDwQek96MD6M3xwICaLslmA4YPNVNyQAhSgAAUoQAEKUIACFKAABcpQYFbEAsxbuKh0R8zcjKGPiBB8+mJpWumKytnbgDuRveEraNFm/Onip/3JyDm+OnAYduXdSG8MHzStMPaE6d39heuXic1Da0DUdsC38faHDxYXYjbcQWRvXwjaNhh/2trxc+qTsXkoHhHVCBy2K3/xaTvDB93ZMLTTiqgWshbFdsODpehXQYBXt9lIzLv+nzvywQs9Im5ZCWwKG9r/+6KlKzBl2iz7d+QeFHBBAYYPLtgp5VUlhg/lJe/Zx2X44Nn97zKt16Uh6eJ5XE5OL+auG5epMStCAQrYKpD9AInx53HpNv9920rG7ShAAUsCeqTfvoTz8YlIK/5amaVC+DwFKKAggQWRizFzzvzS1Tg7Bu831kCl7YIpeQs3l6bIbPz0cXNohEoYUHguJHPF6uPwzVNaqLx6IOJW7pV0Y/ig7YBvrA6dkMKHR+TwofB2tox8UAeEYmde4GFSueyf8HFzDYRKA4pM52SyVd5Dfdw3eEqrglePiPy1J+wMH9JXv4TKghq1u72NsLAw69/jX8WTFQVomn6Ao9m51TCGD+oAhJptVO52pf85f+EizJyzoPQFsQQKuIAAwwcX6ARXqQLDB1fpCc+qB8MHz+pv12ptOq7smYN3e7dCDd8KqPFYSzQLrI66Xf6FJWfT5arq75zF7q2HcLnQ/Kau1Q7WhgIUKCJgSMG59ZPwVo+mqFqxKhq07YD2TQNRv+MbmHcyZ5x9VsIxrF+1FWfv534IL1IKn6AABSggC2QlHMLCj/qjXe2KqBLYEn95qhXq1m2HwdOPQn4JybqJH9evwo5fU516Jyy7gwIUKHuBxUtXYPLUUt6BbriB6c96QeWwi9ZZ2POvulCLj+LN7WYWUyjMZEjE7G5eUGmfxsSLuaMXcsOHTphUcCXqQnuXLnwoePHepOisPfhXXTXER9+EbU2YjW5eKmifnoi8JtgVPhhwZ35PeKkEePsHoE6dOjZ91+8wFjGFwwdNU3yQn0iYNMpxD6XAa37kYscVyJIoUI4CDB/KEd/VDs3wwdV6xDPqw/DBM/rZ5Vr54DQWvNYKlUQtAv/2IVafT8u5WGBIwam5A9Gk0ctYfm4bRjTxgqBSo/7b+/KH97pcY1ghClDAVECXuAdf9WkAH9EPzV6ciD0JuZ8YM3Dp++FoW78XZh9ZhSF1NPK/74DQnfz3bQrIxxSggInAQ/y6fAT+Uk0Nbe1n8MGqX/Om6shK2IYPOzZAt/BDWPPPetAKKqgbvYtDuS85JqXwIQUooFyBlasdMfd+FvaPbAC1Sou2n9swTVIBLgNuzOoOP40WNV/JXfg6GzHSGgiCPwavsyF80F/GpE7SyIdnMeNG7k0XZRQ+NP8YP5l7XcyOwXuPaSD4D4ZtTZiETtLIh2dnIK8JdoUPQOqi5+EtlKQPcjvEOPJB0xwfm21U7nal/ykFXlLwxS8KuIMAwwd36EUHtYHhg4MgWYxdAgwf7OLixg4QMCTvwugnK0EUNAjsuwBxRYYBp2H/O80Q+FhDVBJVUKnUaPTuQV6cdIA9i6CAswUy46IwoL4WguCH1m9vQVLuzX15B87CqbC/oEaN6vAWpH/fGjT/+CeThQTzNuQDClDA0wUMKTj8xV9RVRSgqd0bs84UXSVWd2EKnqlZA9V9BahUKmifCMMZTsfk6WcO2+9mAus2bJEX/s3I+KNULXu4YQhqigK0j3+Gk+YuxlsqXX8JU5+pAEGsigHRd41b6XE1/K/QqrToOvVa8dPGZu3G8EA1xGqvYH3eS1k5hw/6qwj/qxYqMwtZm6PI2j0cgWoR1V5Zj7wm2Bk+ZO0IRYBaRK3Xt8KGyMZMNcomfNDr9fI5JwVf/KKAOwiUXfigO4N5b/ZDcHAwggd8jf12/kvXnZmHN/sFy/sP+Hq/3S8UpdtfhzPz3kQ/qe7BA/C1vZVHKfcvpZ2tJyrDB1uluJ0jBRg+OFKTZRUrkHoYnz/tD1ElwKvlaByysNKYPn4CnvbKuZCgEqshZK2FDYs9IDegAAXKSkB/ZRlekoIHlQj/btNxwcIFQEPSPARVMP77VgcidIedb0rLqkE8DgUoUI4CGYid3A3VRRUETSO8te2+hemU7mJpvyoQVDk3K9TjSMly7DMemgLOEdi3/5B8Ifi3xKTSHSB9F4bXU0Ml1sLA6CQLrylFD3F/+1toqFZBXfct7DCZCjY75n001ojw7x+Ne0V3K/CMLnYcWmsF+HSbjYTcgQ8o5/AB2Yh5vzE0oj/6RxfbAsSOaw2t4INusxPy7ewMH+T3gL4CNC3H4HgxAZAhNQ77N2/E5sNX8sMOlE34cPfu7/I5t2PXngL9yF8ooFSBsgsfsvZiRF21fEeIyjsYS+y8jpO1dwTqqqU3dSp4By/JG+5qK3zp9s/C3hF1oZbfVHoj2N7Ko5T7l9LOViOGD7ZKcTtHCjB8cKQmy7IqYLiH7cMay9MiCNrGGLEr1fLmWfvx7wY5/88SfP6OuUl579It78O/UIAC5SeQ/SvC/yYFiyoIFbti8nkLyYNUQ+l9lfThX9rWfwBWpJRftR195OyU27ibdzugo0tneRTwHIG0w5+grY8UUqpRZ8h63LH4NsB4IUr6nChWxaA1dn7IdTFS3akIvN73efTp0yfv+/kXXkbYjuT8i31m6px+eDJe6dcfLw56Ff8MHYbhw0Lx+pDBeGlAf7w+x94pZswcgE9RoBwFzp47L18IPv3L2VLWQo+LM7ujiqiCunYw5hcdfl2kfP2N7/FqQy0E0R89Zl8qOMIh+yd80kILoXJ3zLK6iHUa9oxoBI1QBb0X3jT5t1ze4QOQ/dMnaKEVULn7LFhvwh6MaKSBUKU3Ft40eUG2M3yA/jpm9/CDoG6IYTtz1gArgi4/oce1Wd3gJ2jQ7MNjJiNkyyZ8iLtwUT7nTsb+bL56fJYCChNg+GBTh5UyPGD4YJMyN/JMAYYPntnvZd9qA+5tC0UjjXQhQYBf91m4VmQ6FpNa3VuMF/xy7ozWtv8S56xcxzTZiw8pQIFyEdDh7ITOqChPo6RGwNBNsPpx8ko4usgjmwT49JgD08+w5VJ9RxzUkIpfFg/HX6p5ofW4U+BLliNQWYbHCmQexcetpDWfVBC0T+DzX6z8izIkIqKHT862vkGYd8vkopgCAQ1Jx/B91FzMnPwFBrfxNY7okKaJGYvjRaapzG+g7sYhLJ8zAR/0awY/QRotUgPtBryLL6ctwIbTlkaN5O/PRxRwZYFbt5PlC8E/7D1Q+mpmX0BEr5ryKGxt4N8xfutVC7N66HArZipebOILQZoqtv8iXC7yUmRA0qpBCFCrUatPBM6b/TdqwL19o9DGV4RPm7E4VuAGhdKHDw+X9YWP4IWe8++YhBpGpuwjGN1UA42lNR+kzQxJWDUoAGp1LfSJOG9+mlvDPewb1Qa+og/ajD1mMgoBgL3hA4AHu0egsVaAd4sR2Hbb/Gu27tpyDJSmqfLviYirph8ayyZ8OBRzVD7nrt9IKP05xxIo4AICZRc+uEBjWQXrAhz5YN2Hf3WOAMMH57iy1EIC2afwebucCwkqoRKej7pd9A2yyS6Z295EbeN6Dw1GHjD/Rthkez6kAAXKT8CQvAIvPiLmjK5V18Xw3QU+WRep2N1FLxiDCi3af/WrjRfqDUhY/Tqa+VdF+89/NLkDrkjxxT5hSN6Ad7qFYJ6leaGKLUH65HwB+9auxKI5EzHu7RfRqUFlaEQpMNWgBdewsEWQ21DAgoABiVEvoKr8HkCA9qlvEGd63anwXg9W46WqOa8/2qf+Y31bk32zTk1Bj4DKqBuyAqUZXJm+fxx6/iMcsUUuSpocrCQPdb8grJ0/WjzeUB4xqhJr4MVo6++d5MOkf4+X/f3Q8atTFi6olqQy3IcC5Svwv//9T74QvGKVY+bfN6Qcw6TnAnP+bQk+CGgfjNCP/4Pp8yIRtWA2poS9g5e7NkIl6f/rgh+ahizA2XQLBoa72Du2I6qqtajd9T1EHrqKh8br6bqUC9ge/goeryxCE9AHs88Wnmay9OFD5o5Q1BY1aDR8J3IGkmYjO/f1yJbwQcof7u7F2I5VodbWRtf3InHo6kPj5zQdUi5sR/grj6OyqEFAn9ko0oQShA9AKmLGd4S/KMCvaX98ufYUko1TMBnSE3Bs2Rj0rOcNQROIfpEXC71PLJvwYe36zfI5l55h/T2thbOCT1PA5QQYPrhcl5RfhRg+lJ+9Jx+Z4YMn937Ztf3BltcRaJy6T/D9O+Ymmr/LJadG2Tg+piU0JZhCwZC0Dm+1rIrqHb4odh7Rsms9j0QBdxbQI35yZ/jIox5UEGu/ga2WPqDLDOnYNFS641AFlaYJRh0uZsLfXDr9BXzbUVpPQoMmow6XKnzQxX6Gx7U18NqmwhcBcg9W/E/91cUI7dYdvfu/hpGfz8K6YxswsrGG4UPxdNyCAtYFdLEY11r6ty5N96tF289/KXThqeDu0tS+9eT3Fxo0GX3ExteG3FH1Avz6RFmZ0qngsYr+ZsCN6c/Ay7c/oh18fcpwcza6Vfkbpv84H739pXBFgFe7MJwq5iVTf2kSOvv3wkILdxMXbQOfoYAyBCK/W4rJU2dB+uzqkC/dLcTMegvP1PeDaHwPI00HmfcteOGRJwZg3OpzVkdz5tTlIc5Fj0ZQI6ksAWoff9SoWRUVNAIEjT9a9AvDlqvmhkWUPnxA2j6839xHHp1RoWpNVK9SP38tLRvDB7kND88henQQGvmJEAQ1fPxroGbVCtAIAjT+LdAvbAvMNqFE4YN0xFScivoXugR6Q1AJELUVUa1GNfhpBQiCCL8Gf8eHa+ILjrKQK+r88MFgMGD6zLmYPXdhTvfyvxRwAwGGD27QiY5qgrPDB0NqPHZFfoV3X3kOHVs1Rr1Hq8O/6iMIbNQaXf/xFj6POojrDn7j7Cgblykn8ySWjBuDcYtOFKpSJk4uGYcx4xbhhMIMGT4U6kr+6gSBVKwJqZFzsVElQPv0RFy0dhej/hqmdTVOt+DTAxFWgwrT6upxdWpXeAsqqBuMxAFz7/FNN+djClCg9AJSKNAh90KhiGqDvrf+IT07Bu/LF+lVEGv9E1usBhX51TPcno/nfAWoxJoYusnGnfJ3L/DIEeFDgQKlX7IPY1QThg9FXPgEBewUyD4+Bi01xguAmiYYfcTa1XYdTo9vA618s0It/HOzja8NutMY31Yrhxsdv40vOIe7XfV1XvjwYPVLqNF2PE7rMnDw3SbGGzIeRciau1ZHjkojy/yLe59lVxu5MQVcQ2DfgRj5TvQrV685tkKGNFw/sQOrImchfOK3mDB5OuYt24TD8fdsDDNNqmNIw7Vjm7F8/gxMmTITC6K3Izap5Dc6mJRs9aHh/jlsjZqGiROnY+HaGFyxNvel1ZIAQ9o1HNu8HPNnTMGUmQsQvT0WTm1CdjLO7f0ekTMnY8K3ExA+exHWHbyA+9Y+KxbThtL++bffkuRzbefuvaUtivtTwGUEGD64TFeUf0WcFj4YUnBy/ptoX8N4cUAQ4eVfGw0aN0GjurVQxUvMm0/Up34vhO1MsHqHUflLlWMNSpzsl2Odizk0w4digPjn0gtkbkdogHFKFpUWj38Wa/01JmU5+lc2rvfwRBjO2HyD030s7VcJgkqE/0urrV8ALX2rWAIFKCAN1b89Hz2lUEC6+Cf44rkF1qcF0f36FdprpQuLAirYccfxw3WDUV2UFrN+AYvulo6e4UPp/Lg3BZwpcGVKF3jljqSSAkprN/UYbmDGs9JdsyoIFXoj0vKq1AWqbEiYhW7eAlSapsWEGwV2M/OLs8KHLOx7uyHqD98tTzupvzoHf5ffFwnweeo/VtbBysCWfwaiRYHFWc1Um09RQIECN39LlC8Ib966Q4G1Z5WVJLDrh73yuXb5ylUlVZt1pYBVAYYPVnk8649OCR8Mydg5uj2qSB/YNdXRfsgErItNKjgHaNZdnN8TiTH9mqGyKEDwfgxDVt0oxV1Azuq3dGwa+SRatRuB9aVI80tVO4YPpeLL3TkgIAD9+vXL/ZU/3Vwg/2KjCirxEQzdbO1KApC5a5hxiiYRtUO3F3y9smaVuQvDAtVQCd7oNjPB6p2B1orh3yhAAdsFsg6+g4bGKdVU2rYYf9paWmhAYkQP4xRNWvzlP3E2vtfIwoGRDaCWRk51nozLpbwbjuGD7f3LLSlQ1gJb36iVN1LS5+9zra/HIN2sUMV4s0L7r/CrtZcfk4akrnwR/oIK4iOvYaONgyVMdjd56KTwQXcGYe2qY8CKVOOxHmL3iIZQSyGvOhD/3JQzs7tJRXIeZh/Dh80D8U+riU2RvfgEBRQh8Oeff2JB1BJMnDIDGRl/KKLOrKTyBLKysjFl2mx5yiVp+iV+UcBdBBg+uEtPOqAdjg8f9Lg0rxdqSMGDX2sMX3u1mEVb03B6Zh8EqAWIVYMQUdpP9w4wKVhEGpYEe0Pl3RtRFt5zF9zeCb8xfHAIKsMHhzAqppDM7W/iUXnhSBUEr26YddPaGzkdTuVOoSD44fnv7tgcIuhOj0cb6Y5qbWuMc/jKj4rhZkUpUKYCGesGyxfxpJEPYs1/YovV2QVSsWqgv3G9h8Z433S9B/0tnD4WbxyxpMPV3QswfWo4wsPDET5lPP7xmDSlkYhqXf+NSdJz4VMxbc56/FKCmxEYPpTpKcKDUcAugaV9fYwjsjVoOea41WlPpIVWA+TwU42G7xw0+ZyThRsnjuOa8fUo69IOzJs2Nef1JHwy3u9eS76Qr2ncH59PyXk9mTpzOY7esvb+xFwznBM+GG7OQfcqf8PMG/n10V+ahmf9pKBFQIUuk3HBTAirvzQRnfxLPzrMXEv5HAVcQeBk7M/yHel79h10heqwDm4oEHP4mHyOHTn2kxu2jk3yZAGGD57c+4Xa7ujwwXB7BQbWFOX5kV9YeMW2uwsNd7B+SCDUKjXqvrUDDwvVsXx/ZfjgDH9Ou+QMVZZpKpCxdlDexUnNY+/hkLXpmw0JmNUtZwoFlbYDvo03+XSdegDhn0bnrxdhyMC9pETcvHkTN28m4PSEZ+T1HsRHBmHZFem5m0hMuouHNt4JaVpnPqYABWwTyNzyT9Q0hovFrueStRvD66jlKZqk9R5Mp2fPjnkfzdqMxQn53+sDHJoaiiGvDMbgwYMR8nxbVJOOIVZBy+dC5OcGD34Fr4ROwJ67+RfnbKsxwPDBViluR4GyF1j1YsWc8EGogOAluXf+m6tHNo5/0sK4FkJ1vLLe5FNLxja8Wf9vmHZden0w4O6eb/GG8fVk8KAeaCpfxFcjoOMA4+vJYLwydCzWXDF5z2HukEWec074IK338Ii83oPpAR9gW2hd4+iHegjdXjh5NeDOd8/D3wGjw0yPyscUcCUB6XPr/MjF8sXhpKRbrlQ11sUNBO7e/V0eWSMtNC2NgOAXBdxJgOGDO/VmKdvi2PBBjwsTO8FbEODXNRym1++Kq6bulzA8oZWGIg/BBpP38eb20z9MxrX484i7lIB7mfZfAJDKzE5JwMX4S0i4m15MQFKS8CEbqTevICHF0ocJPR4mX0P8+ThcSriHYpvgkJEPemTcS8Dli1eQlJJp813dpv7ZqTdxJSGlGC/TPSw/Zvhg2YZ/cYxA1s63jNMoqeD1txlIsPZS8WAVBvrnTKGgaTIKpjdGP9zwKgI6T8Il+Z+zAXeX9kd1Ly00Go38LQo5dwQKojrvOa22CnrM5HydjulJlkKBogK6Xz5HW3kNBxW8+3wHawMTs2LeRxN5IVkBfs9/h/ylG3SI/awt6lqYZi13ihShUl8suVe0DvY+w/DBXjFuT4GyEzg8Kndx5Zp4fauVoVS6X/FV+5z17ATfnphvMmoh6+C7aPr4Jzhu5tqR4cYMPCuv9/AY3rN6N4QtbXZG+JCFff/OX+/BtBb6uInoLK+xI6Di32YUmoIuHZuHBqDVJz9ZHS1iWh4fU0CJAgk3f5PDh8hFy6DXW/qMr8SWsc7lKSBN67V0+Sr53HL9tR50ODPvTfQLDkZw8AB8vd/K/yvNopZyf90ZzHuzH4Kl4w/4GvYfvnT7687Mw5v9pLYHY8DX+22fotloUdr9zZIq4EmGDwropLKqokPDB/1FTHzaC4JYFQOi8z/e29QW3a9Y+FY/BP/jXUSbvQMoDefXhiGkUwNU1uZcJJSmWxC8qqFZ91CE775uMuzZ5IjZRzFxQE/0fn8NkgwG3D8+H8OeqY+KamMZghZVG3fFkG+243qWyX6G21g3ug+CgnqgTS01VOqaaN09CEFBQeg9ckXehrrzC/BGr14IjboAnT4ReycMxlOBFSAKXugRUejOiLTzWBsWgk4NKkNrXNROGsbsVa0ZuoeGY3eBCuQdAihF+GBIPYMV4wahS8PKUOceU/BC9ebdEBq+BzdM25x7SN15LHijF3qFRuGCTo/EvRMw+KlAVBAFePWIgMnnrNw97P7J8MFuMu5gp4D+ymR0zr042TvK6sXJe9+HGO+iFlE1ZK3J6Ctp8cVGlhdRzNqPkQ2kO6q16Dgh3iHBnJ3N5OYU8EyBrH34d/2c0QzarlNxzdJ1gNSj+Pzpysa53LVo+/np/IXndWfxRfvaeGVdmhnDLOweXkde78Hrr1Nx1VL5Zva09BTDB0syfJ4C5S/wcNNrqCWNdBIqov8KS3dBZeF8RO+c7VQqaFqOMQkasvHjx63QeOQBs59HUqL7o4q03kP1V2A6WKJkLXdC+CCt9/Ck6XoPpjW7jw2vBRhHPzTC23tNfLKP4oNmgXhzm70XoUzL52MKKENgx6498kXioz8eV0aFWUuXF4j9+Rf5nNq0ZbvL1xXIwt4RxpFwKm8ELzH3/tlaM0q5f9ZejKib895f5R0M+w9fuv2z9o5AXeN6c97BS2B360u5vzVZV/4bwwdX7p0yrptDw4eUpehXUYDg1wdRd6zdZmxnI3XXsGZYa1QSRfi36o+PZ63GzkNHceTANkRPG43g5pUhqmugy7h9KDITQuZ6vFJVhLbTV9gWORhN/evgmbe+wZIt+3E4Zh+2LA/Hez0bwVfQot7ApcjLPQx3sO2LIQgJeQmdpeka1IHo9GIIQkJCMGTchrwGZB8ZjaYaDZp/tBs7Rz0OX0GEX+AT6BY8CF/vzh+2rbu2BsNaV4Io+qNV/48xa/VOHDp6BAe2RWPa6GA0ryxCXaMLxu27W3RUQgnDB92VlXi9hR9EbS10eC0MC9btwsFD+7A1eipGvdAMlUQ1avWYgGP51cxpV/YRjG6qgab5R9i9cxQe9xUg+gXiiW7BGPT1bhTePA/DjgcMH+zA4qYlE9DF4rPWOXcnStOy5IxcKFqU7toKhNTP2U4KEf7y9fn8ECErBu83bYh/7TH/oTpvUWtNY4wyHS5R9DB8hgIUcKiADqe/aC8vIi3WGoIN5j4BPIxFeFADtOjSHjXlDwte6DY7Me//sVmHR6FZ3Tewxdy+0uvH41o5WHz8s9j8wKIUbWD4UAo87koBZwtkxmB0U+m9gPSe/kczd/HrcHXFq2jeuBM61JPWglFB23Ua5BmWpLql78a/GjXDqBhzd/VkYtcwaXpZARWeW4Dbpf6I5PjwwZA4Bz0KrfdgSq47+xX+Io3cUAmoHDQX142BrP7iBDxdrR+WOmB0mOnx+JgCriiQmZmJmXMWYMLk6bgQf8kVq8g6KUjgytVrmBQ+E9NmzkV6eoYCal7K8KC04QXDBwWcI0WryPChqInHPnPspxNy2iq9+JX2Sxc7Dq21KmjbjMMph813nokTXzyFioIW9V+MQpy51+X0s4gIDoRarIHe8y/nXziUGmQMH8SKVVClakeM3W9mIVl9IlaHSPtXR/9lt/IuTOR4WJ92KTd8aNz7ebSs2AD9wmNwq3DbM0/gi6cqQtDWx4tRcTDfhAgEB6oh1uiN+YUX3S5J+JB+uaGWFQAAIABJREFUFJ+2qwDRrw1GbkksaCI3LAPn5vZFoEaDukPWIdn0g1Bu+NC4N55vWREN+oUjpkijSne2/PHHH/J5t37jltIVZMfeXHDaDiy32FSPSzO7obJ0p6H/AESb+WBsSN6J954IRMf+QahnvDjZfU5S3mvAw21vol7jd3DAbPZgwO0Fz6GCw+5kdAt0NoICZSfw8BjCOlSGKFbGM5POFhj+/PDXaLzdoQH+8v42JKUfxcetvCCotGgXdiYnSMg4hW+6PIoOX502c5ER0F+bhq5eAlTqOhi+29zFxPxm6s5MQVCDWqhevRqqVbPy7e8LjSDCu7KVbeT9q+OROk/h00PWjyvXIPswRjWRLoRq0OJjTnuS3yt8RAF7BQy4v/tdtPQVoA4YiOibJsOddDex+8veaNIiBEsupuPchE7wE1TQtvoUJ+X3/Ok4HtYRAd1mmJ9y1ngzhHSDw1P/iTPznjy/rtk/foG/1q2J6tZeS6pVg7+fFoLghUrFbFe9ei007j8v/wAWHj34/mUz6z2YbGy4i9WDasmjyARNU7x/SPo0Y0ByVB/4dw13yOgwk6PxIQVcViAx6RbCp89hAOGyPaSMiuUGD5OnzsL1GwnKqDRrSYESCDB8KAGau+5yyjjUK+7CxVI3MWtHKALUKnj3Wggz1/lKVL7+egSCKgtQ1w/FdiuTOhtur8RLtUSoA17DRtPtjOGDSvDDX6dcsHj3YvbxT9BCI6DyiytNplyRqmxL+CBAEH3RPiy2wMWPnAbrcT0iCJUFNeqHbrcy9YsBt1e+hFqiGgGvbSy4nd3hgx5xkzqjglgRXSaeM3thRa6bIRlrBgdArW2Nz2JNEhNj+CAIInzbhyHW7IXXEnVn3k6pDx7I4cPW7bvynnP2A4YPzhZ2wfKzzmJqt+oQhQpoP+5Hk+GRetw9NgMDmwWi48e7cDvrFL5o7ytfnMy7yzntMD554hE8E37BwoWCdGx67RGIKgG+QfMcMh2ZCwqyShRwaQHDnUOY1L8pKmkfQfuX38Nnn32A0BeeQJ2Gf8N7S08jxRisp/8yH4NbVoGmegf884O30f/JOvIFuV8t/P/t3tJ+qCSoIPgPxMpihvsZUmKxcvIX+Hz8eIy38v3ZsGdQS10BT4R8anW78eM/R9i33+GwLbdHM3xw6fOTlVOagB4JWz/F3+v5wLd+N7z+0TiMGRmCZx6rg3avTsWBJON75ax4LAtti6raqmg/ZDTe7t8OdZsNxtJLZhZ7kC7RX5+OZ6UwU9MY78eY3yZXynDnGJZMCCv29eT9Xg2g0bbAgLHWX3c+//xLhK89m1u8hZ9Z2P/vRqg/fLfZKaNyd8o+9TmekNqhEuH/fCRuGqT3QbXx+NgTlj9r5O7MnxRwI4HExCQGEG7Un2XdFAYPZS3O45WnAMOH8tR3sWOfOx8nXwT+5cy5Utcsc+OrqCYKqDBgpdm7++0/gB7xE56Gl+CFDt9YugCYW2oWDr33GDSiP/pH3899Mm/kg1CxD6IK3N6fv4n8KH0lBlQUUHTuaFvCB8t3VkMfjwnSOhheHfDNBZO7qAodXv416xDee0wD0b8/TJtg95oP2cfwYVMNxNpDsfGBuQPlP5e5fyQaqjVo8cnx/A8OxvBBJfpjgLnbxfN3L/Gj5Dt35fPuh70HSlyGvTsyfLBXzD22N6Qcw4yXmqOSxh+tgodh9AdvY3C3pqjZoAc+XnMhL2zMPL8Ir7WqArV/O7z89hvo1aIWGg2IxAVLNx9L/86aSXcca/HkF+csBpvuochWUMCVBXS4H7cXK+dPx6SJ0xC54UfcMDfEMDsJsVuXY+6M2ViyMw6ppiP+CjQvA9veqC0Hiz7d5+Cmxe0K7FTsL5x2qVgibkAB1xDIuoVTW5ciYupETJ6zHHvO3zdzE4IOt09vR/Tc6Zi9ZBcuWHm/nbfeQ41XsSHdEU108LRL8vo3ltZ7MKmv4TaW96+RM/pB2xIfx+zDqKZ1EbrDQoprsisfUsDdBEwDiKPHjnMRanfrYCe0x2Aw4PiJU5g4ZQY44sEJwCzSJQUYPrhkt5RPpS7997J8Efj4yVOlrkDm5qF4RBTg03epyR3GpSjWcAeRvX0haNtg/GmTO/MtFJkhH1+NwGG78u/cMY580LQaixPWisjcjKE1RGg7fFtoyLQt4YPlhZgNdyLR21eAts14FN+EDGwe+ghEdSCG7TK54mnnyAfd2TC004qoFrK2+H54sBT9Kgjw6jYbibkXWHJHPnj1QIQjVpc20183f0uUz7tDMUfN/NU5TzF8cI6rMkrV4d65HVg6ayK++nIiIr4/guvmLgBk3cRPG6IwbeIULNh8Nu+uaXNt1F+Zgi7ytCz18PY+k3+v5jbmcxSggHIEsn/Ex81zgsX2XxYKFnWXsCliA+KtvZ+w0FKGDxZg+DQF3FrAZL2HXgsLTnNquIODUctxwty6M1ZNHBs+GBIj8Hf/v2Hmjf9n7zzAmzi69a9VMaabXkwJJJgQamIgEFpMh0DA9FBCMRBCIAQCKYQ4jdA7hN577+2j937p9Q+mXUz7MHBdrqVP0n3/z0oWyPLKlmTZ0kovzyO82t2ZOfM7q9Vq3jlnLD8E7DeuPfkjymuSoh9Cq6NsnnAstY44t1+UR0jA5wiIKZimzpht+k07d/5iiO/5jwSkCDx9+gwLFi0zXSuTp85kqiUpSNznkwQoPvikW13rlJhj7u8xE3Hk6AnXKrAqpTs8CO+pFdDUGvd24War405v6k6aBgCEnG2wIi7t0oZrI1FNo0BAgxlvU6BYFpyuPhKpBh6I4kMBUXywPc8R8UGFohE73woeVqbqTg7D+2oBOdvYpnOyOunNpgHXRlaDRhGABjOsHl6cFB/iV7U3pXkqEvY1IiMjU3+N6IKPcghQhwzBMUskeJL4oCoagZ0ZNKZ6+06U6bo7eerMm95n9AbFh4wm7F/1xyxpbVpPQghqixWpzHj0LyrsLQnIn4Dx3kTUNQmLpTHwoPWXoBEP5n+O4nXH2UxScKzPFB8c48SzSMCnCOgvIrKKefH66n8nj+KOOzAQ75cdiINSkVqpQnCv+BC7piMKVnZkkpSYQ+oR5rfMY4p+EBefDqg76e2i26nazIMk4JsEErVa7Ny91/S7VhxT2bP3AOITnP5Q+yYc9griOpcHDh0xrREiXh9iyumE//1fkiEBvyFA8cFvXJ12Rx8/eWr6sty7/2DaJ6dxhvG+mNNUAbcNWmv34KviKigL98J2ByJ6jY+mISxAAU2N0bhpyXBkER9qjoHtOs7JupMu8UGNkCHH3qYtsqpYu+crFFcpUbjXdon1IKxONG0a8WhaGAIUGtQYbbUGh1PigxHPZjVGgEJAlqCiKFasmEOvktV/wps0tEniQzJBwtbUdL6/eu2G6br7r/MX01mT48UpPjjOimemRUCL3X2LQSV+zupNRvLJgq+x//cvMfq4Rc1Lqy4eJwES8CYC2r39UFylgJCtJRZZrfdgeLASncpUxtDDDsyGkOhQxogPhzHoPfOC02WHnpB8DpEwhbtIgAQyi0DCOnwRJC5eXxQR1jN64k5gRPX30GHFI6Qdb2BrrDvFhxis7VwEhb7c7MDvFLMdiUcGI0QtRj9oUHH4WaadtHUP3/slgQcP/xuz5i40/b4V0+ps2rId4mS7//znP37Jw587rdfrERV1D1u27cKY8VNM18SMWfMQdfe+P2Nh3/2UAMUHP3W8VLdjYl6abojbd/5L6rBz+7T78c07Kig0lfFr2jmGktdtvI+p9bNDrSmIzmuTphHrDpvWQBCCvsA6B8QHw+0xqClGPlgPBmaS+PD+sJOSP/p1h7/Fu2oBQV+sc+Ch3oDbY2qaIh/qTbb6cnJKfABeLfgMWQQNKv963rUfBBbx4f1hOJlB46fnL1wyXXeiCJFZ/yg+ZBZpP2jHcB0jq5lnMpb/+Uyyz5n+8kjULBaOJRmUsswP6LKLJOBRAoa7UxGWXYCQozWWJj2OJEZtxMDqZdB08kWX17Ryj/hggC4xAQnxcXj17B4ubhmGGjnMKVBy1R6O7Rfv4dmrOMQnJCJR5/yQpkfBs3ES8EUC+kv4IzQLBFUx9N1tjqQyvjyDqa3fR+i3O/HMpY9p+sUHo/Y1oq8fxrKfGyJYLSBLhb5Ydf4hXmkdMMhwDzOb5IZgmybWF/3HPpGAEwTEQeez585jzvzFpt+54kx3cfB56fLV2PWvfTh3/iJEkSIuPh7iufwnbwKiD+PjEyCmkxYnVO7esx/LVqwxrecg+l58zZqzwLTOA0Uoefua1rtOgOKD6+x8rqQYFijeGNdt2OyGvsVhQ9eCUAoaVBh+RnIw3l4jhlsTUDebAGWeNlj2POksQxTG19ZAoamDCXctoQz2agC0u/siWKVE3s7r3w4OeFh8MESNR22NQmIha6l+iLOpg6FS5kXn9Vbhmk6KD9odESiqUqJQj60OCB4SdmSC+HD8xCnTdXfnzl0JAzJmF8WHjOHql7Vqd6NvMRUUQg6EL7eaBa29jEkNS6Hu2MtO3f/8kiE7TQJeSyARl+d2Q6W8OVCmaQQi2oehcsUwfLvi+ttnCxdsd4v4kLgNvYpmQZas2ZEzdxDy5suPAoUKo3DhQihYID/y5glC7pzZkTUgACX67nbBShYhARJwN4HXJyciPCQX8lRpg97dP0eNCqFoP/aQi8KDaF06xQftLvQtHoCAwOzInSc/ChUuiHxBuZAtixqaIt2xWWpNLBso8Ye+R8XinbHWKjrM5hS+JQG/JfB///d/EBekFtPtzFuw5I0QYRmQtvwVIyQmTfkH4qz4eQuWmkSK1es2Yv3GLXx5EQPRJ6KAJPpI9NWkqf+YFo22+NH2ryg+7TtwyCQ0idcC/5GAPxOg+ODP3rfpu3hDnDjlH5Mqa3PIpbfxu/qihEoBZaF2WBbtwOwZUysx2N67FFQKFYr33oG3Q3k6HB70HtTKIIQve5GGPXqc/aUiNEIgwqY9eBvC7GHxATpzSgRlUDjS7sJZ/FJRAyEwDNMeWLFzUnwwRs9Eo6wC1B/8iFNpRC4YX13D/s0bsfnInbeDKpkgPmzeusP0IPbqVeYly6f4kMZHiIcdJ2B8iFlNc0EQsqPlwhhzudhLWNClPELaL8YdTmZynCXPJAEvJWB4dQ/nD+3B/lM38dx66QcX7XWL+OBi2yxGAiTgYQK6F7h1+gD2HjqP+6+tnvFdMiud4oNLbbIQCZCAqwTEGfLigsOXr1zD/oOHsWHTVqxcsx6Ll640RUlMnzkXEybPsCtS2A5u8705qiCzOYg+mvbPHJPPRN+tXL0e6zduNQkNly5fhZjOnBEOrn5KWM5XCVB88FXPutgvUckVb95uuVkabmJK/dxQKlQo0nIWrqX5g92A+6u7oJRGgDKoAabdSh7hoDv5A8ppBOSqPzX1Raxj96BfaTWE3M0w56HVQ72nxQfocPKHctAIuVB/6h0k711yh8Xu6YfSagG5m82BdRfgpPgAwz1Ma5AdgqoU+uxMbXDfgLtTw5BdUKPs98ffztTOBPFBnDkwbuJUZOZsAIoPya83vksfAe31xehVJS+yvROGLzq3wMch5dBg6AZEpSH4pa9VliYBEpArAYoPcvUc7SYBbyNA8cHbPEJ7SMAdBMTfxTrdf/C/iYl8eRED0SeZOWbhjmuJdZCAtxCg+OAtnvASO3b/a59JfHjy9JlbLNJdn4GmBZVQCBoENxyBrVF2FmzQP8bhCW1RJqsAQR2M8AW3k+VONxljjMbKjkWhUhVC8xlXIallGF9g33eVkFUZiEo/HX87g1+sIN3iQxyWfB4IIaAxZkkkZtUdFRddU8Pemg+iCcbolehYVAVVoeaYcVWyBzC+2IfvKmWFMrASfjpulXJJrMBZ8QHA69398J5GQJZy/bDtiZUYY4Jq/k9/dynaBaugDGqMGVFWskgGiw9Go9EUqrhwyQorazJ+k+JDxjP2uxYMLxF1Zj927jmO68+kP9t+x4QdJgESkCSgvxiJKgGF0WubnWciyVLcSQIkQAK2BIyInl4fWXK2wyqbnwy2Z/I9CZAACZAACZAACXiKAMUHT5H30nbFBXLEyAcxXMw9/4x4eXwMmgRrICgUEAKLIrRlBIb9NQkz587D7GnjEDmgA+qUzgmloICQPQSdZl+CvRSjxud78dPHeaDSFEGdb+fiUFRcUlolPV5e347xnSsgl1KNos2n4ZLtb/p0iw+J2BFRBEp1afTd+dKMR/d2arMj4oOYm/X53p/wcR4VNEXq4Nu5hxAVlyQI6F/i+vbx6FwhF5Tqomg+7VLKdRpcEB+AVzg84mMEKQVkDwnH72vP4WmS2cb4Bzi+5Ec0LpHFJPq0mnszueiTweLD8+f/Nl1v23Zkbj5qig/u+XSzFhIgARIgARcIGB7iyNrduMHBQhfgsQgJkIA1AeOz09i0/TJSi2+2Pp/bJEACJEACJEACJJDZBCg+ZDZxL2/v2fPnpsFgMQ+/O//pHx/G1N51UTK70iRCKBQKWL+EgAKo0uYXrLrswKNz3GUsG9wIpcW6BBUCg/KjYJ5sUAsC1EHl0CpyC6KkJh6nW3wAYvcNwvuBYnRGNuQpmA+5S0a8weSY+GA+Pe7yMgxuVBrZlQIEVSCC8hdEnmxqCIIaQeVaIXJLlHRkh0vig9jmK5yb9xVqBWeBoBCg1ORA3vx5kV0jQBCUyP5OQ3y/5kbySBGxWAaLD6fPnDNdbxcvXXnDMTM2KD5kBmW2QQIkQAIkQAIkQAIkQAIkQAIkQAIkQAIk4M8EKD74s/cl+i7msBMXzxEXnjYYrNLvSJzryi5j7D2c3rESc6eOx+i/R2HspJlYsukIbrx4G0HgaL3G2Ls4vnkpZk0eh3FTZmPZ9rOIto12cLQyh88zIubyVsybOBqjJ83B2sN3HC6Z8kQjYu8ex+alszB53DhMmb0M289Gp4x2SFnQ9T26p7i8dzXmThmLUX+PwvhpC7Du4HXEuN/VDtm4YtVak/gQF2cv1sWhapw+ieKD08hYgARIgARIgARIgARIgARIgARIgARIgARIgAScIkDxwSlc/nHy3n0HTQPCN27e8o8Os5ceIfDq1WvTdbZk+apMb5/iQ6YjZ4MkQAIkQAIkQAIkQAIkQAIkQAIkQAIkQAJ+RoDig5853JHu/vtFjGlQePnKtY6cznNIwCUC+w8eMV1nl69ec6l8egpRfEgPPZYlARIgARIgARIgARIgARIgARIggdQJnD17FgcPHkz9JB4lARLweQIUH3zexa51cOXqdaaB4Vv/77ZrFbAUCaRCIOblS4wZPwVTps+CXq9P5cyMOUTxIWO4slYSIAESIAESIAESIAESIAESIAESEAl89tlnqFevHmGQAAn4OQGKD35+Adjrvhj9MHrcZEydMQdardTqzfZKcj8JpE5AXFdEjKr5e8xEXL/hmdReFB9S9xGPkgAJkAAJkAAJkAAJkAAJkAAJkICrBMSoB4VCYXodOHDA1WpYjgRIwAcIUHzwASdmVBeOHj9pGiDe9a99GdUE6/VDAhcvXTFdV2vXb4IoRHjiH8UHT1BnmyRAAiRAAiRAAiRAAiRAAiRAAv5AQIx6sIgPjH7wB4+zjyRgnwDFB/ts/P6IwWDA3PmLTQPF9x889HseBJB+ArGxsZg4eQbGT5qG//mf2PRX6GINFB9cBMdiJEACJEACJEACJEACJEACJEACJJAKAeuoB4sAweiHVIDxEAn4OAGKDz7u4PR279GjaIwaOwnjJ03Ho+jH6a2O5f2YQGxsHGbNWWASs86dv+hREhQfPIqfjZMACZAACZAACZAACZAACZAACfgoAeuoB4v4wOgHH3U2u0UCDhCg+OAAJH8/RczLTwHC36+C9PXfWng4eOiox9ItWXpB8cFCgn8dIbBw4UI8ffrUkVN5DgmQgJ8TePz4MRYtWuTnFNh9EiCBjCCwa9cuXLhwISOqZp0kQAIk4DYCUlEPFgGC0Q9uw8yKSEBWBCg+yMpdnjM2mQDxKNpzhrBl2RHwNuFBBEjxQXaXkccM1mq1CA4OxpAhQzxmAxsmARKQD4FBgwahePHi0Ol08jGalpIACciCQPXq1dG6dWtZ2EojSYAE/JeAVNSDRXxg9IP/XhfsuX8ToPjg3/53qvcWAWLM+Ck4dvwUxDUh+I8E7BEQF5O+cu06Jk+daUq15A0RDxZbKT5YSPBvWgSmT59uWigtW7ZsjH5ICxaPk4CfExCjHgIDA033jJkzZ/o5DXafBEjAnQR27NhhurcIgsDoB3eCZV0kQAJuJZBa1INFgGD0g1uRszISkAUBig+ycJP3GHnnzl1MnTHbNJgsLkbNdSC8xzfeZMnr1/+DVWs3mK6TsROm4szZ//J4qiVrPhQfrGlw2x4BS9SD5UGZ0Q/2SHE/CZCASECMerDcLxj9wGuCBEjAnQTEqAfL/YXRD+4ky7pIgATcSWD9+vUYPHjwm5f4uztfvnxv3ovHli9f7s4mWRcJkIAMCFB8kIGTvM3ERK0WO3fvNQ0s/z1momn73/9+4W1m0h4PEIiLi8fRYycxbuJU0/Wxcs16vHr12gOWpN4kxYfU+fComYAl6sHyY5/RD7wySIAE7BGwjnqw3DMY/WCPFveTAAk4Q8AS9WC5tzD6wRl6PJcESMCTBGrXro2KFSt60gS2TQIk4AUEKD54gRPkasKDh/+N2XMXvhEhli5fjdNnzuHFixivmuUuV75ysFtMrSSu6XDx0hWs27DFtDC5KEhNmvIPLl+95rXXAcUHOVxdnrXRNurB8oOf0Q+e9QtbJwFvJWAd9WC5XzD6wVu9RbtIQF4ErKMeLPcXRj/Iy4e0lgT8lQDFB3/1PPtNAskJUHxIzoPvnCQgrvtw4+b/w8rV696IEOLg87iJ07BoyQps3/kvnD77XxDXi4iKuof/fhSN58//jf/5n1iIERRGo9HJFnl6ZhAQRQWtVofY2Fj8+0UMoqMf4+69+yZf/9f5i/jXnv1YtmINJk39J5nf5y1YAvG4WNab/1F88GbveIdttlEPlh/7jH7wDv/QChLwJgJSUQ+WewajH7zJU7SFBORHwDbqwXJvYfSD/HxJi0nAHwlQfPBHr7PPJJCSAMWHlEy4x0UCcXHmGfCbt+7A3AVLMHrc5GQD06IoIfUS1wQYP2kaX17CwJIyScpXtvtmzl6AdRs245QY8RLz0sUrJ/OLUXzIfOZyatFe1IPlBz+jH+TkTdpKAhlPQCrqwXK/YPRDxvNnCyTgywSkoh4s9xdGP/iy59k3EvANAhQffMOP7AUJpJcAxYf0EmR5uwTEqIjn/35hino4918XcPzkaRw4dBS7/7UPW7btxNr1m7F85VosXLwcCxYt48uLGIhRDWvWbYIoJO36117sP3gYx46fwplz503plB4/eYr//Oc/dn3v7QcoPni7hzxrn72oB8uPfUY/eNY/bJ0EvIlAalEPlnsGox+8yWO0hQTkQ8Be1IPl3sLoB/n4kpaSgL8SoPjgr55nv0kgOQGKD8l58B0JuERATFPEf/IhQPFBPr7yhKVTpkzBsGHD3ryUSqVpoTTrfUePHvWEaWyTBEjAywgcOXLkzb1CvEdUqFABKpUq2b5p06Z5mdU0hwRIQA4Eli1bluxekidPHojRVNbPI1u2bJFDV2gjCZCAnxKg+OCnjme3ScCGAMUHGyB8SwLOEkhISADTsDhLzbPnU3zwLH+5ta7RaBARESE3s2kvCZCABwj06tULWbJk8UDLbJIESMDXCZQtWxZhYWG+3k32jwRIwIcIUHzwIWeyKySQDgIUH9IBj0VJQCQwbtw40yzHW7duEYhMCFB8kImjvMRMig9e4giaQQIyIEDxQQZOookkIFMCFB9k6jiaTQJ+TIDigx87n10nASsCFB+sYHCTBJwlIEY9FChQAGLu1a5duzpbnOd7iADFBw+Bl2mzFB9k6jiaTQIeIEDxwQPQ2SQJ+AkBig9+4mh2kwR8iADFBx9yJrtCAukgQPEhHfBYlATEqAfLom9ijmdGP8jjmqD4IA8/eYuVFB+8xRO0gwS8nwDFB+/3ES0kAbkSoPggV8/RbhLwXwIUH/zX9+w5CVgToPhgTYPbJOAEAeuoB4sAwegHJwB68FSKDx6EL8OmKT7I0Gk0mQQ8RIDig4fAs1kS8AMCFB/8wMnsIgn4GAGKDz7mUHaHBFwkQPHBRXAsRgLWUQ8W8YHRD/K4Lig+yMNP3mIlxQdv8QTtIAHvJ0Dxwft9RAtJQK4EKD7I1XO0mwT8lwDFB//1PXtOAtYEKD5Y0+A2CThIQCrqwSJAMPrBQYgePI3igwfhy7Bpig8ydBpNJgEPEaD44CHwbJYE/IAAxQc/cDK7SAI+RoDig485lN0hARcJUHxwERyL+TcBqagHi/jA6AfvvzYoPni/j7zJQooP3uQN2kIC3k2A4oN3+4fWkYCcCVB8kLP3aDsJ+CcBig/+6Xf2mgRsCVB8sCXC9ySQBoHUoh4sAgSjH9KA6OHDFB887ACZNU/xQWYOo7kk4EECFB88CJ9Nk4CPE6D44OMOZvdIwAcJUHzwQaeySyTgAgGKDy5AYxH/JnDv3j38888/b17h4eEQRYc//vjjzb45c+bAaDT6Nygv7j3FBy92jheaRvHBC51Ck0jASwlQfPBSx9AsEvABAhQffMCJ7AIJ+BkBig9+5nB2lwTsEKD4YAcMd5OAowTGjx9vEh+ioqIcLcLzPEyA4oOHHSCz5ik+yMxhNJcEPEiA4oMH4bNpEvBxAhQffNzB7B4J+CABig8+6FR2iQRcIEDxwQVoLEIC1gQoPljTkMc2xQd5+MlbrKT44C2eoB0k4P0EKD54v49oIQnIlQDFB7l6jnaTgP8SoPjgv75nz0nAmgDFB2sa3CYBFwhQfHABmoeLUHzwsANk1jzFB5k5jOaSgAcJUHzwIHw2TQI+ToAtJVNVAAAgAElEQVTig487mN0jAR8kQPHBB53KLpGACwQoPrgAjUVIwJoAxQdrGvLYpvggDz95i5UUH7zFE7SDBLyfAMUH7/cRLSQBuRKg+CBXz9FuEvBfAhQf/Nf37DkJWBOg+GBNg9sk4AIBig8uQPNwEYoPHnaAzJqn+CAzh9FcEvAgAYoPHoTPpknAxwlQfPBxB7N7JOCDBCg++KBT2SUScIEAxQcXoLEICVgToPhgTUMe2xQf5OEnb7GS4oO3eIJ2kID3E6D44P0+ooUkIFcCFB/k6jnaTQL+S4Dig//6nj0nAWsCFB+saXCbBFwgQPHBBWgeLkLxwcMOkFnzFB9k5jCaSwIeJEDxwYPw2TQJ+DgBig8+7mB2jwR8kADFBx90KrtEAi4QoPjgAjQWIQFrAhQfrGnIY5vigzz85C1WUnzwFk/QDhLwfgIUH7zfR7SQBORKgOKDXD1Hu0nAfwlQfPBf37PnJGBNgOKDNQ1uk4ALBCg+uADNw0UoPnjYATJrnuKDzBxGc0nAgwQoPngQPpsmAR8nQPHBxx3M7pGADxKg+OCDTmWXSMAFAhQfXIDGIiRgTYDigzUNeWxTfJCHn7zFSooP3uIJ2kEC3k+A4oP3+4gWkoBcCVB8kKvnaDcJ+C8Big/+63v2nASsCVB8sKbBbRJwgQDFBxegebgIxQcPO0BmzVN8kJnDaC4JeJAAxQcPwmfTJODjBCg++LiD2T0S8EECFB980KnsEgm4QIDigwvQWIQErAlQfLCmIY9tig/y8JO3WEnxwVs8QTtIwPsJUHzwfh/RQhKQKwGKD3L1HO0mAf8lsGrVKixevNh/AbDnJEACJgIUH3ghkEA6CVB8SCdADxSn+OAB6DJukuKDjJ1H00kgkwlQfMhk4GyOBPyIAMUHP3I2u0oCJEACJEACPkSA4oMPOZNd8QwBig+e4Z6eVik+pIee/5Wl+OB/PmePScBVAhQfXCXHciRAAmkRoPiQFiEeJwESIAESIAES8EYCFB+80Su0SVYEKD7Iyl0mYyk+yM9nnrSY4oMn6bNtEpAXAYoP8vIXrSUBORGg+CAnb9FWEiABEiABEiABCwGKDxYS/EsCLhKg+OAiOA8Wo/jgQfgybJrigwydRpNJwEMEKD54CDybJQE/IEDxwQ+czC6SAAmQAAmQgA8SoPjgg05llzKXAMWHzOXtjtYoPriDov/UQfHBf3zNnpJAeglQfEgvQZYnARKwR4Digz0y3E8CJEACJEACJODNBCg+eLN3aJssCFB8kIWbkhlJ8SEZDr5JgwDFhzQA8TAJkMAbAhQf3qDgBgmQgJsJUHxwM1BWRwIkQAIkQAIkkCkEKD5kCmY24ssEKD7Iz7sUH+TnM09aTPHBk/TZNgnIiwDFB3n5i9aSgJwIUHyQk7doKwl4G4EEPDy1ATP/HoHvB3yFrwb8gL9mbsL5pzpvM5T2kAAJ+CABig8+6FR2KXMJUHzIXN7uaI3igzso+k8dFB/8x9fsKQmklwDFh/QSZHkSIAF7BCg+2CPD/SRAAqkRSLy+Et/WKYFi1btgxD+rsePAERzZuwHz/uiJ2uWqo9/aezCkVgGPkQAJkEA6CVB8SCdAFicBig/yuwYoPsjPZ560mOKDJ+mzbRKQFwGKD/LyF60lATkRoPggJ2/RVhLwDgKGu4vRtlggSnVZibv6lDYlXhyJWsXbYOlTY8qD3EMCJEACbiJA8cFNIFmN/xKg+CA/31N8kJ/PPGkxxQdP0mfbJCAvAhQf5OUvWksCciJA8UFO3qKtJOAFBIxPsbxtAahyNsWc6JTiQuyh4agapISgfh9DTzD9khd4jCaQgM8SoPjgs65lxzKLAMWHzCLtvnYoPriPpT/URPHBH7zMPpKAewhQfHAPR9ZCAiSQkgDFh5RMuIcESMA+AWP0TDTOJkBVeiAOam3P0+H0jx9ArRCgKtYDm17aHud7EiABEnAfAYoP7mPJmvyUAMUH+Tme4oP8fOZJiyk+eJI+2yYBeRGg+CAvf9FaEpATAYoPcvIWbSUBzxPQHRuCELUCgvpddFt1B4k2Jhmfn8GaOYuw53aCzREvfGt8jGVflsc7JYqjeHHzq8Q7H+Gr9U+RMqZDtN+AOzPDUfbdEJSr+CFCq1VDaJUKKBdSBtWG7UcKLcYLu0yTSMCXCFB88CVvsi8eIUDxwSPY09UoxYd04fO7whQf/M7l7DAJuEyA4oPL6FiQBEggDQIUH9IAxMMkQALJCBjvT0VYVgEKhQIKIQsKVWyITv1/xeSlO3E+2gnBIfYKNs9fgROPXVuW2vj8Kk7ffGVHJEhmcupvjHokvHyE/UMqIotaDUEhQFNpOE7bVRIMiHt8AUu6vQt1wLtoO2E7Lj18DZ20WpF62zxKAiSQLgIUH9KFj4VJAKD4IL+rgOKD/HzmSYspPniSPtsmAXkRoPggL3/RWhKQEwGKD3LyFm0lAS8gYHyBHf3LIVBQmAUIUYRIegmaQqgaMQ8XY9OyU4dTP5WHRtCg9vgoOC8/6HEx8kNkrz8dj90x6G98gtlNg9Hmp/4opxGgUOZH+NInqQgbBtweWxvFum7A67S6yuMkQAIZRoDiQ4ahZcX+QoDig/w8TfFBfj7zpMUUHzxJn22TgLwIUHyQl79oLQnIiQDFBzl5i7aSgJcQMDzFiXlDER4ajOyqpCgIiwghqFH8i1V4lJoooL+M30M1UKjfw6DDrixKrcfpn8oja52JuJdaO47iiluHL4o1xazoh1jweV4o04x+eIFFrYqh3YpXjrbA80iABDKAAMWHDIDKKv2LwO3bt7F582bEx8f7V8dl3FuKDzJ2ngdMp/jgAehskgRkSoDig0wdR7NJQAYEKD7IwEk0kQS8mIDu5R2c2r4Qf/VphDK5lBBEEUJTCb+c09u12vhoBhoEClAW6IaNLg13uFd80B74BiE1RuK6AUg8PgwfWKIfljyWjn5I2Iqe7zTE9IfuUD7sYuIBEiCBNAhQfEgDEA+TAAn4HgGKD77n04zsEcWHjKTLuknAtwhQfPAtf7I3JOBNBCg+eJM3aAsJeDEBwzNc3L4GG47dT7HItMXq+HN/4pMcAhRCDrRdaX/9h9er2iNIKSD7Z/PxzKXxe3eKD2IKp1B8MPgoTDEYxkdYaIl+qPgzTkms/aA7/j3KV/8dl+3rKxYk/EsCJJCBBCg+ZCBcVk0CJOCdBCg+eKdfvNUqig/e6hnaRQLeR4Dig/f5hBaRgK8QoPjgK55kP0ggAwkYo7GqcwloBAUETRVEnrcz6m68j0n1AqBQh2DwUat0SoabWDG0Kzp0aI/27duhSYUgKBVK5C7XCO3at0f7Dl/g67kXYadWiY65UXwwPsDUBiXQffPbEAztiR9Q3hT9kA/hi22jHwy48fcnKPvtIbNYIWEdd5EACWQOAYoPmcOZrZAACXgRAYoPXuQMGZhC8UEGTqKJJOAlBCg+eIkjaAYJ+CABig8+6FR2iQTcTMAYPQMNspjXdhCyf4pJt+0sEa07gaFl1VCX/R7HkkUMxCLq5F7s3rULu7ZPQbtgFRTq0ug6awd27dqF3bv348y9t4P/aZvvRvHh1XK0Df4cC59btWqMxsJWSWs/VPgpefSD8QnmNCuBrq7li7JqhJskQALpJUDxIb0EWZ4ESEB2BCg+yM5lHjWY4oNH8bNxEpAVAYoPsnIXjSUBWRGg+CArd9FYEvAIAeOzuWiWIx/K1e+En9fdRDJd4Y1FRkSv6ICimmL4YnW09FoJAAxR41E7QICycE9ss5+Z6U2t0hvuEx8Sd/VBqbrjEWWjp2hP/igd/RC3Dp1LtMA81/JFSXeHe0mABFwiQPHBJWwsRAIkIGcCFB/k7L3Mt53iQ+YzZ4skIFcCFB/k6jnaTQLeT4Dig/f7iBaSgMcJGJ9hY88PEDpwC+5LKg9xuLF6AKrmLYwGo47jVSoGP1/YEjkFAblaLUZMKuelfshd4oNYT2VU+flMypRPxmgsap0PSoUAjVX0g/bAAITUHgt7wR+p282jJEAC7iRA8cGdNFkXCZCALAhQfJCFm7zGSIoPXuMKGkICXk+A4oPXu4gGkoBsCVB8kK3raDgJZC6BxJtY831jlC/7Cdp89SP+mjAFk8ePxK+De6D5R6XxXs2uGLXjrp2oCIup8djcvRCUQgDqTrqXSnTEEvT5tDqqhoYi1M7rg6LZoMpVApXtHA8NrYqqNRpj+K5UpBBDFMbXLY0+uyQVFYjRDxWS1n5ovUiM5tDjUmRVVPrxFNd7sLiUf0nAgwQoPngQPpsmARLwDAGKD57hLtdWKT7I1XO0mwQynwDFh8xnzhZJwF8IUHzwF0+znyTgHgLGuPs4u2cdlsybhZmz52P5xn04dz/WrpCQrFXdUQwOUUOhqYQR9hatFgvEXcWWmZMwYfx4jJd8jcWQhkWgeS8cv46zd854TJg8H/vvpbKM9fOF+Dy4HVbY0yeMj7E43BL98CNOJjzEtAal0XtnYrJu8Q0JkIBnCFB88Ax3tkoCJOBBAhQfPAhfhk0XKFAAAwcOlKHlNJkESCCzCQwYMACFChXK7GbZHgmQgB8QqFatGlq2bOkHPWUXSYAEPE3AcG0kqmkUUJX4Gnulgw0cNNE9aZcStvRAyYbT8NBov1ntqZ+Soh/yotW0yWhToi2Wv7R/Po+QAAlkHgGKD5nHmi2RAAl4CQGKD17iCJpBAiRAAiRAAiRAAiRAAiRAAiTgRQSMeDqnKbIJSuTpsBqv31hmQNT87uizxP4i1W9OfbPhDvFBh6ODP0C13y6nXO/hTTsArKIfVDlzIV/9qXiQilhhXZTbJEACGUuA4kPG8mXtJEACXkiA4oMXOoUmkQAJkAAJkAAJkAAJkAAJkAAJeJiAFrv6BEOlCEDYlIdv0jQZn6xBl8rhWODUiL4bxAf9ZfxWtQy+2Z92CIb29M+oKK79oNDgo98upS5WeJgymycBfyJA8cGfvM2+ppuA4eV17J4/Et/364FO7dqjS5+hGLv8JKJ16a6aFWQiAYoPmQibTZEACZAACZAACZAACZAACZAACciEgA6HB70HtRCEjmsTTDYbY07g7yZV0WXFfRic6kU6xYfEhzjwd2MU0pRA9w1P027b+ARLw/NDqSqFAQfTFiuc6gpPJgEScJkAxQeX0bGgfxHQ4taqb1Cj2DsI6z8Rq/efwZUb13B2/2qM71sX5esOx/4XjOmTyzVB8UEunqKdJEACJEACJEACJEACJEACJEACmUnA8GAd+ocWQKEaPTB0YGc0rNkY3625BeeH810UH/SXMa5hceTLnRO5g/Ihf74g5MqeA0HBdfHnmdRnfurORKLauz2xJS4zibEtEiCB1AhQfEiNDo+RgImAEc82R+C9wOLosPxeytA9fTQ29CiDSj+dRupfg8TpLQQoPniLJ2gHCZAACZAACZAACZAACZAACZCA1xEwxuLBxeM4cvomnjuvOiR1x0Xxwetg0CASIIH0EKD4kB56LOsfBBKPYHCIBgE1x+CWbYyh4R4WtQmGRhCQo+1KxPsHEdn3kuKD7F3IDpAACZAACZAACZAACZAACZAACXg1AYoPXu0eGkcCmUSA4kMmgWYz8iWg3dcfJVUCckqJC4lb0L2gEgplEBpMu512DkL5YvApyyk++JQ72RkSIAESIAESIAESIAESIAESIAGvI2DEg/kdENp3E157nW00iARIILMIUHzILNJsR7YEXi9sgSyCAsq89fD7kec2AoMBT89uxprd1/AqtSUfEm9g4/jRWHWJsRHecCFQfPAGL9AGEiABEiABEiABEiABEiABEiABEiABEiABXyZA8cGXvcu+uYWA9uBAlFYpoFAoIKhyomT1Fug+eCRmbziB+w5pCUY8nN0MuQUNKgw/m3LNCLdYyUqcIUDxwRlaPJcESIAESIAESIAESIAESIAESIAESIAESIAEnCdA8cF5ZizhbwT0NzCzWSGoBLMAIYoQ5pcATcGP8c2q20h9/aWXWBaeG4KyIL7c5JBa4W+EM72/FB8yHTkbJAESIAESIAESIAESIAESIAESIAESIAES8DMCFB/8zOHsrosEEu5g+9gI1A/JiwBBSBIfkqIhAith6OFY+xVrd6FPsApC9maY+zS13Ez2q+AR9xKg+OBenqyNBEiABBJvrMCg3pNxQU8WJCB3AkY8WTMMEZNPIIaPbe51pvYW1gyJwISzOvfWy9pIwJsJGJ9gzbAITD4eA95SvNlRtI0ESIAESCCjCFB8yCiyrNdHCRiR8Pgy9q8Yi/5NQ5BTKQoQAnK1XAB7uoL+3C+oqFFAU/1v3DD4KBaZdYvig8wcRnNJgARsCBgQG30dpw9uw+qFszF74Qps2HMG9+M8M6wRf34KmpethchjXErQxlEyfmtA7L0z2LF8IZZtPYtofxsr1t/Fss6VUWPobjzzzMfKLdeOIS4a188cxLbVCzF79kKs2LAbp+/FemYANOESprd8HzWHH8Yrt/SOlciKgCEW98/swPIFS7H1zKM0osZl1TOHjNXfXYbOlWrg+11PPfP5c8hKnkQCJEACJEACGUOA4kPGcGWtvkAg/g4OrlyMDWef2Swybencaxz5viICBAU0FX7GmTezPfW4MLMHWjRpgsaNG6NhlSJQCwI0wR+hYePGaNykObpMOWOphH89QIDigwegs0kSIIF0EzC8uIgNkwYhvFpJBH9QHx17D0bk6HEYHTkYXzYqh/y5iqJqxz+w8Xoq0XjptiJ5BcboDegZEoKuax5yQCU5Gtm+Mz47jqldq6DMJ73w56yFmNynOkqGDsK2JzIehXfFG/FnMbLOu2gy5Yq8BkqNMbi0cTK+a1MdJYu+j7D2Efju11EYN/o3fN+jKSoUzIXCoe0QufYKMk0uND7Gpoj38V6nlbjPiTiuXI0yLmPEi5Mz8OWHZVCjxx+YtXAKvqrxDj4asBmP/e2Wcu5v1C3dCJMuJcrYnzSdBEiABEiABJwnQPHBeWYs4Q8E9NcxpX4eKBUKKIPaYaWdKVq6k8NQTi0ga+OZyR6gE6Kv4uzpUzh1aj9+/zQrBGVefD75KE6dOoVTp8/h5rPUV4nwB8Se7CPFB0/SZ9skQAJOEzA+x6nZfVGjYBbkqxqBSTtuIjbFoI0Bz09MQZvSWaDMWRERK24iw4c3dJcxMawgSkdswfMU9jjdSxbwAgL6eyvRrUxWFP18Nq5bLiD9afxUPgBFvlgj6ygAV/Dqrk5EWOHyGLTPzoOgK5VmWBkjXpyei36fFEaWPKHoOXEbrr9O+cE0xpzFzE4hCFRmR7kvF+NaQoYZlFSxHlenNkShUj2wUc5hJBmNySfrN+D+mh4IyVYYn824Asulpj8/ApUDCqH9Cn+LAtDj2uT6KFRuAHa/9EmHs1MkQAIkQAIkIEmA4oMkFu70dwL6y7/hI415TQdV8a+w2/ID3AZM7PrOKKDKhcYz70vP+NTuRb/iKghZG2OWv80YtGHlTW8pPrjTGwm4tnQgvppxBW+Cf9xZPevyHwKmnMh9MOXkS+n7qf+QSNZT45O9GBFWBBp1ftQctBa37HwfWQrprk9Fo7xKCAEh6LvtWQayNODOjEbIW6QjVtnLO2gxin9lQcD4dDsGVMwG9Ts9sTnZIHECNnXLD2XWMEy9n3IwWxadc9lIHc6O+BA5K/2I45aRU5frysCCxqfYH1kfRTVq5P94IFbfTMNY/R3M+awAlIIGpXtsSDaBxt1WGu7ORrN8hdFu+ZMMvB+522rWl34CRjzbOQiVs6tRott6JPsZlLgVPQspEVh3IqL8LRJGdx6RoTlRfugRxKcfMmsgARIgARIgAVkQoPggCzfRyMwmYLg5GjWyFUVoq36Yduy59I8l/Q1MDgtC1io/4Zidp0f9hUhUEdd7qPonrvrbw3VmO82J9uQtPujx+uFVnNq/Bavmz8LsRSuxad95PEpjnMEJPE6cGoezE5ogpM7vOJF5WV6csE+ep+pfReHUtmVYuHwHLjzxL0lHzIn8RaWaGLYnIwfN5XNdJF5fjG5ls5mi5z4dfdbBgQo9Lv4WakoJqCrWE1syaHal8ekafBGcDaG/X6TwKJ9Lyr6lxmis6hQMlbIg2iyNtnnu0eHo4BCohRz4fFGM/Tp89Ijx+Wp0KpwTn4y6DK9c+iLxBpZ2L4dsghJ5Px2NM3GOOcJwfTRqBgpQqIqg81o7z7qOVWX/LONzbOhWDFk/isR5r4Rn33QeSR8B4+M16FxMBWX+Vlj40Ea01J3EsPfVELI1x7zn6WtHjqVfrOuMIjk+xl8X+aGQo/9oMwmQAAmQgPMEKD44z4wl/IGAIQpzWpZF/T+P4rmUaBB7BYt7VUBQ6faYf91eCiUjHk6vj0BBhVIDDsorX7CP+1iO4oPh2XmsGz8QrUOLI7hCI3TqMwSRY8ZhVOQgdKkfgny5i6Pml2Ow/Y4dJcztPjXi0dpuCAnpjvXRNj8q3d6Wn1RoeIojkzqhYpk66P33HCyc0BOhJWvi570vbAYCfZtH/Jk/Ufvdpph21d691bf7b+md7sZctA5WQxCyoeLAnU6luzFETUDtAAEKIRvqTrhlZ90iS0uu/NXi+LBy0ORugfn+lrTbFVxeX8aIx6s7IVglIODDSJxLMR6mw/GhZaFWqPH+sBPeOQCfoYwTcWBAaWgKtMcKb8svpruJeeHBprXFslUciJ3JIlbSgGJ8hOkNAiEoBARWH4krGaB16079hAoBudBsrq2glYZtPCxvAsbHWNO5GFSCBpV+OZPynqETU7mpoVCXweCjKW448u67I9ZrD2NQGQ3yhi8BAwcdAcZzSIAESIAE5E6A4oPcPUj7M4yA8dVpzOxZAyGVGuHL7yIxdvIUTPj7Vwzp0Qwflg5Bva9m4sQzKWXCYtJrrO6QB0plXnRay2nhFire8FdW4oPhGU78E4FqBbKgQI2+mLb7NlJOatTjyeExaFFcA2VQVXy78V6Gz0TWXhyHegXKoM/2GL8aGM+w61cfhWVflEbW4HDMv2kZdNfiyHdloCkRge1ySDfuNjg6XBlfD4UqDsb+TFsN1W3Gu6eiV/sxpGJW06BgztpjcNnZsRndUQwOUUOhEJDl08lwe6ac1xvxZRE18rZdjhfu6TFr8SSBhIP4towagjIIrRZJpcbRYlfvYKgUShTsviXj1xLxJAs7betO/YBymqyoO/F2Boh5dhpNc/crHPi+ErIKCgg5a2G00zcKPc78XAEahQKCpgZG30ztmTZNYyROiMXWXsFQ5wnHMm8TbSSs5S73EUg4PAghagHKoJZYICVQi2lpS6igUOZFl41p5BJ0n1leVJMeZ4dXgCawFsa6/XPnRd2kKSRAAiRAAiSQRIDiAy8FEkiDgO75dRzevAILZs/ErHlLsX7PWdxPudJnylq0+9G/pApCYEPM4MzwlHw8uEcu4oPh8S78XLcQNJpCqDNsE+5axqTtsEu8MAq1cwkQslbG0IMZOFptuI1pDfIguMs6LjJrxxdO7TY+xtZ+5ZFV8y56b0ue+iJuVXvkVuZEi/l+tiij9jSGV8qJKj+f9L+BTmMMtvUuDY04oJjlQ4w4k8YHX+piM9zBuFoaKMRBxaCOWOvmtGwvV3VAPlVOfL6I0oMUfnntM+LB7GYIUiqgLNgZ6yS/Op5jTtMsEBRK5O+2yf8+k6JDtQcxoJQaAdX/xnV3j9G7dMEYEbO9D97ViBFOAajyy2kX/GJE9LQwBCgUUAjZ0XqpmyfKvFqLLwqokKPFAvhhZh2XvOoThYwPMbd5EJQKJQp0WgPJzH8vF6BFVgEKZRC+WO+P4gOgO/Id3lNrEPoH10zzieuenSABEiABEkiVAMWHVPHwIAm4TkB/9U+Eius9fPQbLr0JZTfg/uKe6L34sesVs2S6CchBfEi4ugCdQ7JCUBZAo8kX4djYoRYnxFQoggBNyCAcdKyQkzyNeLq6E4pmr46RGZGjwUlr5H+6EY+Wt0dRlRKFO6xMviCjON6172uUUCmRp9M6B/P9y5+IuQdGPFvRHgVz1cHYq29uoL7SuVT7EX/oO5QVBxQVShTutNo1gc/4EFM+DTCJD4qA+pjuVgE8Dhu7FoAyoC4m3k3PKKwBOq1/+TZVx0sdNOqhz+isdrpT+PEDjUlYKNx9s0RknXngfWBpFRQKFUr23+e9aSQzlFc8NnTJD2WWOum87qUc7cK++EMY/L7oNwWUhTpilTPplqyaez67MbKI4oNCg1rjo6yOpH8zfkt3FFIGoPb4qHRFixh02gyP5kx/b+VQgxH6DL+hALrTP6G8+B2mLIiuG6QFLd3RwQhRK6BQBaPvbhcE9kzCbdTrMy66N2ELuhdSIuCTsbiVnq/STGLBZkiABEiABEggPQQoPqSHHsuSQCoEYpeHI6egQnDvnW9/qMdsR5/Qlphzj0+ZqaDL8EPeLj5or8/G50XFXO858NHQ/YhxYvBJf/l3k+glzib7bN4j9/9o0h7HsHIaBLVazDy1brhSjY9WoH1RFYQsofj9YsqBWO2BASilUkAT+jsupzzsBgu8uIqEvej3jgaFvlgLv1ni1hCF6Q1zmQYUFeoQDD7i4qCM/iIiPzRHPig0n2DsHTd+5+gO49t31VC/+y0OOZsOSv8ER//5FuH1aqJeo+Zo0aIp6teti2a9p+AIE1+bP4yGpzi58Gd0qFUFobUboGnjT9Go22Qcf2lE4p29WLx4L6IkL4s4XFo6DF3adcev6269fe5I4yOuPfQt3hUHAZX50GmNdJ4z4/1JqCeuIaLQoPrfN9I1kJyGOc4f1j/G0TlD0faTKgit2xBNG9dH894zcea1EfE3d2Dh4gO475Z7pwF3J9SBRsiBVosl53I7b7vLJQy4O6MhcgmiaKBGmUGHHfZ38iYNuDHqY1PaJdG34gxs9/1LWqRcVRoDD0pesKk0ZcDTY7PwXfinqFm3IZq3aIGmDeqhbrMITKqkBFgAACAASURBVDwklRYslar8/pABz04vxvCOtVEltA4aNm2MTxt2wYSjL2BMjML+JYuw67Z05EHc5aX4oUt7fDliHW457EItDg96D2pRFMvTHislPypGPJpeH1nE61cTij+8bCKL/vExzPuhHT6pEoo6DZuicf3miJhxCq+MCbi1awmWH37gnqvK+MA0SUDI9hnmMzTIPUxZCwmQAAmQgNcSoPjgta6hYXInEL+xK/IrNagSedE8Yyv+MmaGV0PbBXe864e73EG7YL9Xiw8v9+G78uICkEoEhU3GDWcHTbS70CdYnKEqIOfni9ye6uDVxm4oos6Pjqslf1G64A1/LhKP/d+8C7VCibzhSyUXFE7c1A35lQqo3umP/Q7/+PcVpjocGxICTfb6mOYngq3+3AhUNkU9KKCp9AvOOfv5t7g+YQO65FWa0y4FNsM8N2ZHMt6fbBqIDmwyW/KatZiQ4m/iZcz8vASCG/yBfY+sVYsE3F7fD5+EjYKE/paiGl/eYYjejV8bBCOwcAP8tudh0iKtBjzc2Bu1wweiW1kNBFVJfL0v5c3AcG0UamQRBQIFhByNMfOhI6p1Ivb1fwcqsUzOllhoZwAsdnUHU1omUaDosiFDQupccqv+/mYMrV0IgcHNMerQ46TZ8QY83BCB2q2+Rqf3NBDUIRhyzPp6c6kpUyHtrj4IVqnx7reHXK/EHSX15/FrZXPUg0JTAcPPunqjSMT2iCJQmiIfAlB/erQ7rDPXYXyIqWEBEAIbY5ZTwqIWV2a1Rsng+vhtr+UzYK4yMWoTBtYOw58pV0R3n92+VJPhMfb81hjFsxZCWORuPEj6GBgeb8XXdVthYPfyCBCUKBKxPWXKLsM1jKohploTU3LlQOOZDx0jk7gP/d8xP4NmbzbXziSVOKzvnM903SmDOmJNyoXMHGvL7WcZ8GDrD6hbOBBFm/yF/dFJnytDNLb0q4vPv+5sikpUlRrgppa12Pd1SahUJdFf4p7upkZYDQmQAAmQAAl4BQGKD17hBhrhkwT0t7Coa1nkLdMC3w6JQMs6Yei94LJ0SgOfBOC9nfJa8cH4AlsjSplzvQdWwx8XXBgw0V96M+NZVawv3BvN/hKr2ueDKnc4llF7SPcFbrw/E01yi6kJCqPbRqkZx0Y8mmrOx60q0Q97U443ptsGb69Au1dMO5UFtcd70yKvGUVNh9M/lTfNGBVnM3/w46mkwWfn29Nf+g0facRZ0QqoSg90PkIhlSbN0ThiVN8uJ2Zb63Hhr+rIkfdzLLBNARV/FtM6fYhCOariTz9LsWWN2fh4G76plB3KHB8j8qRNqhLjMywNz2MarBMCG2DGo5TCguHGGHwSmCQ+5GyK2RLnWLdn2tYewIBS4kChAqqCn+DLQd/hu+9sX4Pw5SeFzAJFQF1Mupey7RT1ZsIOw7016FE2EMrcdfD3ufjkLVrzytECC+yIKskLpf3OcPVPVNUIyNpyUdonZ+AZprQ2YrSKQgF1uWE46cKjgsk8w02MrpEUIaUKRp9dbvyS0R6EmKpLFdwbO52oVn9xJD7OkQctF0TbRG4m4uKsrqhaNCc+tEzqyUDGsq/a+ATbv62CHMrsqPrLMdg+YbxY1cE0sUEhZMGnU+7bsAZguIGxn4gTYUTxISeazn7kEBLtQXO0ppg2sECNrhiU4n7yHb4b1AO1i5gFCk2tcXBnYJ5DRkqeZMD9tRF4P6sSOT/5A2dsBZGY1ehUUBT0BWRrMluyBud3GnBzVA1ohEA0m+vGGQLOG8ISJEACJEACJJDhBCg+ZDhiNuDfBHR4fus0jh6/jEfx3vGD3b/9Ye69t4oP8QcHIcQ061mFot02uJZqxnAdI6slLTSbrTWW2v6ASs8FELcBXQooERg2FQ/SczkbdPDqVO8Zmjfc4gAdTgx7H2pBAWWRnthqM3ZmPkuLXX2CTYN+6nI/uD7AZGkyo/4aDTCk53pIza64teiUR4nA+tPg0ETu1Ory9mOGWxhT8+1AYO9d0qkw0u6GEdH/NESgKSWLEnnar0ox8JR2HfbPeLWoJbIKGlQecd7xPOza/abZsJoao3HTJgNU4tYeKCQudlygI1b5TX4tG76G25jVLD+UQiBCI89JiDpv0+NoQv+EtEYTj2urRqBXl974c3OUQ8KVmKbPLFKpULzRAPwyYgRG2L6Gf4lqQeYomnRF49h0OV1vtZcx/tMgKIWsqPG31GKtelz5IxQahQBNzTHuy6f+agE+CxSg+TAyXeanr7ABt8bUTEqVpEJwxI6Us9YdbeD5ArTIkSRY5WqFxe4c/3y9GJ9nE6CpNALnHQ7M0GL/N+9ApamB0bY3Cu0efFVMBYUyL9ose5ZysNzRPmfEecZXiDp7AsePHcMx8XX8HO6+tvOlqHuCa6fP4MKVG7h95w5uXruE82cu46HkM4CrxhpwZ85nKKAUkOXDX3Ba4qvEcGccaokCtaYKIi9IOyjh2mqM6NUFvf/YjCiHBC49Lv8ufu7EtRyKo9GAX1LeT0aMwPBeNZFPaU4Zlh6R3VU6UuV0VyYiLEgJIbAq/rgo0dk3388aVB95XaoKl/bFLmmFbIIGFX8551J5FiIBEiABEiABuRCg+CAXT9FOEiABtxHwSvHBEIVpDSy53t/H0OMSP34cIaA7hiEhatOMSEWWppjjxsEE7cGBKK1SI2TIMYcGtqzN1T8+jOkDWqPuJ/XQqHkLtGhSH3U/bYGvZ57ECzu/0a3LZ/i24QmOz/8R7Sx5wxt9isY9puOUmDf8xk4sXGIvb3gsLi4eii7tuyNyw22JQUM7lifNChVnB+bvvB4285zNhaxmpQaETfWuwXf9IxyeNQThNcQ8641MedZb9JuPC3FGxF7disWrT+KJzSCzHRKp7zbcNg3IC7nbYqXt1M3US8rvaLJUSU0xx8UFZGF8igUtc5tnrCrzoM2y1G8CCbfWYVh4N8y87ojDkvLeKzROLSJrfDwd9QMUUOaqicijMckHDuOvYdPMedh+/XXy/d7gwYRbWDcsHN1mXs/AdIlG3J/7GfKIAkxQSyx4InVDjMWajnmhFPP7Dz7q9P3XHspXS1ohhyhSqYoiYofECKU4AfruRNRJWu+hwvCzqQhOCbi1bhjCu82EQ5eSPaPS3G/Anan1TesdKPOGY4lkSp8YLA0Xv0/VeH/YCbfxQsIadMwtmNLgpWlmhp2QgA1dxGtBnJEeiCazn7r8uYlZ0Q55TYPAAnK3mI/HUpfem34k4vb6H9Gmy3Q4kqLfcHcC6mgU0NQajyhHbi1iO8bHmF4/AAplLtT89ajNelcJuLFlOiYvO4lnjtb3xvaM3TA+34WRPTuhTfNQFFGLYo4KxXpugVSAqCFqLX7s1BRVCmkgCErkKPkxmnUYhCXXpAUAVyw3PpiHFmLaPSEXms2xjSAx1xi3oUtSSsdv3JjS8RWWts5h+u5RFo3AdslbihEPp9c3i+PqcvghtbCdxNtY/2MbdJkuJTC6QsZOmTfP30oEtVwg/Tl4vRLtggQo1GUw+KiLz+cSzSdu6IK8ShWK9d0tcZS7SIAESIAESMB3CFB88B1fsickQAIOEvBG8UF/7hdUsuR6/zDS9dznr5eitWUmY1AnrHVbem4j7k0UF9vMiubzUx/MtHVD4qXpaFG8GBqPPIjH1r+v429iZURNNJvi2QVMDY92YUT9YAQWbYy/9kcnDa7pcX9ND9RuNxCdSqnt5g3XX/4TVU0Dc2LO9GaYa5tSxhZG0vvEvf1QUiUOHuVCK3vTTWMWo1VO80BGcN/djgsbdtp012793Q0Y/ElBBBZvgXFHniYNyupxb1V31G77NdqWUEPQVMIIx6e7pmJaIrb3KgKluiy+d1WQS6V2bzpkfPIPGgYkpVJxZTHnpM4Yo+egqem6EVMu9cc+2xm1xic4uXYupo36GX3D6yIkv5gXvwy+O+LIgIoBV/+sCo0iAGHTnFjQPnEbehZOWoNCHYT3aocjYthozNtyDo8daDbu8O9o+GEjjDrtwMlWTtUdH40ukfucSHdoxJOTazF32ij83DccdUPyQyOoUea7I+4bwLayz7SZeBRDxLUcxHV+2q6QHLCEGDlSUpz1XRg9trjrpq7H2V8qmmYpCzlaYpFk1IkRT+c1NwkUgsQMaeOTk1g7dxpG/dwX4XVDkF8jQF3mOzh0KdlycPR9wj70N6WKUiJvx9V4JVUucQciipp59dwmxSsOh39viA8bjYJTl1TiFvQoqISycE+pVjNnn/EJ/mkYYJ5g4NJizklmGp9hcesgs4ihKoaIbSnV3WT+rVfW5F8x370j60ebU1QpEBA2DY5kADNblYhtPQsnCStq5H73E7SOGIpRczfj7GNHcjfF40hkPZRv4KRfocOpcV3x627JaQAO+1V/MRLVypZDmQABQrZaGJOKCvdq0efIWy0SZ2zvzw63Zu/ERBwd8r45fWfu1lgi+bimw6FvzetN5ftinRP3R3ttJu3Xn8MvFcXoPQHZWyyAZNN4jsWtzBNtNBWGI/lyJcnvv/XKivdfFUoNOJihzz8J+/qjlPg8pgxC2+VSkhGg3dsPxVVihF43bJLyWfwRRNYrjwajTjv1XaHdEYGiSiXyd9uUBlweJgESIAESIAF5E6D4IG//0XoSIAEXCHif+KDD6R8/SMr1rkHFVGeXpt5h3fHvUTYpF7SmSiTsRNOnXonkUXFhvBJQqUqgnzOLD+jO4bfQ7MgfvgS2E3rjTk1C+8oFkaPeJHgqjbgxeiv6VxTzrNfA76dtclQZH2PeZ+YZ5ELOz7FI4pe0/upIVLcs8pq7BebbdtIOywNiaglTaoLCqN19kESe9e8wqEt1c2oCIRuaznni8uxWSRNc3Gm4twpfhgRCGfQpxl60GdQzRmNuc/OggjJPB6xOOZblQqt6XIr8EBohB8KXpW9gyIXGM7WIMXoawpLEB02NUSnSEzlmjB5XRlY3zyoVsqP2WIkZ+4b72P3PeExduAVnHsZgQ9e8UDosPljS2ZgXp011onQyg3W4NutzBCcJrGKuetNLUCGoypeYeUZyCDmpBnHWfx4oNaH4/bK1epmsAck3rxZ8hpyfTnYiTZwB93f/g/FTF2LLmYeI2dAVeZUZKz6IQmQJkxCZA5/Nk57Frr8QiSoaBQS3psZJxNaehUwDvZrKv9r5rniBpeHiALWArDVHp4hoMNzfjX/GT8XCLWfwMGYDuuZVZrj4kLi7r2kQ0CzcSi/moDv1A8qpRUFY+r6N2DXomEcJTejvcOqSShLRlAV7SF5vmbLTGI1pYUnig6YGRtmmJ3LQCMONcaidTRS3BQRW/UNywoPJv+NE/55+419HxQf9lT8QqlEgoP50OKjJmyzXXZuFz4OTFtO23CcUApRBldB1xim8TO2mE7cOX+RTwv71bA9OPJZ8ntOpaK6UNRnxcFpj1Ig8gOUdxc+VCsV7bZMWx6DHmZ9D0XDqA/d/ryfuRb8SSQs+N5ktPYtffwV/hGqgMD1bSN9zUvbPgT2JW9GzkCgya1BpxDnpKKmXK9HeFJWRBdX+so1oMN9/x4n339OW+29Giw+J2N23uHlNm5yfYb5kJJUe50dUNqVxy958HqSCEuPWfYF8Sg0q/3pBut928Gl39UawSol8XTfaOYO7SYAESIAESMA3CFB88A0/shckQAJOEPA68cFwy2rRx+L4ao8jM/ykOmzA7bGfmGa8iWH/wb13up4LOkX1MZjfPBCC5iP85sRoTeKer1BcpUGt8VE2aUsSsVEc9FSoULTnVkhNJEthgrt3GG5hpiXP+m9Sedb1uCgOfCsEBNSZiLuSqR7icWXFcPTs0gd/bb3r2Iw3/SX89pE5t7+6ZBN8+4tEnvURP6NraC7TwKCgqY6/U5lB6W4sduvTXsK4emKe9WyoNeaaxA9sPc4OF2dSCwhsMMOJ2a52WzQdeDGnKbIoNKj617XUT5T70YRVaJcUsaCp7USqEut+v9qMHsHmgafAKj/jhI0+ZH2qeTvpc+iw+GBA1Pha0Cg0qDPhrs1nOmXtyfcY8OLiWozu3w5hVUog9xshQoC6VAS2Sc68B6DdZ5r17+igp3WbzosP1qWBxI0ZLT7ocGJoWbPwrKmF8ZL5aYx4MDUMWQQBAa5eF8m7lfQuAava5YSgEJCr7UrJ2c/GpwvxeW7BFHHRee2L1AdKEzdmgvigw6kfypl4CQF1MEHypmzAnXG1oEmFl3Zff5RUuTCombgenfMooSr5tSTRzNlp8ZuYr7+2nWsmLUtisauvWQAXAspjyCEb4V2qeJJ/Hf0cGqLGo7aYdqnOBDvfnVKNmPcZXlzE2tH90S6sCkoGvRUiBHUJdN/43O51aF7sWIUS/fY6OVPeHeLDK6zsUBnf7NdCdy4SH4rRD9nrYLyUOGS4i4lhHyPyknNiqn1ib4/oTgzF+6YJKBrUGH1T8h5tjP4HDbMKUGiqY6Q7ny0s32FCTrRZIX1NPV8ajiAxxVzBDlgpNYr/titJ918XPqdWdaS5qTuFH8qZU5WK68PclnrOMz7AlLAsEBT2mGpxcEAp5yfnAEjc/CUKKFUI7rMrTVN5AgmQAAmQAAnImQDFBzl7j7aTAAm4RMDrxAfrXO/ZPoOTWY3eMjDex7T62cy53lVF0XOr9I8/S4GEG6sxJLwH5tyS+rVlOSvpb1LufUVAPUx2eLVpIx5M/hQBYjqR2r/jhM2UxbjLG/DP/N245ZEJ7Ubcn9M8Kc96KyySjFiw5A3XoNIvdmbx2WBy6O2rJWhlSo1lzvMrKTW9We9BgKbaX7hq10UJuLF6CMJ7zHHfoqqSnTDg9pQw5BQXyM7fDiueS0w/NT7FvObZTT/QP/rtsoQ4IVlxmjsTVrZFdkGN9wYdTvNcWZ+gv4jIKmZRKmU6Ckd6Focjwyoii6CAkO1D/Hw09c+/uUZnxQfg5YLPECguOO3kDE/bHuifX8SGv1rjXTFySAhCxzXSEqT+wq+orFEib6e10muj2FZs9d77xYdYLGmV1XTPVr83CIcls0q9wvI2Qab1C8oOPe6YwGnFwP5mAtZ2Mtf73iCptFIG3JkchuyCgCwfReK8pG1WtWeK+JCAtR1FmxUQeUmnd3qOBS3FvPNqfPCjVAoUPS78WhkaZV50Wuvkl8/rRWiZVYCm4i9WHc/sTVEUr2Je1FdTAcOT561xyJiEk7/gI3HwWQhE+cH7HVuQ3knxAS8XooXIym5UjUOmAvoXuLRpFNqGiJ8TATnCl9qxV1zs+CNolEFo5/QCQW4QH7R70K/yF1gjXlLGp1jeroBpckXJ3jtS2huzBG0qunOthbcsxQWMs5rWcXkH3xyQfLrA69UdTM8+6nSk93vbotVWwlp0Mq2L8B4GSd3MDHcxvWFOCIL4THUmzXuZWfzNYPHBYrNChVLfHJAWrV4tRxtTv+ykf9Rfxu8faaAMauf02lRxy8JNzzfiwtv8RwIkQAIkQAK+TIDigy97l30jARKQJOBt4kOyXO8hg+HqWnaGqImoG2hOo6Cp8HPKXNbGxzixei6mjvoJfcRc7/nEtQzKYuiJtEaVAIgDox9qoAhohJmSYemSqBG/6UsUTFrQUhMUgjpteuPHsQuw7eJThwanYw9Eov6HzTHBffmjzIZa5VnP026ldJ71xO3mvOHOppqSRvFmr/7sL6ioEdd7yInWS6TzCxsfzTDPTBQCUGN08jUxjI9PYPXcqRj1Ux9TnvV8agHqskPhiBvfGOHsRsJefJ2UZ93uAtnxm9CtgBIKlb1Bj1gciKyPD5tPsJPiRdooywBEcG9fnxmow7EhIeZZ3RLpYozPTmDBr1+hU5uO6Pf3Fty2GVeKPTwUFbMIENTBCJ9/y6HPF+C8+KDd+zVKqFRwZB0S47ODGNWxNqqGDcDaB1IKWjx29i4GlZANrZa8zdOVcGoWBkb0Qs+ePdEt7B1T3u+C1dqiR8+e6NUnEhvvSdWV8vrxfvEhBnObZjGlvsnWcpGd+9Au9BajWZRF0HNrUiiL4TZm9fklnQvFanFwYGmoFHaEpMQjGFxWXL8lBN/sSS0tVhL3TBEfEt8sthzQ4J8UqfxMlsRvRncx9UuyRbQTcGrWQET06omePbsh7B0NBFVBVGvbAz179kKfyI1w5JIy3BqDmhoBgc3mprzYMnGP7tgQhIiz24WcaLnQJvWU8TlOLoxEv07haN/3T2y8aRP+FH8Cwz/KCkFQofBnM3HNga9/U9ecFR+S1ilRBffBLpt7VQpUxmc4OKojalcNQ/9V9yRn6yceGIDSKgGBTebgbY8TcWbOt0l+/RJhpTUQlPkR2ibJr7+ud3Cx6/SLD+K6XdWb/fMmxZTujHkdLyFHPUyymeCRuD0C5Ts7L6am4CaxI2auGCmogBDYHPMkUkUCWuztVwIqhRIFu21Kijo14N78vvhpl+QK0RKt2NmlPYiBpVVQaCrjV4k1n7QnhqGcRoCmTD/slH70SVax5bs/Q9d8SNyALmIaKHEdo6kPJaNqtLv7opi43kOh7niz5E7iGcz5NgK9evZEzy/DUFojQJk/FG169ETPXn3w63rbaN9kXUt6Y8DdCbWhEbKg0cynUidwHwmQAAmQAAn4DAGKDz7jSnaEBEjAUQJeJz5Y53qvNQ53HBtXs+muFqd/rmhOuaQMQrPZ91P+iDLcxc4ZYq73rTjzKAZrxFmvDosPF8yzsgMaYVYaofLJDNNewYzPiialgkrK8y7+MFbnQ2jEfFxIdeLpK6xoGwQx7ZBbUwOIoe6mdFDmwZsWC56lZAVAd9KcN9x96xeYySRu7YlCoiAjprCSTLtgxJN5n5miDIQcYZhqk4rFcHcnZoh51reewaOYNaaZhhktPiTu6mP68S3OUG+zTDo/ju7IdyijVkCZt6N59meyCwHAqxVoGyRAU31kitzxtqdav0/c1A35lSoUjdhpvdsntw23JuFTMSpGmQfhi9/m4jbcXoiu9Tth7I5rePryMc4s6I4mA3e/mVGbeHUmWgaLYmIRNBpz8s3+tCE5Lz4Y7oxDLXEAtslsydzXb9vU4dSPHyTdkwqj5zapgS0x93l5aAJrY7zVAJ0x5iZOHD6MQ4e2Y3gtMd1bRfRfdRCHDh3G4eNX8dTBAdPMFx8Sce/oOqzefhHPHLqPWxbYFa/vHZKzbhMPDzJ9rkyLQicNJhofTkOzhilTcyXcO4p1Kzbj3FNHGjfiyazGyCqoUXboCZtZyAbcnt4QQUoNyny9S1oUeeto85bT4oOzrMRmxNntoebc621WwGZYXZxyjudrO6OoSlwfozWWvLlVGRFz8wQOHz6EQ9uHo1agGL3QH6sOHsKhw4dx/OpTm/7bds78Xrvva1O6phJf75U+IbP2Gm5h0qdidIcSeVoteivCGG5jUdcwtB+1FVeevMST84vRs3G/tynNtDcwL7y4WcwL+xNHbaIRUzXfWfHBcBcT6mggBDbB7DSeGXSnfsQHpjRsSuT/crNkukj95d/xkSYA1UdetRInjIi5dRJHRL/u+BV1xUiLD77C8gOHTPeK41eeSH6mUvYzveKDEfcnN0CtP6++FX2NT7AkPL8p+qHUV7utorbE+2Ioms96LPncYWtboviZXr0NF546lqIpcVsvFDalNeqBrVK3XO1xfF9WbVrvofm8pGcfYzRmtQjDqBs2942Eezi6bgU2n3tqxdzWQqv3xieY3SSr+bnyuM1N2hCFmU3EtXveRZ/tMY713ZT2zonIh0TR3tXYdsGxyS0my8WoBdP6F1nRaqlUtGAMNvcQ14QQkKPlwrfClzEGt04eweFDh7Dj17rIKmjwwVfLceCQeE85jitP0lLcxNZ1OCQKwKpg9ElTobPizE0SIAESIAESkCEBig8ydBpNJgESSB8BbxMfYMmTq1AgwKnFUd9yMD5dgfbirHOFgJy1RuOyze++t2datpJSbjgqPljWpQj4FFMeSqTcsVQr9Vf/HOdX/41+bT5FpeK53goRggYh3+y1+lFuU1i7F/2KqzJgAVMdjiflWU8tb7h5/QwBgfWnu239ArGHCavamYWF3B0gmWnG+AizmogDSyoUj9iW+kByUsqAjBUfrPKsZwnDVMm0WwZcH1ndNCiYteHb2Z/WHtXu7YfiKucX701Y0wG5BDXe/faQdXU+uh2Pk799jFxKAQEVhuKIaSzkFdb3aIThp6yGWg23MLZpByyNMSL24iy0KxUAZfb30W3RdcmBO/uwnBcfoN2Drxz6XCZifec80GQrgPLtZuCi1EBY4kn8WDEQxb/cAKlMXkjchT7BKqhKD8ShNO9pKXuZueKDEU9WtEdhlTmdTVkrcSilZW/3vPj/7J0HdFPl//9zM1poC5QNLbJkylCoLBH8sqGAUPbSr1pwKyAyBKyIMhQHIAgU+SpTlggIyGEoU0A8IhsO25/MA4U/lG+b0+T7/p+kedo0TdokvUnu7X1zTk+TNPcZr8+TDzfP6z7PXd4HpfUSiiUszfVZt97chpGNbFuZ6ZC9FZcVV+bG45kPc96s1Xp9OfqWN9i3pika9wH+8IKX5eynaFlEj/IvbMwxbiyXv0NCRSOiW07C/uwFKdmNdvfIJ/ngHytbtRnHJqNJuATTkx/hpOtc6bG5mRLOdp+e1u7v02MTqbEGA6q/tcsr4ZDdVSuuftUWYVJRdEm+mf1yiB6lHvgAzYrrYb9nw+7MSdO7a19A27H7ne6hZMHFz7sg4ZubsD44hoX9ayBcH4FaA5JxzP0uZ55746t8QDp2vF4FBi/uJ5O2dhBKmiJQ9rFemP2nU57Lak06/khqjKKxA/D9NffnHzYxZFuRVfX1nV4Kh6zCARRUPqRgaZ9GGO6SpNIPjEN9kwSpWBvMFFeVWM7j03+1xEeug9e5OY7H9s90hczPdHit17HFiwVIuL0cfUrrIUU+i+9c32+9jZ2j4+znHzpjXYw5kJkkrP8sQPenk3KuSLRex/K+BfcJYQAAIABJREFU5WGwbeNXtBHeP+RFQoEFZz99GkX05fDCBueEb8WVJb0RY4xG8/f3eLgJd24APq18sLe3QmZ7w2vhda9g2erMwLHJTRAumdB4kut2kWk4saAnKtnEmGTCU5+ccyNh0rHjtcowGKri9Z3eCAenflpvYF7HIpCKdMDXHsa107v5kARIgARIgARUTYDyQdXhY+NJgAT8IaA4+ZDhWFVgm2B6wuULoFcdTMHW12rZJ/X1JZ7G1CPefAHyUT7gNpI7265AjsMkH244nbv5Ztz4cw0mda+GMNv9A8r+Gzm+ozodkPHnRPte72WfW+c0meL0Br8fOu2zXnOE+33DrTfxTVebADCh4cQ/s69m9LvO7AMfrh6AaEkHY61RcL040PYuy6npeKqoBKloC0z1fLOHzAKDIh+c9lmv7b7NsF7Hgs62+42YEOcyKZrZ0Az8OdG2z3pZPLfOt1mvOwu7ZE4MfHA0G2JhfmS5iJWJ9RClN6FKr3k4mnIY7/cYiV9zfKwfYkXfWuj4Ul/UK2FC2eavY/GxPJcReSDmh3xA5ookfdgz+OKS+4nAzMqsuLFyEBonLMBp53ko0ZKHZ7DsxcdQsdk47HBrHoCMw+NR36RH6UFr3d4QGbAg9dbfuHTxIi66+Tk2oy2imn+A3y64//ulKzeR6jKBLZpn+505+eWtMHO6ebROB310byz3YmsRpB3E+3ERMJTrj5W3s3mar2zCmM6d8O6iJPwrQoIp7kMct138/PAgxrfsmGsrF/P+UZlb8ehsq6ri8KH9zc69cfPYeh0r+lWAqc672C/G190D+OiZUijeaAS2+LDFHnySD36ysnfhHnaPj0NxUy28+rO4+XAqzq4bj66tu6F9HdsNik1oMP6wm7ydgcPj68OkL41Ba91d5eyGUdZLD/HTixWhNzXFFNcrxLPeE8wHFlxcmYh6UXqYHknA3CN3cPj9bnhruwhkZlserhqIWu1fQP8G0TCVfhIvLzri9eRvjt74LB+Ae9/3RUl9GFp/cSnPK92tN1ZicOMELHCbKNJwbuUwNKj4JEb9nL0aLEfbkIEjtvtg6Euhv/2mCzn/an9mScWtvy+5zRMXL57EFx2i0GTiXlxwk0cuXryEKzceuBlPjnrStmBYw+fwg+uQsl7Ftz1LQa8zovrr2zNz2K3/oGejke7PO1yabbt5dG37zaNtqzRLoOdit/souRyVht+TnkSkoQz6LBefD9sc+9/YPK4LOoxchA/bRUEyPYEk+3aWaTic1ArtZuTc3hHm/RhVK/NGzDqdCU8k/eVSj/un1usr0L+iCbXe2Zclge4d/BjPlCqGx9/8KXuVjvvDc7zqk3ww/4Z3bSs6bPlPJ6FEz8Xwhpa9wnu7MT6uOEy1XsZm8X9R6lmsn9gNrbq2t28VZZc1B90IGMf5u8cVnzl65PIkLXNLvazc7vJnPiUBEiABEiCBwkSA8qEwRZN9IQES8IqA4uQDzNg70rHXe4kELMnaKiKzO5Ybe5E84WX0T+iP16dvxsUc33+suPPza6hlu7rOVB3PrbqS55f8bEC+yod0bH25EgyGKnh9R87JjewyxSMrbuz8GP2eboK2w39wv2rgwUa8GGuAZLv63+lCR3d7vZdv2sex1/tkbPwne3JO1Ob775z7rLteHGgvL/VHPF/Otm94ZbwqJnMyjmPmsMnYl4O/77Wn//oWqht0MDWehNweJxXbX6sOgxSO+qN2e5hwdaozKPJB7LMuITzHfttO7XiwFoPL2HhVw5tZs+Tu9lkvj6Z9HPtxT97ofmw4FWubXD75cROYpAg8+63bSOV4d6F5Yr2Dg18PQ8vYoihesxXiqj+OV77/E+fOHcehHasxe9wgxJU1IrpBf0xefRR3XCbQ7589inOuE2Fu4fgjHxzbgulLoNeyfGbXrXdxaO6L+FfT9nju3Y8xK3kRkufMwKThA9D2yWboMfZ7nPDoTGxXbbdGmBSBTvOvu89rd1dicEwkioSHI9zdj8kAyWBy/7fwcBSJqIDe33nea9s3+QCYTy5Av7qlUKpaCzzTqC0+zP0BdxuFjEs/YESLGMS2fBlT58zB9Hf6oW2HRHz1m217kof4a9azqBL9GAZ8OBXvdG2Obl8cybFSwV6o+Rjm9qqN6KhyeLRqXQzbnF+ezmyK9domvNPsETw+YBI+n/oOEh6viaffWoYTXo0fp+74JB/8Z2Wv0XobB+e9ge6tW6Ntpw5o27od+o9fhiP//IAh9vvO2LYxcWO8LBfxeeswSBGdMP+6j/+XmPfbJzcLfANlJ2QFf2hFysF5GPZ0LIoWq4Gn46qhfuJy/HHuHI4f+gVr5ozHkKblYSxRH30/WIkjt10SRep5HD3j5dIWP+SD9eZ/8GwJPUokLM1n6y4r7h6aixefaYL2Q0bho5nJWJQ8B599OAKD2jdBs+6jsexoHu20XsGsNuGQinq+gvzuysGIjSziMReYDBL0pjAPfy+CiLLdscDDqk/zoXF4stsCuHN16ftH27eUkoq3x1cXLXi44UU0+Le410I+I8B8Egv61UWpUtXQ4l+N0SbJywshMi5j3TstERv7FIZNnYM500ehf9sOeHHWftj8Ztrxr5FQLRq1+3yAaaOfRfPO0/F7rmsCzDg2txdqR0cgulIsar20MZ/Gij9bcX3zKDR/pCH6f/A5po1KwBM1nsIbS455XuUqDnX57ZN8gBknF/RD3VKlUK3Fv9C4TRLc3HbCpYbsp9bbBzHvje5o3botOnVoi9Zt++G9pX/i6voX7Ntk6iu+BHc7B1qvzEKbcAlFO3wNXxcv2MZNPaMJ9d/73bPYym4iH5EACZAACZCAqglQPqg6fGw8CZCAPwSUJx8Ay5nP0DrSttd7afRamn0PAvOp+RjQdjA+33oaN1Ou4uD8wYgfvTtrJUDqH5+hfTkDJFNl9Jj7l5s9sD0R8lU+WHB2eguYpKLo+o2LHXGtwnwQYx+zXX2qgyF2qPubTdquUqtjQmS7r3DZaQ4o917vT+Ct1WKv95O46Xbb44e4uGcNVm0+6sM+6+XtezF72mf94bZXUcW2b3h0H6xwzHlYzkxHm/i5uSbMH17cg9XLN+DPWy4TO65cHM+t1+ehY1EJxnrjcMilPxmnZqB1MT3C6o7Arx4nZZ0K9lk++MrKVpdtn/XG9i2Vivdb5WaM2bZQ6WO/sbi+1ECszpq0dLPP+hNvYbXYZ/3kTS++cKfj52GxMBgfxdsuW1o4USi8D1Ov4MAPc5H01ksY1Ls74uN7oN9LIzBp1iwkNgxHjeG7c28dYzmNT9p2wUznD5ZHQv7IB8B64zv0jDagTP9V3l1Fbb6F0/s2Y83yJViyfC027zuDOy5jP3cT72Bxz+KQTE38vudLcLddcu5BOnYOT8Bkt/d0cX6f8+NUXDm0BauXr8CG3y7ivlNetL3rwaWD2Lx2LbYeu+Vm6w/ncjJw5IOeGO7LFiCW2zj5y49Y+9NvOJ+Sb2CcK8t+7KN8yD7QH1bZRzs/EvedkUr0glsvdmcxehaXYGri231nbHVkrsQLw5OTc2535Vx/6B4/xJUDP2Bu0lt4aVBvdI+PR49+L2L4pFmY83IjhFd53c3NyS24MKsz2k8/m894cvTKD/kA3MKy3qVgKN0fK/PxlJm1mHHr9D5sXrMcS5Ysx5rN+3D6the2X9xPyM1WXN7FpCDbLllw4bM2aDXFZeWAqNj6D77pVtK++qHGm1ux89049LBtgyX+7uVv8653kOCtfHCU+fDv37Fl9XKs2LAfF10TSuoV/L5lLdZsOYL8bieRcfwj9Hxjq5ctzXyb5fYp/PrjWvy0/xz8TylDUErvwz0fRAvNu/BOgm/yQRya87dYoSWhWI/v4O7M9+7y3oiWTHjyo5PefY6yKsjA0Q8aw2RqhKS//My5WWXxAQmQAAmQAAkonwDlg/JjxBaSAAnITECJ8gF4gP3vN0ExSUJ4w7HYZ7sKzXoLywZ3wofO2yhlHMOHHf+NtfdtVzx+jq6xRuhLPIFXVl3IPQmZJzdf5QOQvvVlxBqMqJPr5qQuFaWtxaCSJkSUq49+845lLb13flfq3lGoW6Qahm3yMCPh2OvdWOudfFYaWHF1SS+Uc+yzXnfEzvxXCwC4vaw3Stn2We+1LNfVeNYbW/B2Q9sWQrrsrU5gwZlP2qL9Z+dzfMG0Xl2MXjb5o5MQ2fQjePUd0nIWn7YsAkNMIrY4X5xsuYDkbmVhLP0vTD2UNYPvjC33Y5/kg3+sbJVmHP0QcbZ91ptPwxkXx5J6ZCY6O/alLtrR/dV/mfusG+1bMXgxlZTdT+sVfPmvMEhRz+Jbd9/8s9+prUcZR/FBYxPCWkx3icdDHJ/dBVXbfAmX+5R74OOffLDlqy3DKsNYqjeWeb23hYcmeHo5bTMSY1zv+ZKOkxs34Kibi9rdFRMy+WC9ieTeffGfQLFx19ms1x7ihxe64hOnG3hn/SmQD/yVD7KxsuDE5CftkjT8XzNzSG3R7bTNiYhxve9M+kls3HA090oScZD9txm/ja4DU4nOmO/2njc53qygJxacntoMJtOTmOyyhV/6qQXoUa0lpnm7hZRf8gFI3f4aqplKoXfAEkXmuUklgxE1hu/JPg8yn8JP64+4keXuwlMQ+XAb3ybEYVQeSyLT9r6D2vZ7PzREo8da45NzLv+JumuSy2u3F/VF72TfpYVLMX49TVufiK5TT/l1bEEO8m3lg1NNtxehb+9k5HOfc6cDPDy0nMbUZibopDA8/dmFHOd+mUc4VgQba2D4nuwzG/Opn7D+iNOSXnfFmw9hXD0TinWYg0u+Dwd3JfI1EiABEiABElA0AcoHRYeHjSMBEggEAWXKB9tm/xew4sW6iNSbULVPMo6n7MOYnuPwW/Z3GgD38J8edRCf2AO1osIQ88worD6da728F9h8lw9IWYpe0XqEt5kND7sPZNZrvYGVg+LQ+5uz7sXDye/wXO0YPJ20GykeLv8Te72Xe3591ioP950yY8+ImjDa9/nVwb7vbh67M2SVIfZZLz8Qq50mtdMvrcc7neIx/pvxeKqIBNNTn8A+T3DvFwxv9iySXTpu3j0cNcSezF7vBW7F9RX9UMFUD2PFHsLWFOxLegrR0XEYvd1pn+asBnt44JN88JOVvep72PVeHIqZ6uLN7bczr9q03sfptWMR/0x3tK+Vuc/6k5NPuPmCLvZZL4fn1/s4VlPX27e/Cmv5KcT9Oj2Q0NbL5t8wuo4RkrEq+n17yj7Bln79IJa82wYxpgoYsNLbMeSvfAAs575Ch+hIPP2phyt+CxiRjKMfoLHtfg+D12blAMu52ejW/mN4u6AgVPLBevNb9I2fkZk7CsjB58PNe/ButzFu7yfjc1m+HOCnfPCFlfX+BRw+fMm9YLacw4yni0CSwtFimrsx6bjSWF8ag9eKPGTBudnd0P7jo3mvwrqzDs/HFsXj7x3IR1L4AiwY783An+8/DpPOgEd6JeOErdvmGzi8fBzaVwpDmYTvvN8qxk/5AMtFzO9SCpEtP4G3nsM3Mo6VeTnu42HBhbk90O7DI3nHNauiAsiH1A14scEL+FEMqawynR5Yr2BBfDT0Oh2MdcdA/Lfv9I58Ht7G0gFdMD0wAPOp24z9Y7thlNPkej4HyPZnf+XD7aUD0GW6uxzg2jQr7l84jMMX3S8ztVz8Ev+y3X8r7ElMdncPnYxjmNTYBH3pQci6hYzlAub2aIcP7ffTcK0v+3nK+hdQqUh9jN6Xj6TIPoSPSIAESIAESEDVBCgfVB0+Np4ESMAfAoqVD7bOWG/jtzmJaBFTBCVqPY3G1ePw5tojOH/uOA5uX4mZo/uhUWkjSsf9G9PXn8K9HJP3VqScPoZLzlfTewTkh3ywXkNyfDHoS/bDynwm+K0pBzHnhWfQtOPzePfjWUj+ZgG+mvEB3u7fBk82T8CENafcTyDZ2yv2eo9CVy+2JzAf/xq9a0cjqmwDNGnQHlNOencZmW2f9eEtYlCp1auYNncOpo3oi7adhmH+7ymwIhWHP+uCStENMWTyFLzdqTkS5p7IvqpScE3/C7N71kJ0VHk8WrUeXtvmFXzAeg2b3mmGyo0GYtLnUzGyR0PUbD0cK056ueJB1O+TfAD8ZWWvznoLv339OrrZ9lnv2B5tWrfHwPdX4ug/K9G/lB46T1sjiX3Wo7riGx8vRczcRsWEOEVudSKCEILfTjep10kGhEdGwKSXoNPpEf2vz3HS610cbuM/3aMgGWLx4kYfxx7M+OujZihWbRg2B+B2HOYDY1DXaMLj7zsmEO8dwEfxnfDBb3nN8uWMRUHlw+3/dEeUZEDsixvzyFc567RtU3Z8Whf0Sf7b561VXEvy53nK+peRMPWEl5Ou/tTg4Zjb/0H3KAmG2Bfh/VDynlXaoY/QsqQRkr4Uei11lWtW3Fr/IqoYJJiqD8VGpxt3Z7fWjANj6sJoehzvOyYG7x34CPGdPkDeQyoDx6c0R5RtnHtYqJddh9IeWXBqSlOYHDfhNYRHIsKkt6/qk4q1wJS/clzZkHfjHfHVV3geP7qfq/V4fMbxaWhZoiqGbgpAokDuuN4/NA3dOyVhv9cpzU/5YL2L36e1Rdkar2NHPmnp4a7hqGU0ICZxk88CK+PkDHTrPd/tah6P0OX6w92NeCXhI6+Fr1zV2srJzL96VHj+x1wrVD3Wk3ESM7r1xvx8tx1Mw6GPWqKkUYK+ZC8sFTeaFgVbb+OnodVhlIyo8u8f3K+iMB/AmLpGZN8H5j4OTeuOTkn78/7/IuMEpj0VhSovbXS7lZNoAn+TAAmQAAmQQGEiQPlQmKLJvpAACXhFQNHyQfQg9RL2r/kK77/5Igb26o74rj3RP3EkJn/1Of5dtwgajD+ce3LJfARJrXvj21uikLx++yEfYMWN73oi2lAeQ37Ixz44qk6/eQp7N63B8iVLsWLtFvx2NiV3u3M1U+z13gLTfdo6JB1b30jwWj7Yq7Wm4vLBzVi1bAU2HriMBzlkDnD/wm/YtGYttp+47eaKfueGZ+Dw+z0xarcPkzmw4PbJX/Dj2k347bw3XJzrczz2UT5kl+AHq+yDczxK3/kGqhp0Oa/+c36H2Ge9xXT4FE5k4Pf36sMU3gLTTnknlJyrLdyP7+OHIeXsV9LqHKt+dDoJpkcS8M2ZfMyD9RZWvtIcTzZtgrh6VVC+dBmUKVMapSpUQ4O4JmjSpBXGbPVSoqXuw/hG0ag/ak/eky3+BMNyGSsT66NC/b4YO/519O7cF5O2e7jxtIfyfZcPVtxa+QqaP9kUTeLqoUr50ihTpgxKl6qAag3i0KRJE7Qas9Xtii7RhPQTM5HQZTIOe4lQHCfL7/t7MKbjc1jh651P/azcemslXmn+JJo2iUO9KuVRukwZlCldChWqNUBckyZo0moM8hpK3rPKwB8TG9on0SVjZQzbknNW+e6hT9GxggGmmE747Pecf3PumuXySiTWr4D6fcdi/Ou90bnvJGzP58bTlrNfoUPZKhi86mpIZJJz+/15/HBzImINOmTnCR0kYwy6fu1GprtUIOLbpEkcHnMT3ydbjsJmr7ZAe4gDSU+iZL2R3t3LyKUd+T3NimufsZjwRl906TcJ26758n+Gr/IhBevfbo66VcqhZKnSKB0djdKV6uDpMVs950HLJSR3r4l+K3w0WOZTmNOrCyYd8gp0fqh8/Pt97B3XEUOWBWvsi/zbBE3iHnOTf59Ey1Gb85A3Zpya0wtdJh3K4z0OBBl/YGJDE2z/bxoeScTmHGnjHg5/0QUxRiMqtJ2K3zye7lpweWUi6leojz5jJ+CNvl3Qb9I25D30LDg3txPKVh6AFf+4nHD6GB2+nQRIgARIgATURIDyQU3RYltJgARkIaAK+eCpp459YiPazna5Cu4+Dk9rg6o9/oN85lIcJfsjH2x3Pd2CYZVNKDtgFXz8Cu2pR7lfF3u9137XacupNBzfsBHH85rQs17D1wn9sSRgDcvd1OxXUrHquW74zLuN9rMPK+gjf+WDbKwycCTpCfs+6xGd5rsde2Kf9drO9wpJO44NG4/nOYkL816MrGVCdPdvcJXf0XONlIzTizCwVhT0kg6SIRLVOryL1aeDP0FlPrMAz1ZtiLe3ObbjytXSgryQgZRLf+HwXxf9ummp7/KhIG0FkLYH73UYgIVn8xFABazG/eEP8cuoDkhcHayJQvet8PpVH1k92PUe4kqEIabtGHy7eRf27d+NbT/+B1NfbYdq0RUQN3Aqtl7xQv5mpODSX4fx10UvhG/6cXzRvjKaTtgLj/OPXnc4RG+0nMfSFx5Dcft9kfQoWrkNhi8/kbWVWdBalXEO3yRUQ4M3tri/irygDfElrrnq8lU+5CogQC+kYe/4jui/4IwXF23I34SHv4xC+xdXQi1z5Gl7x6Nj/wXIz79nknqA3ePjUCIsBm3HfIvNu/Zh/57tWP/tdLze4VFEl2uEfh9t9molcUbKJfx1+C9c9OLO2jbh2qHykxi3OxCrgOQfAyyRBEiABEiABOQiQPkgF0mWQwIkoBoCqpYP6b/ireoGSKZa+PfK80iDFWl/78U3b7ZEWVMVDN3s7RSJn/IBFpz7qj2ii7XBlwHahF/s9W6734PYDddy5gvEd5yGE3nM6Vmvf4Pe3by90a7MwzX9V4zoNt6PvZwL2A4/5YMvrPLeZ/00pjYPgyQVxTNfuLsho9hn3Xa/h6xo4swX8eg4La+tYay4vWYQKkY0wsRDeRmnAvJT++GW+7h69gwup3gx6Rqwvlpx55f30LxmJ8w8Fnz5kVe3MuXDzLzvUZNXAT7/LQ0PHuSRpHwuz7cD0h6k5rNCy7fyAvtu31mZrx/B5sWzMe2DCRg3ZhwmTv4Ec5ZtxV/XAjDurNew/uXHUW/wMi9v3h5YWgUr3YIH187i9KWU3FsHFqxg345O2Y33n6qJDp97eyNo34r3/92pWNyjOFp9dlFxn5+0+w9CIh7sLNMeIITpzPdwpt33sb1m3DiyGYu/mo5JE8ZhzLiJ+PCTr7D05z9xVZyu+N4Kj0dYr63Hy48/hkFLz4cuph5bxz+QAAmQAAmQQGAJUD4Eli9LJwESUCABVcsH8wGMrmvM3EJBMqJIVARMUuZe72W6LvBhkuQWFsZHQDI8gmFb8tms2DWG5iOY3LQYar6+w/t9eF3LyOO52Os9btKxzC9od/fjw/gu+OhQXt8GzTj6cWf0/09orvq9szYRvT49FfyJi1sLER9h2zZgGLwPo/essvdZL42+3zvdmdsePyuurx6MSrZ91mu+hp/dXsgn9uOOw6RjmZOyd/d/iPguHyHPcGYcxeQmkXj0lZ/httg8xg//FAoCVtzZNwP9+0zHn6Gbe8/V8Yxj32LC/N/zXmGT6yi+QAJWXFvxKnq+ux6XFTSeC0NcrCkH8MXAXpjyeyiFqSvJDJxYPBFfH8zrHMP1GD4nAR8IWK9hxas98e6PlygefMDGt5IACZAACRQeApQPhSeW7AkJkICXBFQtH5CCFX1K5drrPezRIVhxKZ89jh17vTex7fX+WBWUy9rrvbpjr/e2mPird1eZp+4dhydKPoH3fgvAl3XLZXyfWA8VG/bH2PGvoXfn/vho540899tOP/4Fenadgj+9a76XI8XLt937FaM6vIBVN4KzN1DmPtxN7PusP1alXPY+69Ud+6y3nYi8wug9K+d91qvg1a3OksqKlP1T0LasAabYeMz80/lvOblZLn+PxHoV0bD/WIx/rTc69/8IO/NkZcGZ2e1RtupzWBOkvetztpjPSIAESIAESIAESIAESIAESIAESIAE5CBA+SAHRZZBAiSgKgLqlg+A+fg89K4R6djrvRhqxk/A+gvBvorQjFNz41G18bv4NSD3WMhAykXbXu+X8t/r/eEujO0wEIvOheIS1VRsH9EOiWuv5SlHFPMB8ZFV5j7r4YhtPxbfiX3W1y3ClJfboGp0RTw5eDq2/+3F2MtIwUXbPuuX8t9nPf3452hXuRkm7ruvGGxsCAmQAAmQAAmQAAmQAAmQAAmQAAmQgO8EKB98Z8YjSIAEVE5A7fLBjj/jHv45cwZX7oViwt0xAKy3sX10E9TqPg+nvJh/DtyweYj7IdyY+OGDB8HfbslvmL6zsu2zvslln/W5y7fh6HX591m37Yk87PF6GLJceXtv+42cB5IACZAACZAACZAACZAACZAACZCARglQPmg08Ow2CWiZQKGQD0oJoPUW9kzri4FfHOc+tkqJiVrbYb2G5a8mYMyGyxxLao0h200CJEACJEACJEACJEACJEACJEACTgQoH5xg8CEJkIA2CFA+aCPO7CUJkAAJkAAJkAAJkAAJkAAJkAAJkAAJkEDoCFA+hI49ayYBEggRAcqHEIFntSRAAiRAAiRAAiRAAiRAAiRAAiRAAiRAApohQPmgmVCzoyRAAoIA5YMgwd8kQAIkQAIkQAIkQAIkQAIkQAIkQAIkQAIkEBgClA+B4cpSSYAEFEyA8kHBwWHTSIAESKCQEPjf//4Hq9VaSHrDbpAACZAACZAACZAACZAACZCA7wQoH3xnxiNIgARUToDyQeUBZPNJgARIQAUEVq1ahWXLlqmgpWwiCZAACZAACZAACZAACZAACQSGAOVDYLiyVBIgAQUToHxQcHAU2LQTJ07AYrEosGVsEgmQgFIJ2FY91KtXD7Vr1+bqB6UGie0iARUTuHz5MtatW6fiHrDpJEACJEACJEACWiFA+aCVSLOfJEACWQQoH7JQ8IEXBNq2bYvFixd78U6+hQRIgAQyCdhWPeh0OvsPVz9wVJAACchNYNiwYXbBaROd/EcCJEACJEACJEACSiZA+aDk6LBtJEACASFA+RAQrIWy0D179tgnD2vWrMnVD4UywuwUCchPQKx6EPKBqx/kZ8wSSUDLBGyrHkwmk/38xCY6+Y8ESIAESIAESIBneY7nAAAgAElEQVQElEyA8kHJ0WHbSIAEAkKA8iEgWAtlobZVD2ICkasfCmWI2SkSkJ2A86oHkT+4+kF2zCyQBDRLwLbqQeQW2/ZuXP2g2aHAjpMACZAACZCAKghQPqgiTGwkCZCAnAQoH+SkWXjLEqsexBd8rn4ovLFmz0hALgJWq9W+FYrIG+I3Vz/IRZjlkIC2CTivehD5hasftD0m2HsSIAESIAESUDoBygelR4jtIwESkJ0A5YPsSAtlgc6rHsQXfK5+KJShZqdIQDYCK1euzLoiWeQN8ZurH2TDzIJIQLMEnFc9iNzC1Q+aHQ7sOAmQAAmQAAmoggDlgyrCxEaSAAnISYDyQU6ahbMs11UP4gs+Vz8UznizVyQgBwFPqx5E/uDqBzkoswwS0C4Bd6seRH7h6gftjgv2nARIgARIgASUToDyQekRYvtIgARkJ0D5IDvSQlegu1UP4gs+Vz8UunCzQyQgC4G8Vj2I/MHVD7KgZiEkoEkC7lY9iNzC1Q+aHBLsNAmQAAmQAAmoggDlgyrCxEaSAAnISYDyQU6aha8sT6sexBd8rn4ofDFnj0hADgKHDh3CunXrsn5suaJ69epZz21/O3jwoBxVsQwSIAGNEchr1YM4P+HqB40NCnaXBEiABEiABFRCgPJBJYFiM0mABOQjQPkgH8vCWNLgwYNRoUKFrB+DwYCIiIis57a/rV+/vjB2nX0iARKQkUCzZs3QuHFjGUtkUSRAAlol8PPPP+PNN9/M+nn00UdRtGjRrOe2v82ZM0ereNhvEiABEiABEiABBROgfFBwcNg0EiCBwBCgfAgM18JaqslkQmJiYmHtHvtFAiQQIAKUDwECy2JJgATQu3dvlCtXjiRIgARIgARIgARIQPEEKB8UHyI2kARIQG4ClA9yEy3c5VE+FO74snckECgClA+BIstySYAEKB84BkiABEiABEiABNRCgPJBLZFiO0mABGQjQPkgG0pNFET5oIkws5MkIDsBygfZkbJAEiABBwHKBw4FEiABEiABEiABtRCgfFBLpNhOEiAB2QhQPsiGUhMFUT5oIszsJAnIToDyQXakLJAESMBBgPKBQ4EESIAESIAESEAtBCgf1BIptpMESEA2ApQPsqHUREGUD5oIMztJArIToHyQHSkLJAEScBCgfOBQIAESIAESIAESUAsByge1RIrtJAESkI0A5YNsKDVREOWDJsLMTpKA7AQoH2RHygJJgAQcBCgfOBRIgARIgARIgATUQoDyQS2RYjtJgARkI0D5IBtKTRRE+aCJMLOTJCA7AcoH2ZGyQBIgAQcBygcOBRIgARIgARIgAbUQoHxQS6TYThIgAdkIUD7IhlITBVE+aCLM7CQJyE6A8kF2pCyQBEjAQYDygUOBBEiABEiABEhALQQoH9QSKbaTBEhANgKUD7Kh1ERBlA+aCDM7SQKyE6B8kB0pCyQBEnAQoHzgUCABEiABEiABElALAcoHtUSK7SQBEpCNAOWDbCg1URDlgybCzE6SgOwEKB9kR8oCSYAEHAQoHzgUSIAESIAESIAE1EKA8kEtkWI7SYAEZCNA+SAbSk0URPmgiTCzkyQgOwHKB9mRskASIAEHAcoHDgUSIAESIAESIAG1EKB8UEuk2E4SIAHZCFA+yIZSEwVRPmgizOwkCchOgPJBdqQskARIwEGA8oFDgQRIgARIgARIQC0EKB/UEim2kwRIQDYClA+yodREQZQPmggzO0kCshOgfJAdKQskARJwEKB84FAgARIgARIgARJQCwHKB7VEiu0kARKQjQDlg2woNVEQ5YMmwsxOkoDsBCgfZEfKAkmABBwEKB84FEiABEiABEiABNRCgPJBLZFiO0mABGQjQPkgG0pNFET5oIkws5MkIDsBygfZkbJAEiABBwHKBw4FEiABEiABEiABtRCgfFBLpNhOEiAB2QhQPsiGUhMFUT5oIszsJAnIToDyQXakLJAESMBBgPKBQ4EESIAESIAESEAtBCgf1BIptpMESEA2ApQPsqHUREGUD5oIMztJArIToHyQHSkLJAEScBCgfOBQIAESIAESIAESUAsByge1RIrtJAESkI0A5YNsKDVREOWDJsLMTpKA7AQoH2RHygJJgAQcBCgfOBRIgARIgARIgATUQoDyQS2RYjtJgARkI0D5IBtKTRRE+aCJMLOTJCA7AcoH2ZGyQBIgAQcBygcOBRIgARIgARIgAbUQoHxQS6TYThIgAdkIUD7IhlITBVE+aCLM7CQJyE6A8kF2pCyQBEjAQYDygUOBBEiABEiABEhALQQoH9QSKbaTBEhANgKUD7Kh1ERBlA+aCDM7SQKyE6B8kB0pCyQBEnAQoHzgUCABEiABEiABElALAcoHtUSK7SQBEpCNAOWDbCg1URDlgybCzE6SgOwEKB9kR8oCSYAEHAQoHzgUSIAESIAESIAE1EKA8kEtkWI7SYAEZCNA+SAbSk0URPmgiTCzkyQgOwHKB9mRskASIAEHAcoHDgUSIAESIAESIAG1EKB8UEuk2E4SIAHZCFA+yIZSEwVRPmgizOwkCchOgPJBdqQskARIwEGA8oFDgQRIgARIgARIQC0EKB/UEim2kwRIQDYClA+yodREQZQPmggzO0kCshOgfJAdKQskARJwEKB84FAgARIgARIgARJQCwHKB7VEiu0kARKQjQDlg2woNVEQ5YMmwsxOkoDsBCgfZEfKAkmABBwEKB84FEiABEiABEiABNRCgPJBLZFiO0mABGQjQPkgG0pNFET5oIkws5MkIDsBygfZkbJAEiABBwHKBw4FEiABEiABEiABtRCgfFBLpNhOEiAB2QhQPsiGUhMFUT5oIszsJAnIToDyQXakLJAESMBBgPKBQ4EESIAESIAESEAtBCgf1BIptpMESEA2ApQPsqHUREGUD5oIMztJArIToHyQHSkLJAEScBCgfOBQIAESIAESIAESUAsByge1RIrtJAESkI0A5YNsKDVREOWDJsLMTpKA7AQoH2RHygJJgAQcBCgfOBRIgARIgARIgATUQoDyQS2RYjtJgARkI0D5IBtKTRRE+aCJMLOTJCA7AcoH2ZGyQBIgAQcBygcOBRIgARIgARIgAbUQoHxQS6TYThIgAdkIUD7IhlITBVE+aCLM7CQJyE6A8kF2pCyQBEjAQYDygUOBBEiABEiABEhALQQoH9QSKbaTBEhANgKUD7Kh1ERBlA+aCDM7SQKyE6B8kB0pCyQBEnAQoHzgUCABEiABEiABElALAcoHtUSK7SQBEpCNAOWDbCg1URDlgybCzE6SgOwEKB9kR8oCSYAEHAQoHzgUSIAESIAESIAE1EKA8kEtkWI7SYAEZCNA+SAbSk0URPmgiTCzkyQgOwHKB9mRskASIAEHAcoHDgUSIAESIAESIAG1EKB8UEuk2E4SIAHZCFA+yIZSEwVRPmgizOwkCchOgPJBdqQskARIwEGA8oFDgQRIgARIgARIQC0EKB/UEim2kwRIQDYClA+yodREQZQPmggzO0kCshOgfJAdKQskARJwEKB84FAgARIgARIgARJQCwHKB7VEiu0kARKQjQDlg2woNVEQ5YMmwsxOkoDsBCgfZEfKAkmABBwEKB84FEiABEiABEiABNRCgPJBLZFiO0mABGQjQPkgG0pNFET5oIkws5MkIDsBygfZkbJAEiABBwHKBw4FEiABEiABEiABtRCgfFBLpNhOEiAB2QhQPsiGUhMFUT5oIszsJAnIToDyQXakLJAESMBBgPKBQ4EESIAESIAESEAtBCgf1BIptpMESEA2ApQPsqHUREGUD5oIMztJArIToHyQHSkLJAEScBCgfOBQIAESIAESIAESUAsByge1RIrtJAESkI0A5YNsKDVREOWDJsLMTpKA7AQoH2RHygJJgAQcBCgfOBRIgARIgARIgATUQoDyQS2RYjtJgARkI0D5IBtKTRRE+aCJMLOTJCA7AcoH2ZGyQBIgAQcBygcOBRIgARIgARIgAbUQoHxQS6TYThIgAdkIUD7IhlITBVE+aCLM7CQJyE6A8kF2pCyQBEjAQYDygUOBBEiABEiABEhALQQoH9QSKbaTBEhANgKUD7Kh1ERBlA+aCDM7SQKyExgxYgTeeust2ctlgSRAAiRA+cAxQAIkQAIkQAIkoBYClA9qiRTbSQIkIBsBygfZUGqiIMoHTYRZk538f//vPr5buoI/ZKD4MfDX0eOa/IyqpdPMJcHPo+Pfn4S3ho9S/GdXaf/HMJeoJauwnSRAAiRAAoWJAOVDYYom+0ICJOAVAbXLB9uX/MXLvudPkBjMnP01vp7/DXn7wZtf8r1KSSF70507KZgy/XP7z8JFi8EfMlDaGJj51Xz7+Nyz97eQfU5Ycf4EmEuYO5SWO1zbM/OreZm5ZB9zSf6faL6DBEiABEiABOQlQPkgL0+WRgIkoAICapcPd1KyJwyTFy0Gf8hAaWNAfMnfvXe/CjKCdpsoJgwP/v6HdiGw54omkJr6kPJB0RHKbJzIJYeYS1QQLW028UFqKuWDNkPPXpMACZAACSiAAOWDAoLAJpAACQSXQGGRDwcPccIwuCOHtXlLQEwYUj54Syw07xMThpQPoeHPWvMnIHIJVz7kzyqU7xC5hPIhlFFg3XkRoHzIiw7/RgIkQAIkQAKBJUD5EFi+LJ0ESECBBCgfFBgUNqlQERAThpQPyg6rmDCkfFB2nLTcOpFLKB+UPQpELqF8UHactNw6ygctR599JwESIAESCDUByodQR4D1kwAJBJ0A5UPQkbNCjREQE4aUD8oOvJgwpHxQdpy03DqRSygflD0KRC6hfFB2nLTcOsoHLUeffScBEiABEgg1AcqHUEeA9ZMACQSdAOVD0JGzQo0REBOGlA/KDryYMKR8UHactNw6kUsoH5Q9CkQuoXxQdpy03DrKBy1Hn30nARIgARIINQHKh1BHgPWTAAkEnQDlQ9CRs0KNERAThpQPyg68mDCkfFB2nLTcOpFLKB+UPQpELqF8UHactNw6ygctR599JwESIAESCDUByodQR4D1kwAJBJ0A5UPQkbNCjREQE4aUD8oOvJgwpHxQdpy03DqRSygflD0KRC6hfFB2nLTcOsoHLUeffScBEiABEgg1AcqHUEeA9ZMACQSdAOVD0JGzQo0REBOGlA/KDryYMKR8UHactNw6kUsoH5Q9CkQuoXxQdpy03DrKBy1Hn30nARIgARIINQHKh1BHgPWTAAkEnQDlQ9CRs0KNERAThpQPyg68mDCkfFB2nLTcOpFLKB+UPQpELqF8UHactNw6ygctR599JwESIAESCDUByodQR4D1kwAJBJ0A5UPQkbNCjREQE4aUD8oOvJgwpHxQdpy03DqRSygflD0KRC6hfFB2nLTcOsoHLUeffScBEiABEgg1AcqHUEeA9ZMACQSdAOVD0JGzQo0REBOGlA/KDryYMKR8UHactNw6kUsoH5Q9CkQuoXxQdpy03DrKBy1Hn30nARIgARIINQHKh1BHgPWTAAkEnQDlQ9CRs0KNERAThpQPyg68mDCkfFB2nLTcOpFLKB+UPQpELqF8UHactNw6ygctR599JwESIAESCDUByodQR4D1kwAJBJ0A5UPQkbNCjREQE4aUD8oOvJgwpHxQdpy03DqRSygflD0KRC6hfFB2nLTcOsoHLUeffScBEiABEgg1AcqHUEeA9ZMACQSdAOVD0JGzQo0REBOGlA/KDryYMKR8UHactNw6kUsoH5Q9CkQuoXxQdpy03DrKBy1Hn30nARIgARIINQHKh1BHgPWTAAkEnQDlQ9CRs0KNERAThpQPyg68mDCkfFB2nLTcOpFLKB+UPQpELqF8UHactNw6ygctR599JwESIAESCDUByodQR4D1kwAJBJ0A5UPQkbNCjREQE4aUD8oOvJgwpHxQdpy03DqRSygflD0KRC6hfFB2nLTcOsoHLUeffScBEiABEgg1AcqHUEeA9ZMACQSdAOWD/8itd0/j5+QP8dagTmhWrwYqVyiN6JJlEVu9AVr1HIr3F/6KSw/9L18LR6b9/i0mjJ2ARYdcQKX9jm8njMWERYdUj0FMGFI+KDuUYsIw+PLBirunf0byh29hUKdmqFejMiqUjkbJsrGo3qAVeg59Hwt/vQSXT4iyYQa9dWn4/dsJGDthEXKnEg85JuhtLHiFIpdQPhScZSBLELkk2PKB5yQyRNXjuYfnHCNDrUEvgvIh6MhZIQmQAAmQAAlkEaB8yELBByRAAlohQPngR6StKfh93kuIK2OCpNNBJ+kRFl0RVWvURPVHyqNEmD7zdZ2EIlU6I2nLFWT4UY0WDrn7TTzCdeHonHw7Z3fvfoP4cB3COyfnfF2Fz8SEIeWDsoMnJgyDKR+sKb9j3ktxKGOSoNPpIOnDEF2xKmrUrI5HypdAmD7zdZ1UBFU6J2HLFWYS96PoLr6JD4cuvDNypxIPOcZ9QYp+VeQSygdFhwkilwRNPvCcRL4B4fHcw3OOka/y4JVE+RA81qyJBEiABEiABFwJUD64EuFzEiCBQk+A8sHHEFtvYMvIOJTQ6yAZSyNuyFSsOXwVac7FpN/CiW3JGNujNorrJUjhj2LIisuwOL9HEY9T8eMbjVGv0atYey80DaJ8CA131pqbgJgwDJZ8sN7YgpFxJaDXSTCWjsOQqWtw+GqOTIL0WyewLXksetQuDr0kIfzRIVhxWXmZBKk/4o3G9dDo1bUITSrxPDHoMcfkHgKKf4XyQfEhsjdQ5JKgyAeek8g7KCgf5OXJ0kiABEiABEiABHIRoHzIhYQvkAAJFHYClA++RNiCs193RhmbeIhsgJdXX0B6noffx58z4xFjkKAv2QFzzilt0vA+vu1uu1q4Cxam5NmRgP3R48SgxwmAgDUlYAWLCUOufAgYYlkKFhOGQZEPlrP4unMZu3iIbPAyVl/IO5Pg/p+YGR8Dg6RHyQ5zoLxU8i2621YqdVmI0KQSygdZPgQsRBYCIpcEXj7wnESWgDkX4vHcw3OOcT5cLY+58kEtkWI7SYAESIAECiMByofCGFX2iQRIIE8ClA954snxR+v1ZehTTg+dvhy6LTjv3UoG602sHRILg86AR4ZuxoMcJYb6CeVDMCJA+RAMygWvQ0wYBl4+WHF9WR+U0+ugL9cNC857JyWtN9diSKwBOsMjGLpZWZkE9ykfCj4C8y9B5BJuu5Q/q1C+Q+SSQMsHnpMEIMqUDwGAyiJJgARIgARIgAScCVA+ONPgYxIgAU0QoHzwNswWnJrWAuGShMhWM3Dau/lCe+EZR5LwhEkHfdkh+CGfOUPLgxu4ePoETp69gttpVm8b5/Q+M1KunMHps1dwKzW/RvojH8y4+/d5XEnxVLYFD25cxOkTJ3H2ym3k1wVZVj5YHuL2lXM4c/4qUvKr0ImU80Pz3b9x/kqKd0LJ+UAvHosJQ6588AJWCN8iJgwDLh8spzCtRTgkKRKtZpz2Ycxl4EjSEzDp9Cg75Ie8RablAW5cPI0TJ8/iyu00+JNJYE7BlTOncfbKLeSfSnyXD/l95nzLhZ6vSvaYY9yMNcvD27hy7gzOX03JN3e5ORww38Xf56/AY3p0e5D3L4pcQvngPbNQvFPkksDKB7WckwDmlCs4c/osrtxKzSffhf6cBLLIBwse3r6Cc2fO42qKf/k3v/xY0HHNlQ8FJcjjSYAESIAESMB/ApQP/rPjkSRAAiolQPngZeAsZzCteRgkfUn0WnrLy4Mcb8s4jgVDe6B7z7ew1O1VzvdxYnUSBrSoiuKOG8/abz4bVgq12yZixtZLbrd3Mu+bhl4du2D4qquwWu/g4LxhaF0lCgZJl3nzWlNJ1Gg1BB9vcjneeh1rRsajQ4d2aFjediV1OTRo2wEdOnRAlzeWZfUt48R8vNi5MxIXnkKG5R9snzoQTWIjoJfC0G7Otaz32R/cP4HVSQPQompxmBz163QSwkrVRtvEGdh6yf22Mh4nBj1OAIhqrbj71zJM6N8S1YobHDf41kEKK406bRIxY9tlt8yQcQLzX+yMzokLcSrDgn+2T8XAJrGI0EsIazcH1/yapRVtcv9bTBhSPrjno5RXxYRhoOWD5cw0NA+zbcXWC76nkgUY2qM7er61FO5Syf0Tq5E0oAWqFjdlfSZ0UhhK1W6LxBlb4f5jaMa+ab3QsctwrLpqhfXOQcwb1hpVosTnSoKpZA20GvIxNrkUYL2+BiPjO6BDu4Yob9DBUK4B2naw5ZIueGPZ5czQ+vSZ8y8XAgWQD9a7+GvZBPRvWQ3FDY4bfNtyV+k6aJM4A9suu8tdGTgx/0V07pyIhacyYPlnO6YObILYCD2ksHaYE4hEAkDkEsoHpWQN9+0QuSSg8kGB5yQw78O0Xh3RZfgqXLVacefgPAxrXQVR4nMlmVCyRisM+XhTzlykoHOSgsgH692/sGxCf7SsVjzrPMyWf0vXaYPEGdvgPpUE/5zENmopH9x/dvkqCZAACZAACQSDAOVDMCizDhIgAUURoHzwMhwp36FHlAQpMh4Lb8o4Q51xEauGNUAxvR7R9RIwetb32LJrH/b+8hOWfj4S3esUh95QBi0n7MAtl2rT1g5CSb0JLT78CckDayG6UmsM/fhbbNi5B7t3bMCSGW+jY/WikEyV0ec7p22irDfx0wdDMGBAXzxVySYfYtGi9wAMGDAAQyb8kAXEvHckahmNqPPuVmwZUR9FJT0iY59Am+79MXnr3az3ZVxchWENikGvj0a9hNGY9f0W7Nq3F7/8tBSfj+yOOsX1MJRpiQk7buW6Ats/+ZCB88tfQN1IPUzlm+K5pPlY8/Ov2LVjI5Z+NgLdaheD3lAe7abuR3YrHc0178XIWkYY67yLrVtGoH5RCfrIWDzRpjv6T96a+/1ZvfT/gZgwpHzwn2EwjhQThoGWDynf9UCUbQVV/ELIl0oycHHVMDQopoc+uh4SRs/C91t2Yd/eX/DT0s8xsnsdFNcbUKblBOxwTSRIw9pBJaE3tcCHPyVjYK1oVGo9FB9/uwE79+zGjg1LMOPtjqheVIKpch9852Q9rDd/wgdDBmBA36dQySYfYlug9wBbLhmCCT/8nRk2bz9zBciFfsuHjPNY/kJdROpNKN/0OSTNX4Off92FHRuX4rMR3VC7mB6G8u0wdb9rJjFj78haMBrr4N2tWzCiflFI+kjEPtEG3ftPhlN6lHXoilxC+SArVtkLE7kkoPJBgeckSFuLQSX1MLX4ED8lD0St6EpoPfRjfLthJ/bs3oENS2bg7Y7VUVQyoXKf77IFqoLOSfyVDxnnl+OFupHQm8qj6XNJmL/mZ/y6awc2Lv0MI7rVRjG9AeXbTUXuVBL8cxLbgKd8kP1jzwJJgARIgARIwGsClA9eo+IbSYAECgsBygfvIplxeAIamHQwNZyAPzK8Oyb/d6Xh0AdNECWZUKX3Qpx86OaI1KOY0z0WBn0ZdJl3LseWBZnyQY+oEiVQstk47HQzk2n553sMiDVAXzoBi3NdjZv3FgdCPtTo0hWPRVVFjxm7cc2172mH8EGTKEimKui98CTcd2EOutvaUKYL5rncKdcf+ZC67z00itAjsuEb2PCPm+2fHh7D3GdjYTQ+giFrbuQUHmIitEYXdH0sClV7zMDuXJ1yE4cCvCQmDCkfCgAxCIeKCcPAyocMHJ7QACadCQ0n/AHXj5O/3Uw79AGaREkwVemNhe4TCY7O6Y5Ygx5lusxzuWG1Qz7oo1CiREk0G7fTjRSx4J/vB9iPL52wOPcKobzu+eDVZ65gudA/+ZCKfe81QoQ+Eg3f2AD3qWQuno01wvjIEKy54Wx/hXyogS5dH0NU1R6YsfuabPH0NA5ELqF88ERIGa+LXBJI+aDEcxIhH/RRJVCiZDOM23kz5/+/tvBY/sH3A2znNKWRsPiay99Df07il3xI3Yf3GkVAH9kQb2z4J8d5WuaIfIhjc59FrNGIR4asQc5U4pAPQTwnsbWJ8kEZuYKtIAESIAES0CYBygdtxp29JgFNE6B88C786ZsTEWPQIbzzAtz27pB832W5NAcdikswVEnEphTPb7deX46+5fUwxDyHdU7vy5QPOkiRT+PTU56mMc04OKYujFJx9F7uesMJb77oS5D0RRGXdBhpuZpowaU5HVBcMqBK4iY4Nc3lnVZcX94X5fUGxDy3Lsf7fJYPlpOY/lQE9FEtMe2Y2aWe7KfWG6swMMYAU4PxOOyMxjERKkl6FI1LwuHcncouRKZHYsKQ8kEmoAEqRkwYBlY+pGNzYgwMunB0XiBTJrFcwpwOxSEZqiAx70SC5X3LQ2+IwXPOiUSsfNBJiHz6U3hOJQcxpq4RUvHeyJ1K8rjngxefuYLmQn/kg+XkdDwVoUdUy2nwnEqsuLFqIGIMJjQYf9hJLjjkgyRBXzQOScFIJNx2KUCffPmLFbkkkPJBieckQj7opEg8/ekpp89LTsbmg2NQ1yiheO/lLveuCf05ie/ywYKT059ChD4KLacdg8ezEusNrBoYA4OpAcY7n5R4kR9z0pPnGeWDPBxZCgmQAAmQAAn4Q4DywR9qPIYESEDVBCgfvAtf2rrBKKWXENFrudur+70rxfldFpye2hxhUhiafnzKzZVyzu9Nx663H4VRH42EpXey/pApHyRExS/MeSVd1jsyH6Qu72VfXdHqs4suf/Hmi74O+uheWOpuntRyGlNt98EIa4qPT7lZgeBcW/ouvP2oEfroBDh1Ab7KB/P+Uahl1KPi8+twz7n8XI/TsPONajAY62LMQafpAMcXfZ0+Gr3cdipXQQV+gfKhwAiDUoCYMAysfEjDusGloJci0Gu5u3VCvnfVcnqq/R4SYU0/Rv4fw7fxqFGP6ISlcMokmdsuSVGIX+iyUihHc1KxvJdtlVMrfHbR5fPuxcoHz5+5gudC3+WDGftH1YJRXxHPr8s7k7NVmHIAACAASURBVCBtJ96oZoCx7hhkpxKHfNDpEd1rqWxCOgduN09ELuHKBzdwFPSSyCWBlA9KPCcR8kGKisfCHJf3uwQndTl62VZqtfoMOVNJ6M9JfJYP5v0YVcsIfcXnkX8qeQPVDEbUHXMwW1KE4JzEFg3KB5cxyackQAIkQAIkEEQClA9BhM2qSIAElEGA8sG7OKStfx5l9RKKPPsd7nt3SN7vst5Echfb/RgaYuKfzpfmuz/sob1+A2KH/Zx1I+VM+WBEvXGHPF5haCvN1vYyehOaTjntUrg3X/Q934jZejMZXWz7wDeciPy78BDrny8LvSEWw37OvoGrb/IhA0eTGsGkL4UBq/OPwr3veiBCCkOb2f9kb+0grjIM4E1hXSBn3SSWKx9cySjruZgwDLR8sH8OpCJ49rv8x3D+hKy4mdzFvod6w4l/5pkH7GU9XI/ny+phiB2G7I+hY9slYz2MO5RXLkrD+ufLQG9qiimnfZcPHm/ELEMu9Fk+ZBxFUiMT9KUGIP9Ucg/f9YiAFNYGs/8RWy+JlQ9haDfHdeuY/KPm7zsoH/wlF9zjRC4JqHxQ4DmJkA/GeuOQdypZj+fL6GFqOgU5U0noz0l8lQ8ZR5PQyKRHqQGr8z83vPcdekRICGszG9mpJHPbJY/5MUBDl/IhQGBZLAmQAAmQAAl4QYDywQtIfAsJkEDhIkD54F08zbuHo4ZRB1PLT7Nvkujdoe7fZT6A0XWMkIr1yr2FiZsjLCc/RhOTDmHt5mTtt54pH0z5rpzIFCeZ78tZtDdf9A2ISdySJTycjzcfGI06RgnFerluneD8LvHYgpMfN4FJlzlZJ171TT6k4vu+tu1lKqLNa0lISsr7Z+LgxoiSjKj1zr5cVxkaYhKxJduBiOYE5LeYMKR8CAhe2QoVE4aBlQ9m7B5eA0adCS0/dboJvN+9MOPA6DowSsXQK9deSG4KtZzEx01M0OWQb+KG0/mtYLLJh7J2+ZBrpZMXKx88fuZkyIU+y4fU79HXtuVdxTZ4LZ88kpQ0EYMbR0Ey1sI7+8QqKod8MMQgMViJhNsuuRnQynxJ5JJAygclnpMI+WDKbxVWWqYEzf2+0J+T+CofUr/va996smKb1/I9J0maOBiNoyQYa72D7FSSKR885scADXHKhwCBZbEkQAIkQAIk4AUBygcvIPEtJEAChYsA5YN38bRe/gLPhOkg2xfE9G145RED9BVewiYv7jtg/Wc22oTpYGo+DWccFx0L+dBies4bUbv2qGDywWXy3qnw9G2v4BGDHhVe2uTmfhBOb7Q/tOKf2W0QpjOh+bQzWX/0ST5Yb2JexzDopHBEx1RCpUre/FRB03G7c8mHHF/+s1oTmAeUD4HhKnepYsIwsPLBistfPIMwnWep51u/0rHtlUdg0FfAS94lEsxuEwadqTmmiUQi7vlgaoHpLjeEz9mWgskHj585GXKhr/LBenMeOobpIIVHI8arPFIJlao0xbjdLvIhh5DISSsQz0Qu4bZLgaArX5kilwRSPijxnCRLPrSY7nJTexe2BZIPgT0n8U0+WHFzXkeE6SSER8d4eU5SCVWajkN2KnHccNpZSLjgCsRTyodAUGWZJEACJEACJOAdAcoH7zjxXSRAAoWIAOWDl8FM34k3qhqgMz2O9/PfYyhnodbLmNU2EkZTOQxa7dhf3Lzbfg8EKXog1nghHyznpqOFbeXDM1/ismPnj2DJhzqjD2RP3jv1zLzbtn+8hOiBa7yQDxacm97CvvLhmS8vZ5Xik3zAXSzqGg7JnxiIGh3bLhnrjMYBMY8o/hag32LCkCsfAgRYpmLFhGFg5QOQvvMNVDXoYHr8fS+2K8vZOevlWWgbaYSp3CBkphIzdtvuByNFY6B3iQTTW9hWPjyDL0UiCZZ88PSZkyEX+iofcHcRuoZLfsUgMyKOlQ/GOhgdrETClQ85PwwKfiZySSDlAxR4ThIs+RDIcxLf5ANwd1FXhEsmPP6+F9veuRuzITgnsTWD8sFdMPgaCZAACZAACQSHAOVDcDizFhIgAQURoHzwNhgP8MOQctBLJtQf/7vbyXhPJVnOfobWERL0JXth6S3HuywXMONpE3Tubt7qpqD0rS8j1qBHqUFrs254HWr5YLkwA0+bdG5uGummA0jH1pdjYdCXwqC12Tfa9U0+pGNzYgwM+vJ4YaMXxsZdM0LwRZ/ywV0glPeamDAMtHzAgx8wpJwekqk+xv/uiwGz4OxnrREh6VGy11JkphILLsx4GiadCbYbyrvciSE35PSteDnWAH2pQcj+GIptlwK88sGTfJAhF/osH9I3IzHGAH35F+BfKqF8yD24+IogIHJJQOUDlHdOEmr5IMc5ia/yIX1zImIMepR/YaMXF2GIEeL0OwTnJLbaKR+cYsCHJEACJEACJBBkApQPQQbO6kiABEJPgPLB+xik/vwyKht00Jfvg6VXxY1H8zv+DjYNrQaDzoBHhm7Gg6y3O/Z+10cjYentrFfdP8jA4QkNYJKKoM3sK1k3Tw61fIB5N4bXMEIfnYD8u3AYExqYIBVpg9lXstn5Jh+suPp1BxSVjHhs7MF8BJAVd0/uxPp167HnfLbsQAi+6FM+uB/VSntVTBgGXD4gFT+/XBkGnR7l+yyF96lkE4ZWM0BneARDNztlEvv9aPSITliKfDPJ4QloYJJQpM1sZH8MQywfUPBc6LN8sF7F1x2KQjI+hrEH8xFA1rs4uXM91q3fg+xUomL5YMlAhtkMs+Mnw5Kdj736TBbweEtGRlbdZnMGfK++YMd71ccCvknkksDKB0Bp5yShlg9ynJP4Kh+sV79Gh6ISjI+NRf6p5CR2rl+H9XvOZ11EEopzEtvwpnwo4Iech5MACZAACZBAAQhQPhQAHg8lARJQJwHKBx/iZjmDmW1LQK8zoGL3eTiZ7w2LLbi8cjCqmSToo9th9tmc1yWbD4xBXZOE4m1n5X0T6/vb8Gp1I6QSXbDg7+yJopDLB5hxYExdmKTiaDsr75vn3t/2KqobJZTosgBOXYBv8gGwXJqNdpESDNWGYYtjByu3EbRcxKw2kZCMtTFqv9PkIuWDW1x8ERAThoGXD4DlzEy0LaGHzlAR3eeddHtD9xwxsVzGysHVYJL0iG43GzlSifkAxtQ1QSreFrPO58wxOcrAfWx7tTqMUgl0WfB3lsREqLddAlDQXOizfIAFl2a3Q6RkQLVhW5B3KpmFNpESjLVHITuVqFU+pGPn61Vh0Omgc/yE91iSc5jk+ayAx6fvxOu27Quz6g9HjyVOcjjPumHbs6xgx+dXvkx/F7kk0PIBCjsnCbl8kOGcxFf5AMslzG4XCclQDcPyPinBxVltECkZUXvU/uyLJ0JwTmIb5pQPMn3YWQwJkAAJkAAJ+EGA8sEPaDyEBEhA3QQoH3yLn/nUHHQup4dOMiG2/URsvOBh+5+Ma9j9WW/ULCpBMsYiYdE5ZLhWZb2KFf1jYDCUR/ycE+4nIK23sWNEQxTVF0HDcfuzr5YDUHD58ACLny0CKawj5t3Mlhqimea9I1HLaISn/ZVt77NeXYH+MQYYysdjzgn3NsZ6ewdGNCwKfZGGGLc/50STr/IBuIetr9aASQpH3Vd/wvXczQaQgYtL+ti3qYruOAcXnOdjQ/BFnysfxIhS9m8xYRgM+QCYcWpOZ5TT6yCZYtF+4kZ4TiW78VnvmigqSTDGJmDROddMYsXVFf0RYzCgfPwcuP8YWnF7xwg0LKpHkYbjkPNjKMPKhweL8WwRCWEd5yFXKvHmM1fAXOi7fABwbyterWGCFF4Xr/503UnGOI3TjItY0se2XVw0Os654LStFeWDEAg+yYuCyoOCHu8U2kA+FLkk4PLBJu4UdE5ScPkQ+nMSn+WDPZW8ihomCeF1X8VP7k9KkHFxCfrYtryL7og5zicl3uTHAAxWyocAQGWRJEACJEACJOAlAcoHL0HxbSRAAoWHAOWDr7G0ImX/dHSKNUHS6SAViUFc90SM/ugLfJ28EPNnf4qkN/uhVfVi0Es6SJG1MGD+UaR6qMZ6azvGNSsJg6kiWr2djF0XHjgmwTKQcmoTZgyqj+J6I2LiZ+Ooi+couHxIw+bEitAbq+PlLSmZLTRnrxLwRj4AVtzaPg7NShpgqtgKbyfvwoUHDiOQkYJTm2ZgUP3i0BtjED/7aK49kX2XDwDu7sbEZtHQS5GolTAJq/+44biK0IrUK/uxeGxHVA63TdT2QPIZl4naEHzRp3zwMPgV9rKYMAyOfLCZuxTsn94JsSYJOp2EIjFx6J44Gh998TWSF87H7E+T8Ga/VqheTA9JJyGy1gDMP+ohk1hvYfu4ZihpMKFiq7eRvOsCsj+Gp7BpxiDUL66HMSYes10TiRwrH9I2I7GiHsbqLyM7lTg+e15+5gqSC/2SD/ZUMhHNovX2PJ0waTX+uOHIf9ZUXNm/GGM7Vka4ZERsj2TkTCWUD5QPnhOYyCXBkA+2/4OVck5ScPkQ+nMSf+SDLf/sntgM0Xpbnk7ApNV/IDuVXMH+xWPRsXK4/UKUHslncl6I4mV+9Dza/PsL5YN/3HgUCZAACZAACchBgPJBDoosgwRIQFUEKB/8C1fGtd2YNbQ1qkTaJgazt7AQEzJSWFk80WsCvj+W14YejrofHMPSkR1Q3VaWZECR6DIoVzICRtuVztF10SNpAy64WVRQcPkA3N8xHHWK2FZnRKBkudIoUSUxC4h38iHz7Q+OLcXIDtURqZcgGYogukw5lIwwQpKMiK7bA0kbLrhd2eGXfLBVefcPLHylJWLDJegkPUxRpVCmVCRMkgRJH4mq7Udh1emcqyzsLQ3BF33Kh6whpegHYsIwaPLBTiMD13bPwtDWVeyfHZE/sn9LCCv7BHpN+B75p5IHOLZ0JDpUj4RekmAoEo0y5Uoiwmj7fEejbo8kbHCXSOSQD7iPHcProIgtZ0WURLnSJVAlcXNmvH35zPmZC/2VD7YG3v1jIV5pGYtwmyzWmxBVqgxKRZogSRL0kVXRftQq5E4llA9ijHLlQ+60JnJJcORDZv1KOCcpuHwI/TmJf/LBnknwx8JX0DI23C6L9aYolCpTCpEmCZKkR2TV9hi16nSO1av2yPmSH3MPNb9foXzwGx0PJAESIAESIIECE6B8KDBCFkACJKA2ApQPBYuY9f4lHNq8AsmzZmDalKn45IuvsfjHPTh9O3sFgbc1WO9fxP71SzDvy0/x6cz5WLrpMK66rHbwtizv32fFnWMbsfDzaZj2xQKs3n3e+0NzvdOK+xf3Y/2Sefjy008xc/5SbDp8Nddqh1yHFeAF841j2L4yGTM/mYopU2dg9qI1+PXUHaftUQpQuEyHUj7IBDLAxYgJw+DKB9EpK+5fOoTNK5Ixa8Y0TJn6Cb74ejF+3HMaPqcS631c3L8eS+Z9iU8/nYn5SzfhcOATCWC9g2MbF+LzadPwxYLV2H3eC/Equu/yO/i50Iwbx7ZjZfJMfDJ1CqbOmI1Fa37FqTvOe7a5NDIET0Uu2bP3txDUziq9JSBySTDlg2gbz0kECdvv4J+TwHwDx7avRPLMTzB1ylTMmL0Ia349BYWlEt7zwXmY8DEJkAAJkAAJBJkA5UOQgbM6EiCB0BOgfAh9DNiCwk1ATBju3ru/cHdU5b0TE4ahkQ8qh8fmB4WAyCWUD0HB7XclIpeEQj743WgeqCkCXPmgqXCzsyRAAiRAAgojQPmgsICwOSRAAoEnQPkQeMasQdsExIQh5YOyx4GYMKR8UHactNw6kUsoH5Q9CkQuoXxQdpy03DrKBy1Hn30nARIgARIINQHKh1BHgPWTAAkEnQDlQ9CRs0KNERAThpQPyg68mDCkfFB2nLTcOpFLKB+UPQpELqF8UHactNw6ygctR599JwESIAESCDUByodQR4D1kwAJBJ0A5UPQkbNCjREQE4aUD8oOvJgwpHxQdpy03DqRSygflD0KRC6hfFB2nLTcOsoHLUeffScBEiABEgg1AcqHUEeA9ZMACQSdAOVD0JGzQo0REBOGlA/KDryYMKR8UHactNw6kUsoH5Q9CkQuoXxQdpy03DrKBy1Hn30nARIgARIINQHKh1BHgPWTAAkEnQDlQ9CRs0KNERAThpQPyg68mDCkfFB2nLTcOpFLKB+UPQpELqF8UHactNw6ygctR599JwESIAESCDUByodQR4D1kwAJBJ0A5UPQkbNCjREQE4aUD8oOvJgwpHxQdpy03DqRSygflD0KRC6hfFB2nLTcOsoHLUeffScBEiABEgg1AcqHUEeA9ZMACQSdAOVD0JGzQo0REBOGlA/KDryYMKR8UHactNw6kUsoH5Q9CkQuoXxQdpy03DrKBy1Hn30nARIgARIINQHKh1BHgPWTAAkEnQDlQ9CRs0KNERAThpQPyg68mDCkfFB2nLTcOpFLKB+UPQpELqF8UHactNw6ygctR599JwESIAESCDUByodQR4D1kwAJBJ0A5UPQkbNCjREQE4aUD8oOvJgwpHxQdpy03DqRSygflD0KRC6hfFB2nLTcOsoHLUeffScBEiABEgg1AcqHUEeA9ZMACQSdAOVD0JGzQo0REBOGlA/KDryYMKR8UHactNw6kUsoH5Q9CkQuoXxQdpy03DrKBy1Hn30nARIgARIINQHKh1BHgPWTAAkEnQDlQ9CRs0KNERAThpQPyg68mDCkfFB2nLTcOpFLKB+UPQpELqF8UHactNw6ygctR599JwESIAESCDUByodQR4D1kwAJBJ0A5UPQkbNCjREQE4aUD8oOvJgwpHxQdpy03DqRSygflD0KRC6hfFB2nLTcOsoHLUeffScBEiABEgg1AcqHUEeA9ZMACQSdAOVD0JGzQo0REBOGlA/KDryYMKR8UHactNw6kUsoH5Q9CkQuoXxQdpy03DrKBy1Hn30nARIgARIINQHKh1BHgPWTAAkEnQDlQ9CRs0KNERAThpQPyg68mDCcNWcBDhw8zB8yUNwY2PHLbkyZ/jkoH9SRS2bPZS5hLlXm/yU7ftmVmUv2/absDxNbRwIkQAIkQAKFkADlQyEMKrtEAiSQN4HCIh9sX/IPHvqDP2SguDGw89c99i/5lA9556JQ/1XIB9vkLn/IQMljgPIh1Nki7/qZS5g/lJw/nNu2h/Ih7w8z/0oCJEACJEACASBA+RAAqCySBEhA2QQKi3xw/jLFx/zir8QxQPmg7FxosViQcvcuf8hA8WPgv2lpyv4wabx1zCXMo2r5v4S5ROPJit0nARIgARIICQHKh5BgZ6UkQAKhJKB2+WD7kn8nJYU/ZKD4MfDf//43lB911k0CJEACJEACJEACJEACJEACJEACJBBCApQPIYTPqkmABEJDQO3yITTUWCsJkAAJkAAJkAAJkAAJkAAJkAAJkAAJkAAJeE+A8sF7VnwnCZBAISFA+VBIAslukAAJkAAJkAAJkAAJkAAJkAAJkAAJkAAJKJYA5YNiQ8OGkQAJBIoA5UOgyLJcEiABEiABEiABEiABEiABEiABEiABEiABEsgkQPnAkUACJKA5ApQPmgs5O0wCJEACJEACJEACJEACJEACJEACJEACJBBkApQPQQbO6kiABEJPgPIh9DEo7C24e/cuzp07V9i7yf6RAAmQAAmQAAmQAAmQAAmQAAmQAAmQgEcClA8e0fAPJEAChZUA5YM6Ivu///0P169fV0djXVqZlJSEwYMHu7zKpyRAAoEiYBN+//3vfwNVPMslARIgARIgARIgARIgARIgARLwgwDlgx/QeAgJkIC6CVA+qCN+q1atwgsvvKCOxjq10jYJWqJECRgMBpw5c8bpL3xIAiQQKAITJ07E559/HqjiWS4JkAAJkAAJkAAJkAAJkAAJkIAfBCgf/IDGQ0iABNRNgPJB+fGzrXqoV68ejEYjzp8/r/wGO7XQtupBp9PZf7j6wQkMH5JAgAikpKSgePHiKF++vGZWP/zf//1fgGiyWBIggcJGwGKx4Nq1a4WtW+wPCZAACZAACZCASghQPqgkUGwmCZCAfAQoH+RjGaiSbKsexAS+mlY/iFUPou1c/RCoEcJySSCbgG3Vg/jMaWX1Q8uWLXH48OFsCHxEAiQQFAJfffWV6lY1Ll68GEOHDg0KH1ZCAiRAAiRAAiRAAq4EKB9cifA5CZBAoSdA+aDsEItVD2IyUU2rH5xXPYj2c/WDsscbW6duAmLVg/i8aWH1w7Zt2+yypWvXruoOHltPAiojYLuvTIUKFVR1TyfbqoeaNWvCZDLh0qVLKiPO5pIACZAACZAACRQGApQPhSGK7AMJkIBPBCgffMIV9Dc7r3oQE4pqWP3guupBtJ2rH4I+hFihhgg4r3oQn7nCvvrBtupB9JWrHzQ02NnVkBP48ssv7Z89Nf2/blv1IPIFVz+EfAixASRAAiRAAiSgSQKUD5oMOztNAtomQPmg3Pi7rnoQX5jVsPrB3aoH0X6uflDumGPL1EvAddWD+LwV5tUPYtWD6CtXP6h3/LLl6iIgVj2Iz54a/l8Xqx5Em7n6QV1jjq0lARIgARIggcJCgPKhsESS/SABEvCaAOWD16iC/kZ3qx7El2Ylr37wtOpBtF1NV0kGPeiskAT8JOBu1YP4zBXW1Q/Oqx5EX7n6wc8BxMNIwAcCYtWD+Nyp4f9151UPot1c/eBD0PlWEiABEiABEiABWQhQPsiCkYWQwP9v706Ao6jzNo5Pz2TCEYWAgrjIqhzBAwGJAuuiEBBQETW6sIquoqAiqAus56sCuijgAagsIOAJCLqyoouu5SoqqJzlwZ0CBSlQoLgWSJFUMvW8FWAITHqGmaRn+pgvValkenr+x+fXTCX9zL8bATcJED44s1rRVj2E/2B28uqHyZMnq3Hjxke/srKylJmZefRx2XOPPvqoM+EZFQIuFIi26iH8fuHF1Q+Rqx7Cc2X1gwsPYIbsKoHIVQ/h/3tOXv0QueohPGZWP7jq0GOwCCCAAAIIeEKA8METZWQSCCCQiADhQyJaqds31qqH8B/NTl79cKxUt27dDgUPx27jZwQQsE4g1qqH8PuF11Y/mK16CM+V1Q/WHVu0hECkQOSqh/D/OyevfjBb9RAeN6sfIivMYwQQQAABBBBIpgDhQzJ1aRsBBBwpQPjgyLLo4MGD+t///nf0q1evXqpVq9bRx2XP7d+/35mDjxgV4UMECA8RsFigsLDwuPeGc889V+3btz9uW9mnlb3yL9qqh/DJRFY/eKXSzMNpAtFWPYT/7zlx9UO0VQ/hMbP6wWlHGeNBAAEEEEDA2wKED96uL7NDAAETAcIHExQHburTp49q167twJGdeEiEDyc2Yg8ErBRo0aKFOnToYGWTjmor1qqH8AlFVj84qmQMxiMC0VY9hP/fOXH1Q6xVD+Fxs/rBIwco00AAAQQQQMAFAoQPLigSQ0QAAWsFCB+s9UxWa4QPyZKlXQS8J+D18KFspUf4a/PmzSo7gfjwww8f3Vb2XElJifcKy4wQsFlg1qxZGj9+/NGv6tWrq02bNkcflz23ePFim0d5fPfFxcXHvTdce+21qlev3nHbylab8g8BBBBAAAEEEEiFAOFDKpTpAwEEHCVA+OCockQdDOFDVBqeQACBCAGvhw/HTnfnzp2Hwoey+17wDwEEUitQtiKz7PcTN/274YYbVL9+fTcNmbEigAACCCCAgIcECB88VEymggAC8QkQPsTnZPdehA92V4D+EXCPAOGDe2rFSBFwswDhg5urx9gRQAABBBBAwA4Bwgc71OkTAQRsFSB8sJU/7s4JH+KmYkcE0l6A8CHtDwEAEEiJAOFDSpjpBAEEEEAAAQQ8JED44KFiMhUEEIhPgPAhPie79yJ8sLsC9I+AewQIH9xTK0aKgJsFCB/cXD3GjgACCCCAAAJ2CBA+2KFOnwggYKsA4YOt/HF3TvgQNxU7IpD2AoQPaX8IAIBASgQIH1LCTCcIIIAAAggg4CEBwgcPFZOpIIBAfAKED/E52b0X4YPdFaB/BNwjQPjgnloxUgTcLED44ObqMXYEEEAAAQQQsEOA8MEOdfpEAAFbBQgfbOWPu3PCh7ip2BGBtBcgfEj7QwAABFIiQPiQEmY6QQABBBBAAAEPCRA+eKiYTAUBBOITIHyIz8nuvQgf7K4A/SPgHgHCB/fUipEi4GYBwgc3V4+xI4AAAggggIAdAoQPdqjTJwII2CpA+GArf9ydEz7ETcWOCKS9AOFD2h8CACCQEgHCh5Qw0wkCCCCAAAIIeEiA8MFDxWQqCCAQnwDhQ3xOdu9F+GB3BegfAfcIED64p1aMFAE3CxA+uLl6jB0BBBBAAAEE7BAgfLBDnT4RQMBWAcIHW/nj7pzwIW4qdkQg7QUIH9L+EAAAgZQIED6khJlOEEAAAQQQQMBDAoQPHiomU0EAgfgECB/ic7J7L8IHuytA/wi4R4DwwT21YqQIuFmA8MHN1WPsCCCAAAIIIGCHAOGDHer0iQACtgoQPtjKH3fnhA9xU7EjAmkvQPiQ9ocAAAikRIDwISXMdIIAAggggAACHhIgfPBQMZkKAgjEJ0D4EJ+T3XsRPthdAfpHwD0ChA/uqRUjRcDNAoQPbq4eY0cAAQQQQAABOwQIH+xQp08EELBVgPDBVv64Oyd8iJuKHRFIewHCh7Q/BABAICUChA8pYaYTBBBAAAEEEPCQAOGDh4rJVBBAID4Bwof4nOzei/DB7grQPwLuESB8cE+tGCkCbhYgfHBz9Rg7AggggAACCNghQPhghzp9IoCArQKED7byx9054UPcVOyIQNoLED6k/SEAAAIpESB8SAkznSCAAAIIIICAhwQIHzxUTKaCAALxCRA+xOdk916ED3ZXgP4RcI8A4YN7asVIEXCzAOGDm6vH2BFAAAEEEEDADgHCBzvU6RMBBGwVIHywlT/uzgkf4qZiRwTSXoDwIe0PAQAQVN3nqwAAIABJREFUSIkA4UNKmOkEAQQQQAABBDwkQPjgoWIyFQQQiE+A8CE+J7v3InywuwL0j4B7BAgf3FMrRoqAmwUIH9xcPcaOAAIIIIAAAnYIED7YoU6fCCBgqwDhg638cXdO+BA3FTsikPYChA9pfwgAgEBKBNwYPkyZMkUPPfRQSnzoBAEEEEAAAQQQiBQgfIgU4TECCHhegPDBHSUmfHBHnRglAk4QIHxwQhUYAwLeF3Bj+OD9qjBDBBBAAAEEEHCyAOGDk6vD2BBAICkChA9JYbW8UcIHy0lpEAHPChA+eLa0TAwBRwkQPjiqHAwGAQQQQAABBFwgQPjggiIxRAQQsFaA8MFaz2S15ubwYejQoerdu3eyaGgXAQQiBAgfIkB4iAACSREgfEgKK40igAACCCCAgIcFCB88XFymhgAC5gKED+YuTtvq5vDBaZaMBwGvCxA+eL3CzA8BZwgQPjijDowCAQQQQAABBNwjQPjgnloxUgQQsEiA8MEiyCQ3Q/iQZGCaR8BDAoQPHiomU0HAwQKEDw4uDkNDAAEEEEAAAUcKED44siwMCgEEkilA+JBMXevaJnywzpKWEPC6QDqFD7t27VJ2drZGjhzp9bIyPwQcJ0D44LiSMCAEEEAAAQQQcLgA4YPDC8TwEEDAegHCB+tNk9Ei4UMyVGkTAW8KpFP44M0KMisE3CFA+OCOOjFKBBBAAAEEEHCOAOGDc2rBSBBAIEUChA8pgq5iN4QPVQTk5QikkQDhQxoVm6kiYKMA4YON+HSNAAIIIIAAAq4UIHxwZdkYNAIIVEWA8KEqeql7LeFD6qzpCQG3CxA+uL2CjB8BdwgQPrijTowSAQQQQAABBJwjQPjgnFowEgQQSJEA4UOKoKvYDeFDFQF5OQJpJED4kEbFZqoI2ChA+GAjPl0jgAACCCCAgCsFCB9cWTYGjQACVREgfKiKXupe6/jwoXS31nwyTSP/NkB9b/yTet18px4YM0OLthanDomeEEDgkIBjw4eDv2r5vOl6ZfwYPTNqrF555ytt2Beiaggg4FIBwgeXFo5hI4AAAggggIBtAoQPttHTMQII2CVA+GCXfGL9Ojl8KCqYpUHtz9BZeQP1wuzPtXTlWq1e9rlmP3eXLjv/Mv3f5zvF6cXE6s3eCFRFwHHhQ2inFk24TblnNleXfo9r7NS3NPOtVzTmwT+r/Xl/1P1zNqqkKhPmtQggYIsA4YMt7HSKAAIIIIAAAi4WIHxwcfEYOgIIVE6A8KFybql+lVPDh9D2uerXtLoa9Z6hjRXOHpZo65y+atbyES1hAUSqDxn6S2MBZ4UP+/XN8PaqU6+Lnl22r0JVSn95Uzec01NTNhNRVsBhAwIOFyB8cHiBGB4CCCCAAAIIOE6A8MFxJWFACCCQbAHCh2QLW9O+M8OHg1owJEfBzD9odEFpxERLtfH169UwaMg46Qa9fSDiaR4igEDSBJwUPhQvH6YLqwWV++TKCqsbQlve010tasnvb6A75h1MmgcNI4BAcgTsCx/2ac0HYzW4dxe1a3WOcpo1V6tL8zVo7KfaWJScudIqAggggAACCCBghQDhgxWKtIEAAq4SIHxwR7kcGT4UfaaBZwZknGwWLhzUB7fVl9/nV3aXl7Q+MptwBzujRMCVAs4JH4r0xX2NFfDX061zK4YLe17vqRqGT8ZJeRq/weFvEoU/a+nyX8R5TVf+l2DQSRKwJXwo/FGTe+fo1Jx8jZi9WL/sL3vvKNKOVR9rXN9c5Vz5klax2jJJFadZBBBAAAEEEKiqAOFDVQV5PQIIuE6A8MEdJXNk+LD3NV1dzZDPX1cdRyzQjohzh6XblmnuO59o9Z5Yl1M5qLX/ek6jZv0oFke441hklM4XcEz4ENqmiV0z5fNl6OybZ2tT5KXZ9izXzDHPaMoXWyqsijhWObRrlb5csE57Y72VHPuCY38+sF3bq3JT69LdWvPxWN3WKlvB87mE3LG0/IxAysOH0E592L+xqjXspRm/RPzSISm0+2s9clFD9fnnXoqDAAIIIIAAAgg4UoDwwZFlYVAIIJBMAcKHZOpa17Yjw4eiL3Rf44B8Pp98RkAnn9lWV982RCMnz9G3m+KLEkKbJ+vK2oaCLf5PyyJPTFrHR0sIpJWAY8IHFer9v5wq/5H3iNpNO+nG+0bo5Zmf6odfK66EMC1SaLve7lVf/mCuRqxI9E2iWAuHNNeZd32S4IqFQn067Cp1at9a51/QVl2vyFX9gE8Z5z2sxXyi2rRMbExPgVSHDyXLn1CrYFAtH1teMbDc9ZHuyakuwxfUH5/dkJ4FYdYIIIAAAggg4HgBwgfHl4gBIoCA1QKED1aLJqc9R4YPKtHaiVfqtIBxOIAoO8F45MsI1le7QbO0/gTXKNk9PV+1Db/q3/o+Kx+Sc+jQahoKOCd8kAq/eUxtskzeIzLqquWNY/XNrhMsZ9g7S72y/fKferPe259oMYv0nzvPUL1b/qU4o44jHYS0s+A7/Vjwmw6EpJLvh6l1kPAhUX32975AasOHEi199HwFfdXU49WKKxuKv7xfTTJ8MjIa6975J/jlw9bS7NeGrz/S3Lnv6/33y77m6sMv12lftDGFdmnV/I/0n8+/0rfLvtN3yxZp4Rf/1cfzV2rnCd4+ozXJdgQQQAABBBCwT4DwwT57ekYAAZsECB9sgk+wW2eGD2WTKNSGeWPUr3OO6mYaMo4JIHxGdbV84Kvof1Cr7MRgQwWMLF05ZZv4GzrBg4LdEYgi4KTwQQpp+zeTdG/35soORoYQfp3S9SWtibGgoeizgTozYKhm98n6LeE3icqGD8fDEj4c78EjBMICqQ0fCjXz+iwZvoAaXDdNGyLfN4o36N/PD9Pod36M8XtHeOQ2fi9ZrpdvvVKdO+Sqad3god+bjOB5eujbKIFJ0UKNzu+kVg1rHP4dywiqbtOL1fnGcVrKSiwbC0nXCCCAAAIIVE6A8KFybrwKAQRcLED44I7iOTd8KPcLFf6qFZ/P1JiBVyjnZP+hVRBGrZ56dVuUM4Yly/XYBUH5gm319NqK124ub5mfEEAgEQFnhQ/lIy/Z87OWfjxdzw3OV5vTDp908/lP1+0fRrtMW4l+HN5GQV9QF/99tRJ/lyB8KNfnJwSsF0ht+HDkAwuHLuMWVL0L83X/qGn64NsN2h0ZRMSY6r6vn1ffmx/XB5uj/G4S47Uq+kHTR83USitO+oc266XO9ZSdnSHD59dpN72rXTH6Dm1/TT1r19YfRyzSnhj78RQCCCCAAAIIOFuA8MHZ9WF0CCCQBAHChySgJqFJZ4UPB7Thi7f1xpxl2h7lbODeBX/TBZmGfMEWenRp+VmBku8nqu/V3dW9Wzd1u7y1Ts8wZAQbqs3l3dStW3dddfP4JOjRJALpJeCE8KH41+X6+IMvtT7KpZJKt7yrW84su2dMUH8Yvb48WCgt0D+H36d7BgzQgAH91b1pUIZRQ+f0uEsDBgzQPfcO13vro7zxVCgz4UMFEjYgYKFAasMH6cBng9S0wgoqQ5mnnK+eD7+rtSe6vlroF/2ja5aMjGYavCDxBKG0YJTaZ12msZsqEVxEuu//p/qcla/nX7hStQ2fjJod9UKM97bQtsm6stEtmhP1+kyRHfAYAQQQQAABBJwoQPjgxKowJgQQSKoA4UNSeS1r3DnhQ4nWjO+sOn6ffP5s/entKJ+/K16kB8/NkFGjmyb+eswf6YVbtWrZEi1evFifj+ikGoZfda8Zp4WLF2vx4iVavm67ZWY0hEC6CtgdPpSun6we9QOHPs3boO+HUe7nUqT/DmikgFFL+dN3l5cqtE3L5r6tGdOna/qUgbqomiF/nc565PXpmj59hmbM/lSr9x7znlL+SpOfCB9MUNiEgGUCqQ4fpH1aNqGPLqhTtlqg/D5Th+43ZWSo4Z/e0qZY2eS+2epddg+ZOr01uxIn8UvXPK22WR303E+xOomPt3jhEJ1/2bPasOcj9f99WRCboZwhC6Pen+bgv+9Q4x5TFG0xaXy9shcCCCCAAAII2C1A+GB3BegfAQRSLkD4kHLySnXomPChZIWGtwkevrF0oJHu/iTKxwz3vac+9QKq1W2izD8gGD7xWEPdJv3G/R4qdVTwIgTMBewNH0q08slcBQ+dGAzorIGfy/xK5rs14/psBepcpzei3MyhaP4gnR0wVKPbJB2bYZrP2mwr4YOZCtsQsEog9eHD4ZGX7lqpeVOf0dDbeuiiRlnyG0eCiMDvdNvcijejDs+3+Ku/qmmGoWqdxkX53SS8p/l368KHUv30XEedN2ShilWiH0fkKtPwyV+vl2buMAtXS7T8sTZqO2KFyteSmo+RrQgggAACCCDgbAHCB2fXh9EhgEASBAgfkoCahCYdEz6UrtOo9jX1u9xrNeClr2X6N7JKtHZcnrJrtNYjX0e5lnvJ9xrWuux+DxfpqVVV/wRhEshpEgHXCtgbPpRqzdNtlXV6K3W/4wUt2G52Ik0qXjlaHU4+SW1HLIvySd8SrThyv4fcp1ZV8oQb4YNrD2IG7goBu8KH43BKdmj5a/3UIqvshvYBnT1ofpTAs1TrR/9BQV+Gzn1osRK/6JJkXfiwRzNuOEs3vnv4unShra+qZ7ZfPqOG/jhmbfll6MITDW3VhG7NdPen5lFueDe+I4AAAggggIDzBQgfnF8jRogAAhYLED5YDJqk5hwTPqhUP73SU807P6WFO8xCg31a+cYdapHdWL2mrYlyAkAKbX5ZnasbCpx9r77gb+kkHTU0m64C9oYPUmnBBF1xzhV6dvFuk1VNIe35YapuOaeOcm6ZrvXRzgCGtmhCl+oyAo11X7Q3iZKVeuWO7srr1FEdO5p9XabWDasr2OACXWb6fEd17JSnbn0naUWMjxOXfD9MrYM+ZZz3sBZHG2+6HmzMO60FUhI+hLbpi9G3KO+Srrp31k8VT8wfqsBBzb+3sQK+gBr2/7j8d4/Sn/XhmIc0ZMhgDR58n/Jb1JRhBNXsqkEaPHiwhvztcU3/If5fQiwLH4o+18Cczhr/SzicPaBPB5ytgM+njKb3an5hxGF1YI5uOStfb8S6I3XES3iIAAIIIIAAAs4UIHxwZl0YFQIIJFGA8CGJuBY27ZzwQVJoj5ZMvF3tc1qq662DNWzMOI1//mk9MbSvrrywsXI63q2J326PcoLgMMre2b1Vx+9X3RvfVSUuu2yhLE0h4D0Bu8MHKaRd376ov7RrrtZX9NXQ4c9q/PjnNfKJIbqteyudndNZg6Yu1c7weTezEuydrd51/PLXvUlHPhxcca/Qdn392ig9OWK4hg83+3pCfS/OVtaFN+sJ0+eHa/iIJ/XMtAWKcuWnQ30SPlSkZwsCZQKpCB/2f3ynfh84fFmlzLyXtMX0fSOkTeM6KtOooS4TtpSHnqWb9N9Jz2r0qFEa9ffblZtlyMi8QDc9OUqjRo3S6Ocm6dOfzT5IYV5fq8KH0tUj9YdWx4eZJaueVrtqhnz+usp/8/jLURZ/+4Au6DBK6+IfqvkE2IoAAggggAACtgsQPtheAgaAAAKpFiB8SLV45fpzVPgQnkLxDq35aq5mvjpZEydN1Vvvfaplm/aV/9Ef3q/C9yJ9PvBMBYzqunzC1jj2r9AAGxBAIIaA/eFDeHBF2r7qS82dMU2TJk7WtOlz9Nl3m3XA9ORh+DWHvxd9PlBnlt3voevESt7voawdLrt0vCqPELBWIBXhw/dPtDp8Dxmjulo/sTTKJdj26l9/aaBAdg9N3Wr+BlO66ildFPQp2OpxfRdjpVMsIavCh52vXqOzb31fxy1wCG3Tm/l15fcZqtZ2pFYdHWNIG8fm6Zz7v6zUpaJizYfnEEAAAQQQQCD1AoQPqTenRwQQsFmA8MHmAsTZvSPDhzjHXmG3klV6Krfsfg9tNPzHo39dq3TTG7q9/xsVdmcDAggkJuCc8CGxcZfvXaIVI8puWh1U7pMry082lm7UG3cP1Zzd5XvG/onwIbYPzyJQNYFUhA9b/nG5ajftoQcmfKbNUS57VrxilDrUytJFw6PdQ0baMa2Hsgy/Tr9jXpT7zJzYwprw4aA+7t9EV0z8tcKHLwrn36emGT75AmdpwKfhe2bt06zeZ6n3LNaJnrhC7IEAAggggIDzBQgfnF8jRogAAhYLED5YDJqk5jwVPuybofyTDQUa9tfHRy+1vEvz7sxVz1c2JkmQZhFIHwH3hw979dZ1J8kInHHMDVZD2vlBP+X+6U1F+WCzSYGtCh+eUCvu+WDiy6Z0F0hF+BDaPkd9z71Qd71ToPDp+HL3kHYueVm9mtZSkz5vaUP55xnKdzn000HN63e6/EZNXTV1e4WT/uGdDxR8ppmvTdPUqVNNv6Y8/Sc1qZajG8dMMX2+7HXTXp+tBRuP/nITbrr8e8n3Gpabq2Hfmwy2dK3G/LGGDJ9f2T2nHX6vK/5K95+bp7EbzVd0lDfMTwgggAACCCDgBgHCBzdUiTEigIClAoQPlnImrTFPhQ8H/qVbTvUr2HqYfjj0t/cBrZiYr4tveFUbuJ5x0o4hGk4fAfeHD/v0zp/ryB/M1ZMrD5+gO7DiH8pv10czNiXyJmFF+BDSzvf7qlHAp8Dv+uid7Yn0nz7HHDNNT4FUhA9lsoWrZ2jQZU3UuG2++j8wXM+MHqlhDw3UTXnN9bszL1G/CYu0I9a5+ZLleqxl2YrL8veUihUr0bInL1G9WicpKyvL/KtmpgJGQJk1ozyflaWTajVQ17FrKzZ/ZEvo14m6onE/fXTQbJeQdszspXp+n4zMXI34oUSlBaN1acsH9W2UVR9mrbANAQQQQAABBJwrQPjg3NowMgQQSJIA4UOSYC1u1lPhg0pU8Potal63ma6+f6j69bxUef1f1Yr9FqPRHAJpKuD+8EEqXjNVf25WV83zh+rBO69Vx8sH6K3Vx10hPY7qVjZ8KNH3o7oqp1mOmp3dUPXqnqJTTq2nU0+pq7qnNtRZTZupabNOenIJZwPjKAK7eFggVeHDYcJi7Vj9hd57faJeHDdOL0+ZoQ+/LtBukwUEkeShrRPUpbqhQKMB+m+MRQmRr4t8bMVllwrfv1Vn9XxVOyIbDz8+uFBDcjLk8wXUqN88/fJmvs7+y79MVn2EX8B3BBBAAAEEEHCTAOGDm6rFWBFAwBIBwgdLGJPeiLfCh8NcxTsKtGThN1qx5UDUSyAkHZYOEPCggBfCh0NlKdqhgiUL9c2KrZU88VbZ8MGDBwVTQiAJAqkNHyo/gQNzbtYpfkMnX/emjr1lTPHObdoVR3gR7rnq4UOxFj/USu3/vlrR11CVav0LHVXT8Mmo3UW35jdVtwlb+T0pXAS+I4AAAggg4HIBwgeXF5DhI4BA4gKED4mb2fEKL4YPdjjSJwLpIOCZ8KHKxSJ8qDIhDSAQQ8Ad4UOxljxyvjJ8QbUfta78pH/JKj3TqYvGrIseA0ROvcrhQ2iTxnfO0T2fnWD5xa53ddNpfvkMQ0awpR7/LoGEJHLQPEYAAQQQQAABRwkQPjiqHAwGAQRSIUD4kArlqvdB+FB1Q1pAIF0ECB/ClS7RyheuUfenl4lTd2ETviNgnYA7wod9mp6fJSPQUHf+J3zSP6StM/+sC298W7/FuldEBFVVw4fQjjd03ek99dqxyy8i+jj8sEjfPniugoZP/tPv0DzT+0OYvpCNCCCAAAIIIOBwAcIHhxeI4SGAgPUChA/WmyajRcKHZKjSJgLeFCB88GZdmRUCThNwR/hQpE/uOkOBjHP0wKG7Noe0Z/Fodc/to5m/xL/qocy+8uFDSPs3faWXezVRMPNC/W3+bzrRHWNKf3pRnU/yK+uqqdqeQEDitGOE8SCAAAIIIIDA8QKED8d78AgBBNJAgPDBHUUmfHBHnRglAk4QIHxwQhUYAwLeF3BH+CCV/jRT/VrUVaO8frrn5i666NJ+em3lgYQLVKnwofhrPXxBLdXIqqU6p56m006to1o1q6lGw9v03t5YQ9ijf/fP0WWj15ZfKirW7jyHAAIIIIAAAq4QIHxwRZkYJAIIWClA+GClZvLaInxIni0tI+A1AcIHr1WU+SDgTAG3hA+H9Ip3qmDxl/rqu03aV8mVBJUKH5xZOkaFAAIIIIAAAjYJED7YBE+3CCBgnwDhg332ifRM+JCIFvsikN4ChA/pXX9mj0CqBFwVPliAQvhgASJNIIAAAgggkOYChA9pfgAwfQTSUYDwwR1VJ3xwR50YJQJOECB8cEIVGAMC3hdIt/AhtPkl5WVfoVe2VXLphPcPCWaIAAIIIIAAAicQIHw4ARBPI4CA9wQIH9xRU8IHd9SJUSLgBAHCBydUgTEg4H2BdAsfpGLt2rb7hDeL9n7lmSECCCCAAAIIVFaA8KGycrwOAQRcK0D44I7SET64o06MEgEnCBA+OKEKjAEB7wukX/jg/ZoyQwQQQAABBBBIrgDhQ3J9aR0BBBwoQPjgwKKYDInwwQSFTQggYCpA+GDKwkYEELBYgPDBYlCaQwABBBBAAAHPCxA+eL7ETBABBCIFCB8iRZz5mPDBmXVhVAg4UYDwwYlVYUwIeE+A8MF7NWVGCCCAAAIIIJBcAcKH5PrSOgIIOFCA8MGBRTEZEuGDCQqbEEDAVIDwwZSFjQggYLEA4YPFoDSHAAIIIIAAAp4XIHzwfImZIAIIRAoQPkSKOPMx4YMz68KoEHCiAOGDE6vCmBDwngDhg/dqyowQQAABBBBAILkChA/J9aV1BBBwoADhgwOLYjIkwgcTFDYhgICpAOGDKQsbEUDAYgHCB4tBaQ4BBBBAAAEEPC9A+OD5EjNBBBCIFCB8iBRx5mPCB2fWhVEh4EQBwgcnVoUxIeA9AcIH79WUGSGAAAIIIIBAcgUIH5LrS+sIIOBAAcIHBxbFZEiEDyYobEIAAVMBwgdTFjYigIDFAoQPFoPSHAIIIIAAAgh4XoDwwfMlZoIIIBApQPgQKeLMx4QPzqwLo0LAiQKED06sCmNCwHsChA/eqykzQgABBBBAAIHkChA+JNeX1hFAwIEChA8OLIrJkAgfTFDYhAACpgKED6YsbEQAAYsFCB8sBqU5BBBAAAEEEPC8AOGD50vMBBFAIFKA8CFSxJmPCR+cWRdGhYATBQgfnFgVxoSA9wQIH7xXU2aEAAIIIIAAAskVIHxIri+tI4CAAwUIHxxYFJMhET6YoLAJAQRMBQgfTFnYiAACFgsQPlgMSnMIIIAAAggg4HkBwgfPl5gJIoBApADhQ6SIMx8TPjizLowKAScKED44sSqMCQHvCRA+eK+mzAgBBBBAAAEEkitA+JBcX1pHAAEHChA+OLAoJkMifDBBYRMCCJgKED6YsrARAQQsFiB8sBiU5hBAAAEEEEDA8wKED54vMRNEAIFIAcKHSBFnPiZ8cGZdGBUCThQgfHBiVRgTAt4TIHzwXk2ZEQIIIIAAAggkV4DwIbm+tI4AAg4UIHxwYFFMhkT4YILCJgQQMBUgfDBlYSMCCFgsQPhgMSjNIYAAAggggIDnBQgfPF9iJogAApEC4fBh9erVuv322/lyqEHbtm3VuHFj6uPQ+vB/h/cOJx0D5513nlq2bMn7Be8XHAMcA0k9BoLBoNq1axf5qyWPEUAAAQQQQAABBKIIED5EgWEzAgh4VyAcPsyfP1/VqlXjCwOOAY4BjgGOAY4BjgGOAY6BEx4DPp9PTZo08e4vycwMAQQQQAABBBCwWIDwwWJQmkMAAecLhMMH54+UESKAAAIIIIAAAgg4RYDLLjmlEowDAQQQQAABBNwiQPjglkoxTgQQsEygoKBAmzdvtqw9GkIAAQQQQAABBBDwvsDevXtVWFjo/YkyQwQQQAABBBBAwCIBwgeLIGkGAQQQQAABBBBAAAEEEEAAAQQQQAABBBBAAAEEDgsQPnAkIIAAAggggAACCCCAAAIIIIAAAggggAACCCCAgKUChA+WctIYAggggAACCCCAAAIIIIAAAggggAACCCCAAAIIED5wDCCAAAIIIIAAAggggAACCCCAAAIIIIAAAggggIClAoQPlnLSGAIIIIAAAggggAACCCCAAAIIIIAAAggggAACCBA+cAwggAACCCCAAAIIIIAAAggggAACCCCAAAIIIICApQKED5Zy0hgCCCCAAAIIIIAAAggggAACCCCAAAIIIIAAAggQPnAMIIAAAggggAACnhMo1t6t67Xu5506GPLc5JgQAggggAACCCCAAAIIIICACwQIH1xQJIaIAAIIIIAAAgjEI1D620JNGnyd2jTO0R+uu039b89Xl7wbNerL7SrduUSvj3hML362VeQR8WiyDwIIIIAAAggggAACCCCAQFUECB+qosdrEUAAAQQQQAABRwiUaOOcIbrktKBq596rfxYUHh1V6NcPdFe7PPW64gwFfIZq9HhVu48+yw8IIIAAAggggAACCCCAAAIIJEeA8CE5rrSKAAIIIIAAAgikSKBY617rrcaZhjKbD9BH2yPXNYS0Y/r1quv3yecLqs3wH1WSopHRDQIIIIAAAggggAACCCCAQPoKED6kb+2ZOQIIIIAAAgh4QGDfwkeVm2XIl9FMgz7bZzqjkmWP6YKgT76MpvrrV8Wm+7ARAQQQQAABBBBAAAEEEEAAASsFCB+s1KQtBBBAAAEEEEAglQIHF+vRlpkyyi6ndOlzWldq1nlIv7yYp+qGT/4GffVB+RWZynfe+1/99fxaqnftNG2JXDhRvhc/IYAAAggggAACCCCAAAIIIBC3AOFD3FTsiAACCCCAAAIIOEkgpC1Tr1adssspGTXVdeKWKDeS3qk3r6t1KKConf+WdplMYe/s3qrj96v+re/rgMnzbEIAAQQQQAABBBBAAAEEEEAgUQHCh0TF2B8BBBBAAAEEEHCCQOnPGtepugyfT0aNPL20KcqShQNzddtpfvmM6sp7abNJQHFQ/7mzoQJHKEUfAAAGtElEQVRGLV37xk4nzIwxIIAAAggggAACCCCAAAIIeECA8MEDRWQKCCCAAAIIIJCGAvtm6PqTDfl8PgVzn9TKKHeRLv7yPjUO+OQL5uqpVSY7FS/Sg+dkyKiepxd/iRJgpCEvU0YAAQQQQAABBBBAAAEEEKiaAOFD1fx4NQIIIIAAAgggYItA6dpn1K7sJtK+gBrd/amKTEdRou+HtVbQ51NGzlB9feRe0yXfTVK/66/VNddco2uuaqMGAZ+MrCbq0PMaXXPttbph6CzT1tiIAAIIIIAAAggggAACCCCAQLwChA/xSrEfAggggAACCCDgIIHSn55Th0PhQ6Y6v7zV5HJKkkp/0vOXlt2Q2q/f3TFPR+81XbxbWzasV0HBOi0Y1k6ZRoaa3Pme1hQUqGD9em3cfnRPB82YoSCAAAIIIIAAAggggAACCLhJgPDBTdVirAgggAACCCCAQFig8N+64/TD93Lo+fq+8Nbjvh9c9oTaZBryGdm6Ycbu4547/GC3pudny/A30O0fEjiYALEJAQQQQAABBBBAAAEEEECgkgKED5WE42UIIIAAAggggIC9Avv12cAmyvBl6PxHlijybg7FG2bq1pzwDakv1z+2mNzPofBD3d7ALyM7X9PNsgl7J0jvCCCAAAIIIIAAAggggAACLhYgfHBx8Rg6AggggAACCKS3QGjHR7r/gixlNLpRMzcdiR9Ce7Tqn/+nnh16Kv+SOvKX3ZC67UitKa1oVbzgr2qaYahGlwkyyyYqvoItCCCAAAIIIIAAAggggAACCMQnQPgQnxN7IYAAAggggAACjhQI7VysV/6ar44dOqlb98uVd+nl6jNspr7btkSPtgjK58vQOQ8u0pF7TR8zhxL9OLyNgr6gLh65RibZxDH78iMCCCCAAAIIIIAAAggggAACiQkQPiTmxd4IIIAAAggggIArBErXj9ElZfd7CDRU//8crDjm0CaN61RNRsa5enDRMdHEnkWa8e4PFfdnCwIIIIAAAggggAACCCCAAAIJCBA+JIDFrggggAACCCCAgDsEQvp1cnfVNHzy1+mlWXtNRr1vlnplGwo07KePjmYTB7TggfbqPm6dyQvYhAACCCCAAAIIIIAAAggggED8AoQP8VuxJwIIIIAAAggg4BCBYm1fvVSrth2zYuHYkYV+1bSrs+X3+VUn/y3tMLnXtHa+pp4nGQpeMkbrD11zqVg/zeyrDvmTtCZKs8d2wc8IIIAAAggggAACCCCAAAIIxBIgfIilw3MIIIAAAggggIDTBErW6B/XnKHqhqGM39+tT46uWggPNKRdH9+tZkFDxsnt9dTyovATEd8PaPnYnjq7fhv95Ylhuv+mK9Tjnte1Yn/EbjxEAAEEEEAAAQQQQAABBBBAoBIChA+VQOMlCCCAAAIIIICAXQKla0bq4qBPPp+h4DkP6OvjVimEtHvRGHVtEJC/Vivd/d6mE95IunjXT/p+6XdavyNaSGHXTOkXAQQQQAABBBBAAAEEEEDAzQKED26uHmNHAAEEEEAAgfQTOLBQj+fWUuDkc3XzC/O06IfVWrNyuRbMe0PP3Jmn359UR817PKiZK8xu9JB+XMwYAQQQQAABBBBAAAEEEEDAHgHCB3vc6RUBBBBAAAEEEKi8QNFWLX1/ip4b/rAGDxqgu+4epCEPD9fz0+bq2437ZXaLh8p3xisRQAABBBBAAAEEEEAAAQQQSFyA8CFxM16BAAIIIIAAAggggAACCCCAAAIIIIAAAggggAACMQQIH2Lg8BQCCCCAAAIIIIAAAggggAACCCCAAAIIIIAAAggkLkD4kLgZr0AAAQQQQAABBBBAAAEEEEAAAQQQQAABBBBAAIEYAoQPMXB4CgEEEEAAAQQQQAABBBBAAAEEEEAAAQQQQAABBBIXIHxI3IxXIIAAAggggAACCCCAAAIIIIAAAggggAACCCCAQAwBwocYODyFAAIIIIAAAggggAACCCCAAAIIIIAAAggggAACiQsQPiRuxisQQAABBBBAAAEEEEAAAQQQQAABBBBAAAEEEEAghgDhQwwcnkIAAQQQQAABBBBAAAEEEEAAAQQQQAABBBBAAIHEBQgfEjfjFQgggAACCCCAAAIIIIAAAggggAACCCCAAAIIIBBDgPAhBg5PIYAAAggggAACCCCAAAIIIIAAAggggAACCCCAQOIChA+Jm/EKBBBAAAEEEEAAAQQQQAABBBBAAAEEEEAAAQQQiCFA+BADh6cQQAABBBBAAAEEEEAAAQQQQAABBBBAAAEEEEAgcYH/B0sG4pQO5ZUJAAAAAElFTkSuQmCC;" parent="1" vertex="1">
          <mxGeometry x="30" y="840" width="1567" height="650" as="geometry" />
        </mxCell>
        <mxCell id="EAB-HPIiQFBKxoSY5FRi-34" value="&lt;span style=&quot;font-size: 28px&quot;&gt;&lt;b&gt;元控制器&lt;/b&gt;&lt;/span&gt;" style="rounded=0;whiteSpace=wrap;html=1;strokeColor=none;fillColor=#CCE5FF;" parent="1" vertex="1">
          <mxGeometry x="160" y="1050" width="170" height="90" as="geometry" />
        </mxCell>
        <mxCell id="EAB-HPIiQFBKxoSY5FRi-35" value="&lt;span style=&quot;font-size: 28px&quot;&gt;&lt;b&gt;元控制器&lt;/b&gt;&lt;/span&gt;" style="rounded=0;whiteSpace=wrap;html=1;strokeColor=none;fillColor=#CCE5FF;" parent="1" vertex="1">
          <mxGeometry x="1254" y="1030" width="170" height="90" as="geometry" />
        </mxCell>
        <mxCell id="EAB-HPIiQFBKxoSY5FRi-36" value="&lt;font size=&quot;1&quot;&gt;&lt;b style=&quot;font-size: 28px&quot;&gt;控制器&lt;/b&gt;&lt;/font&gt;" style="rounded=0;whiteSpace=wrap;html=1;fillColor=#CCE5FF;strokeColor=none;" parent="1" vertex="1">
          <mxGeometry x="945" y="1290" width="175" height="60" as="geometry" />
        </mxCell>
        <mxCell id="EAB-HPIiQFBKxoSY5FRi-39" value="&lt;font size=&quot;1&quot;&gt;&lt;b style=&quot;font-size: 28px&quot;&gt;控制器&lt;/b&gt;&lt;/font&gt;" style="rounded=0;whiteSpace=wrap;html=1;fillColor=#CCE5FF;strokeColor=none;" parent="1" vertex="1">
          <mxGeometry x="670" y="1290" width="175" height="60" as="geometry" />
        </mxCell>
        <mxCell id="EAB-HPIiQFBKxoSY5FRi-40" value="&lt;font size=&quot;1&quot;&gt;&lt;b style=&quot;font-size: 28px&quot;&gt;控制器&lt;/b&gt;&lt;/font&gt;" style="rounded=0;whiteSpace=wrap;html=1;fillColor=#CCE5FF;strokeColor=none;" parent="1" vertex="1">
          <mxGeometry x="395" y="1290" width="175" height="60" as="geometry" />
        </mxCell>
        <mxCell id="pBEC-gwe8kXw7ee0-Y7N-2" value="&lt;span style=&quot;font-size: 20px&quot;&gt;&lt;b&gt;Controller&lt;/b&gt;&lt;/span&gt;" style="rounded=0;whiteSpace=wrap;html=1;fillColor=#CCE5FF;strokeColor=none;" parent="1" vertex="1">
          <mxGeometry x="1004" y="686" width="120" height="47" as="geometry" />
        </mxCell>
        <mxCell id="pBEC-gwe8kXw7ee0-Y7N-3" value="" style="shape=image;verticalLabelPosition=bottom;labelBackgroundColor=#ffffff;verticalAlign=top;aspect=fixed;imageAspect=0;image=data:image/png,iVBORw0KGgoAAAANSUhEUgAAADgAAAAiCAYAAAAKyxrjAAADuklEQVRYCe2XbUxbZRTH99VPfjExJouLyjASXTRFtyF7YYDZontB3GjALBI2EiNDDJbEjShEF9RJpkRDu2VuoOOlmYNNGItuKyOCY4ArODag1jHHW2fX8tJS2nvv8zMlpt8Ig9wbUtKb3OTcnOc+Ob/zP/c5565gmV8rljkfEcBwVziiYETBeTMgEIqCLEtIUvCWUYLPijxry4pAzLvH4hdoXqJCeJkYsdHf2coVy1War3djGx5gwHaD9t876Rz04JmRF08wz5vaAQoFIfmYcnbRYjSQl7iGx1etZtWmdD4yfkBu7lZeiklgc2k/t0d984S5eLc2gEJG8TiY6KqnLDONfSnvkVdcSY3lEpd/Oo4pV8/2F6JY+Xwy+hovNmdYKShQpGGGeswYM3bwWsI75H1SxRXrKG7Jj3/0Fg2GFHZFP0NU/Lt8ZQMNBVS/0Qsh4Rr8hcav9ax75Fm2FJzmjHU0VGOy30vz52+SvmE9r7xtogPwhLzqG6qXqCKNYzV/RkHcEzz65AHKrtsZDMWtIM3cp6l4J2mpu9lW0hryaGWoDCgjTbfyc2kWO1bH8nJhG+13JwnMRi9ATOBzn+XInniSE7PJqrRrxRXaV11AJYC/5wTlOXp0sdkc7nVxb/r/A0TI+N136KvORL9WR0L6pxzt8oYC0cpQFVBIMzgbiyl+63We2/gx5oCMExCzp+oIzp5aTmTFoHt6LVvfP0a9U0HRssuDuoeMIs1gr8nHsC2O6FcNnHRLjEkC3/gYw73NWKqLyE98jOjoN0g7WEHL/SFGpyCgXZdQFzCo4ODZQxzaqSNKp+dgi4Puey76rjVRdeoHDhSfx7hnJetSc8gsLKf1gpmGfnB7AsxM+/H5JNUrVdUSRch4He1c+CaHjBefIiYuiU0ZBRhOXqT+ph1rRxNlKdGsT9jILkM5dc0OHrgncf5poeZ4I9W13fgVVJ1N1QUkOFhPMHK7DcuP5RiNJkxVDTRaB7FP+fBN3OHG+Qpqzac5d7Wbvr4hfNeOUZKrJ3lzBnvzT/Hbv6DmaKoy4AIqTAgY/wdPy1Gyk9YQv2U3+0vPYXEsF8DZXATwe4Y482EW31XW8atjAQl6yKVLp2DwS1PGmHbVUri3hO9r27mrwWm6dIDB36kHvbgv5rB937eYGm7h0aAnLhmgUGSm/mqjoyiWpP2H+bLuJiOTD1l3C1i2hIAKrr//wPJFKkVHjFRcHmAgOPaofC0ZoMocc24XAZwzNWHiiCgYJkLNGWZEwTlTEyaOZa/gf/203JNWz6Z2AAAAAElFTkSuQmCC;" parent="1" vertex="1">
          <mxGeometry x="892.0033699544272" y="267.99513147989916" width="56" height="34" as="geometry" />
        </mxCell>
        <mxCell id="pBEC-gwe8kXw7ee0-Y7N-4" value="" style="shape=image;verticalLabelPosition=bottom;labelBackgroundColor=#ffffff;verticalAlign=top;aspect=fixed;imageAspect=0;image=data:image/png,iVBORw0KGgoAAAANSUhEUgAAACEAAAAfCAYAAABplKSyAAADC0lEQVRYCe2WyWtTURSH/Q9cuNGNG4eNGxXBheJAF051rEOlgnOlglAHqlZFo4i14kSplVaqHXBC0FAF22oNopLiQEvEYm1N0lk0Q2PyXl7eu/eTCHmrqC8hSpG+zT2cdzjnO797DtwxjIBvzAhgYBQicQujSvwvSkiEFkEJBfD5A/iHFaJaFE3T0TSRaNLSmeZMxAHCeJrKKN+/jqzsTazYXU3DYzuNjW946vhiqXgiKD0IQyXW00Tdwc1sydlArq2CC9fvUm0r4ExpPdeehBL5LZ1pQEiIBlFenaIwewmL805T1aUSjnziYfEGTpZUUtlmqbYZlB6E6kdpPsbupQuZs/Yw55x+gqqK+0EFj5pbeDxg5rdkpAEByCgxv5ObB3NYPjuLufk1OAMK/uEA4YhCRLdU2wxKDwKB0H14Wi5TunMJM2etYVvNe1wDEYQ0c1s2UoaQUiIMAyENjG/tvL11jKKV85i09CRXHW56IpZrm4GpQUiJGggw4HIxqKooQsfoaeH1lTwmjZ1G7sVnNHk0M7lVIyUIYcTocb7k5vat3Or28lnXEbEPdDy3sX7sOOYX1FPr9FmtbcalABG/hiE+Oqo5kzWdootNPG/rI+hx8Kq+kAUTZlNQ8QJHX2IqJQgdLaoTixlmwWRGChACITpxu+5QVXyCG7ZSLhUd5uiu7eRv3sqqPWXce9PLoBLfHoFUvxN2v6XR3sqLlx6M3wxsShBS9uHzuXjX2k13Qw11tkMcyN9L4dFyKlu99A+rICXy+yChdjt1JfvIyyniyNlHdIZ+/komxF94WUkD2f8Ob90u5kwdz8TJ81hbXIO9l1+ubwpKJG0iqVPqCkFPGzd2LuN01V0edIVRjH+pBBIphvjqbeBE7iFqG17zSU3Kajozr4QUCH873pbjZG8s5/bTTkK/Gco4ScYhpNAJdzTjLFnEjG1lXHvSTTBqNp3UyDiEMHR6nfep3TGF1QU2zts7eP+HN07GIeIrqoUDfHO76PL0MxRQUWJJBTCdmYcwU1s3RiESWo0IJX4Aw4Bj8NoENQ4AAAAASUVORK5CYII=;" parent="1" vertex="1">
          <mxGeometry x="1178.5000366210938" y="267.99846481323243" width="33" height="31" as="geometry" />
        </mxCell>
        <mxCell id="pBEC-gwe8kXw7ee0-Y7N-5" value="" style="shape=image;verticalLabelPosition=bottom;labelBackgroundColor=#ffffff;verticalAlign=top;aspect=fixed;imageAspect=0;image=data:image/png,iVBORw0KGgoAAAANSUhEUgAAADoAAAArCAYAAAApMZsWAAAGrUlEQVRoBe2ZfVCVVR7Hm+mPNTAzXxrRnDWUzVxhs9KZRUc3zbZMrbjmgE3SKL4BkibutpitKTfJlVpfWyoGFlZdQSpZTTHAUDEDU3AEVAYuIOAFuZeX+/q8fnYeWlZkReQWCC7PzDPnOW/3dz7P93ee8zvn3ldWVobT6eRev+7rA73HJO5T9B4TlD5F+xTtpW+gz3XvSDhVRVVkZFlCFAUEQUSSFRS1pbeKIktIglYnIEoK6n/rWtp0T+q6ooqC0thAXVUpBQWnOX78EIePZHHmSg3Vdm3wIopcR9XlHLKPHCT1izQyciqxOcTuIWtjxSVQRXLivG6gMjuDQ4nRvPPOPJ6bOQ7viQEEx2aTWSMhOq5hLD5IQuRCdBM88XrUl2eXfomhxoLcZhDdke08qKrgqCnmUswC1r45kcmTRjFy+MO4DxjEwAlvE5WaR6nNSNkPSXzk58MUryEMdu/HLwY9iefcTzhV3YClO8ja2Og8KCqyvQFzwTd8l5HEgY+CWTVrDPe7DcXzjXj2nDRQnJvNoZ3RfBCTSFTQVKY9/jD3j/DFK+gABTUW7obzugB641WpkpOqtGg+nu9Fv8HjmfPxKVKPnCQ75QDxe46RXm6l8B+hBD/vzfBJCwiIv4SxUbjxA9349BNAVWShmhO7Q1nsPZSBo/x4P+ko+z6LITnpXxytBlkUEXLj+Nt74Sxd9ylfXAWr1I10rUz9BFAJ0XKE+LVzmTRwLI/4RrBv2xI+3JXEnoxryCo/LiWKjCRKiJJ8o6zVALrr0XVQ2Yn99Bb+7D+BB4c9wYA56wkK3UjCsRwu1d8d97zdS3MZVBVtXN0XQvCMkfQb4onnrLWs2JXJiZLrWG9n8S7VuQgqITuryNK/gs57AA95jMf3jR3EnTdxtTlYuEs0tzHrAqgKSiOC+Tjb/J9i4iB3hk54lfl/N1DRA122hb3zoFp8a63EkruJIN/RePTz5hm/KJKbJBq1L1APvVwAlXEYCyjY+SLTxw6l/+iXmb3+a64B3bZyqAqKYMdus2J3Coh3EFN2ElTbrViou5LOHv9fMt7jQYbPXM2q/eUd66htWxS5eWfjuu4qqizhMFdRkRHD59uj+OTACbLvwLwLoFWUn48l/HE3RvX3YMryHcQWdsCpQdrqEKovUNoo0ORiDKiqNsyVReQm72L7679i3MiH8AnQsyW7A/vQ2TMjzWUKuXxyAzp3d4b1f4HALankdGBHdtqwFaVTmhjKzvxaipra66AgSwK2+ibs2t72pmYqslTBua+iWPP0IEYMdsPtATee7BJQVUapyCLv09d5wsODYdMj0CfntbMb0UIjGae1gdKcNBLfi2DBlKXsyC+h0CreYl6pqGojpoocEoIjOZhbQPFNoFqkJWA1V1H+Qxpn9i7H76nRTOsaUAW1oYKa84eJi4sj9vBZ8gz1bYbTknUii+Wciv+ADYGz+J3Pbxgx5GleCApG/9V5cqta2rWk2vw3UVOcSfTzy4g7fpaLLVU3pSrYq7Gf28jSqeOY0SWgNxnsKONEFgxkfbaWkBlj8RnjxfhZy1m0LIytKefIqWzbv9eCaiAyYmMOKe8vZMVrC1mTDtdtbQFb8r0ZVBFxFsWydcl8Zs/9I9svQ0OreF+RRZwWEw1mEyZTHXV1JVw+e5BNz77JztRMsk1auXabMTfYsAsSCj3OdTVBnVgzN/GnJct4KTSO01awKz8qqCoK9YZ8vt2iIyRQh06n3XOZ/fup+DzyGM9Mnc7M5jIdutcC8F/1OUnflWDqeaAqimClICaQlSFrWLTje0zNzvwfUFXBYizlQrKe3dF69PpIIiPfJeLtxbw4ZiK6xSGE6bVyPfrNHxIVk8bJomqaeh6oA9F+hb3BM1mxOpLNGddbJmM7aa+co1q4Z8RRn8C65+axel0CKWVOmprsCNp58C1ReyNoc8hXjj1fT5BfOO/+dS9f5p8lcX82RRZHuwHGnayjiqidKV/CeCKCwMljmTZvPRuPNdFocSIqqubYt7w6Geve8jf+t1BVwFyM7euVvDpjAS8t2kBUylEyCisxChKtPryt+mqRkZnakiy2zVlJYtY5ClrVao/a3x81F7M4unUhwf6/xWeUB4/9ejJTAjYQHn2MC7UW2lu9ughUBYux+QRw2+Zo1v8lgX9+m0dtq49RGwYNAy1ob6q9Qubu/ZwprqC6TSMNtLboFOm7wghfHUZYWBhhb63irT/oidiewcU6C+0dcHQNaJsB9oRsH2hPUOHnHMP/j6IGgwGHw4GirW/38P1vfeTz+hSLV/wAAAAASUVORK5CYII=;" parent="1" vertex="1">
          <mxGeometry x="1012.5" y="290.16999999999996" width="40" height="29.66" as="geometry" />
        </mxCell>
        <mxCell id="pBEC-gwe8kXw7ee0-Y7N-6" value="" style="shape=image;verticalLabelPosition=bottom;labelBackgroundColor=#ffffff;verticalAlign=top;aspect=fixed;imageAspect=0;image=data:image/png,iVBORw0KGgoAAAANSUhEUgAAAB8AAAAbCAYAAACEP1QvAAAEZklEQVRIDe2W7U9URxSH+x/0Y5vYJm1VmlhstVUSTUq02hWUxSIIoZLFiqC21foCGomwSl2jRlEsUKPgSwm2Veu7FhWlpEupWotuXIpRhEUFZFnZuwv7du/cp1kt0rIuLmril95kMrlnzsxzfjNnTuYlXuD30gtk8z88yO6rqKpAKAqyLD9qiiIQqhpkTujmAbZdoKo9SFYLt67VccloxGisoabmMlfMt7lr9YROCeIZBC5QRQ/OzgtUlq0mK2ES4954i7DhYbw9fALRSZsoKDNhtVofNHu3B48chDCA+TFwFYQdZ3sN5ZnTSYycgDbuc9ZsKed0RQUVewv5elYKcaM/ZLJmKtPjE1m55zeqmwegBBkKhKsC1dZA2+lcZo4aQoRmPku/qcJk6UJRZOR7DZzUpzJj2Ku8HKYlI9dAadV1zB1BCAOYA+FCwXOzGvOGiYS9NoKYvMMcaepdQSB7mjmbn86sD97l9agCKlvtSL3Dg+wD4KqQkcxn+CXrfYYNiWH+zrP83iODUFA9XXRaytk6V0PEKxGEf7qLX9skHIOE9roHwP0Q2VJLY/EMRg8diiZ1E6WnrmO7e5N7tfvYPW8iseEjGT9tGYYaG+0uBaV3tUH2gXD//e3uQLp6nOIMLUmR0cRMSWbO7BTSEjQkRU4iPWMNhYfraJDA+7RkCFJeVYFPsnJ1ZzZLtEloo3WkZ2aSmbWc9Rt2cLzKTHPXIGU+xj1QOSr4nHS31nF0cyZZC7eTv8/MLUA8ZoFnMQXC/VdNqqetOpv48DeJiltD3vcm/uiw0t5xH1uXE6fbh69/JP5c8XqQJA+KElrpDYAL2YPX2UDLX4UsiIpkzMhxjBo3mY+mxDJFk0bK4s1sPXCBi809uGR4UOJlN67Weq6cOUFu7mkaLXZC4f8HrsoeOs0XuHRyP2UV5zlSvo+SoiK2GAysXbSEOVodsZooYhJS+GLdXg5cU3G4ZeTGKs7tyGZ2XDzvjVnM7uomWnqefCB9cFVBvnOZ80Xr0S/KI+/UXTocD6WpDgdSfT21hw5SmreQtKiRTJyWQOoPEu12L776Y5StTGT8O+FEzNRTbGyh0TkYuOLBU2Vg1cx4xkbr2dPqoKNHoDy6SgJUN66uFs4Xf8WKjESSv2ui3eFF8UnUHSzh26Vfsu0mtLqeDPZ79CkXPrz1eyhYMJWxIz5Gu+wYP5+7TXOzDZutE5vtDlbbRa5WGjBkpZORs4UDdh9Of7131XJsVzEr5u3kTy9090/GILH0wVWBYm/k4qEi1s5NIXayjk+m60hO1qFL1aFL/4zZKxeSk7+Rwh+Pcsp0gzZAFl5cphIKN+YRv/wE9wXIoSX7v5Tjz1yBo/UGpsqf2Jufz+qcHLKzsx82vZ5VBdsoPWHkksWK/R81wuemaf9y9EvSmJZ7nOud4PYFkdrP3Ke830Cov8LnwXTQwPZ1meSWnMVoAYc7tNnPDPdjhP/c/W88RUH48/Jptj20eJ+f13NR/rTh/A2zogLOlRsU6gAAAABJRU5ErkJggg==;" parent="1" vertex="1">
          <mxGeometry x="1022.9967032877607" y="417.99513147989916" width="31" height="27" as="geometry" />
        </mxCell>
        <mxCell id="pBEC-gwe8kXw7ee0-Y7N-8" value="" style="shape=image;verticalLabelPosition=bottom;labelBackgroundColor=#ffffff;verticalAlign=top;aspect=fixed;imageAspect=0;image=data:image/png,iVBORw0KGgoAAAANSUhEUgAAAD8AAAAtCAYAAAAZQbNPAAACN0lEQVRoBe2YAa3CMBCGZ2EasIAHJKABCzjAAQ5QgAIMYAAHeOjLt+QnpWHbtaQvN9ZLlq6ja/vdf712dGHF1q2YPTT4tarflG/Kr9ADLexXKPqA3JQvVf5+v4fNZhO6rgvH4/Gtm8PhEK7X69szb5WvlN9utwM48Fy73S48n89wu92GOs7xbMXwqNr3fQDw8XiE1BH7/d4z9zC3Yvjz+fwW6ihOqMcR4J2+GN47mGV+Dd7ipbgNCU1ZnlCP7XK5vH5jCXhOetnKk+iU3VXiDNY8SU7PKEmIni0LHhUBItkByz2QwBMBbHVkfi6eU/dsWfCofjqdXjwKfSDZ6nDIkiwLPgVTiBMBSwOHpRhepzgcQJJbohXDs+4B957UpkQphldm93SMJQIRg6i0WDG8Mj0RMGckSaKkVl4gESv5Mk5VeLY8BrEMpC2R3cBqctZce/pmp+GKHVAVnvAS/NQEmZQiRO0pUWnKrPD0AbSM8SyCqH1R2OvrzaImf3IwoXiSGnyszIGP+/gXeK2v9N+beCK614Q49VnNLTzrTCFs2d8tYZ46xS18OtGpug5C6Zdf/I7ayKFzZfxueq8oq5rw0kHH6joITW2HPwuvg5BVCTnxJ8L+UxhaHPET8FKebY5EqW9+KTxWlsAzhs4UvM94c1a0z891qt85CWpbpJxa+3qHMgde0TWWKON+0/uq8Olg1noOvLXPT+1cwn+aaI1nDb6GV5fQZ1N+CSrVmGNTvoZXl9DnqpX/A+luIC9O4BS0AAAAAElFTkSuQmCC;" parent="1" vertex="1">
          <mxGeometry x="1154" y="561" width="47.75" height="34.11" as="geometry" />
        </mxCell>
        <mxCell id="66Gq4E4oxtWo8YFzugZ4-1" value="" style="edgeStyle=orthogonalEdgeStyle;rounded=0;orthogonalLoop=1;jettySize=auto;html=1;entryX=0.5;entryY=0;entryDx=0;entryDy=0;" edge="1" parent="1" source="66Gq4E4oxtWo8YFzugZ4-2" target="66Gq4E4oxtWo8YFzugZ4-3">
          <mxGeometry relative="1" as="geometry">
            <mxPoint x="1577" y="320" as="targetPoint" />
          </mxGeometry>
        </mxCell>
        <mxCell id="66Gq4E4oxtWo8YFzugZ4-2" value="&lt;font style=&quot;font-size: 22px&quot;&gt;环境&lt;/font&gt;" style="rounded=0;whiteSpace=wrap;html=1;fillColor=#fad7ac;strokeColor=none;" vertex="1" parent="1">
          <mxGeometry x="1508" y="240" width="137" height="40" as="geometry" />
        </mxCell>
        <mxCell id="66Gq4E4oxtWo8YFzugZ4-3" value="" style="rounded=0;whiteSpace=wrap;html=1;strokeColor=#666666;fontColor=#333333;fillColor=#F7F7F7;" vertex="1" parent="1">
          <mxGeometry x="1395.5" y="334" width="363" height="444" as="geometry" />
        </mxCell>
        <mxCell id="66Gq4E4oxtWo8YFzugZ4-4" value="" style="edgeStyle=orthogonalEdgeStyle;rounded=0;orthogonalLoop=1;jettySize=auto;html=1;" edge="1" parent="1">
          <mxGeometry relative="1" as="geometry">
            <mxPoint x="1578" y="446" as="targetPoint" />
            <Array as="points">
              <mxPoint x="1578" y="420" />
              <mxPoint x="1578" y="420" />
            </Array>
            <mxPoint x="1578.0588235294117" y="410" as="sourcePoint" />
          </mxGeometry>
        </mxCell>
        <mxCell id="66Gq4E4oxtWo8YFzugZ4-6" value="" style="rounded=1;whiteSpace=wrap;html=1;dashed=1;strokeColor=#003366;strokeWidth=2;fillColor=#F7F7F7;" vertex="1" parent="1">
          <mxGeometry x="1447" y="450" width="283" height="289" as="geometry" />
        </mxCell>
        <mxCell id="66Gq4E4oxtWo8YFzugZ4-7" value="&lt;font style=&quot;font-size: 20px&quot;&gt;Actor 网络&lt;/font&gt;" style="rounded=0;whiteSpace=wrap;html=1;strokeColor=none;fillColor=#B0E3E6;" vertex="1" parent="1">
          <mxGeometry x="1516.5" y="619" width="120" height="40" as="geometry" />
        </mxCell>
        <mxCell id="66Gq4E4oxtWo8YFzugZ4-8" value="&lt;font style=&quot;font-size: 20px&quot;&gt;Critic 网络&lt;/font&gt;" style="rounded=0;whiteSpace=wrap;html=1;strokeColor=none;fillColor=#B0E3E6;" vertex="1" parent="1">
          <mxGeometry x="1521" y="471" width="120" height="42" as="geometry" />
        </mxCell>
        <mxCell id="66Gq4E4oxtWo8YFzugZ4-9" value="" style="endArrow=classic;html=1;exitX=1;exitY=0.5;exitDx=0;exitDy=0;entryX=1.016;entryY=0.586;entryDx=0;entryDy=0;entryPerimeter=0;" edge="1" parent="1" source="66Gq4E4oxtWo8YFzugZ4-2" target="66Gq4E4oxtWo8YFzugZ4-6">
          <mxGeometry width="50" height="50" relative="1" as="geometry">
            <mxPoint x="1927" y="360" as="sourcePoint" />
            <mxPoint x="1977" y="310" as="targetPoint" />
            <Array as="points">
              <mxPoint x="1797" y="260" />
              <mxPoint x="1797" y="619" />
            </Array>
          </mxGeometry>
        </mxCell>
        <mxCell id="66Gq4E4oxtWo8YFzugZ4-10" value="" style="endArrow=classic;html=1;startArrow=none;startFill=0;endFill=1;" edge="1" parent="1">
          <mxGeometry width="50" height="50" relative="1" as="geometry">
            <mxPoint x="1797" y="379.5799999999999" as="sourcePoint" />
            <mxPoint x="1632" y="380" as="targetPoint" />
          </mxGeometry>
        </mxCell>
        <mxCell id="66Gq4E4oxtWo8YFzugZ4-11" value="" style="endArrow=classic;html=1;entryX=0;entryY=0.5;entryDx=0;entryDy=0;" edge="1" parent="1" target="66Gq4E4oxtWo8YFzugZ4-2">
          <mxGeometry width="50" height="50" relative="1" as="geometry">
            <mxPoint x="1445" y="639.9999999999998" as="sourcePoint" />
            <mxPoint x="1437" y="670" as="targetPoint" />
            <Array as="points">
              <mxPoint x="1445" y="640" />
              <mxPoint x="1357" y="640" />
              <mxPoint x="1357" y="260" />
            </Array>
          </mxGeometry>
        </mxCell>
        <mxCell id="66Gq4E4oxtWo8YFzugZ4-12" value="" style="endArrow=classic;html=1;entryX=0;entryY=0.5;entryDx=0;entryDy=0;exitX=0;exitY=0.5;exitDx=0;exitDy=0;" edge="1" parent="1" source="66Gq4E4oxtWo8YFzugZ4-7" target="66Gq4E4oxtWo8YFzugZ4-8">
          <mxGeometry width="50" height="50" relative="1" as="geometry">
            <mxPoint x="1487" y="640" as="sourcePoint" />
            <mxPoint x="1517" y="620" as="targetPoint" />
            <Array as="points">
              <mxPoint x="1487" y="639" />
              <mxPoint x="1487" y="492" />
            </Array>
          </mxGeometry>
        </mxCell>
        <mxCell id="66Gq4E4oxtWo8YFzugZ4-13" value="" style="endArrow=classic;html=1;exitX=1;exitY=0.5;exitDx=0;exitDy=0;entryX=1;entryY=0.5;entryDx=0;entryDy=0;" edge="1" parent="1" source="66Gq4E4oxtWo8YFzugZ4-8" target="66Gq4E4oxtWo8YFzugZ4-7">
          <mxGeometry width="50" height="50" relative="1" as="geometry">
            <mxPoint x="1597" y="610" as="sourcePoint" />
            <mxPoint x="1647" y="560" as="targetPoint" />
            <Array as="points">
              <mxPoint x="1667" y="492" />
              <mxPoint x="1667" y="639" />
            </Array>
          </mxGeometry>
        </mxCell>
        <mxCell id="66Gq4E4oxtWo8YFzugZ4-14" value="&lt;span style=&quot;font-size: 18px&quot;&gt;动作&lt;/span&gt;" style="text;html=1;strokeColor=none;fillColor=none;align=center;verticalAlign=middle;whiteSpace=wrap;rounded=0;dashed=1;" vertex="1" parent="1">
          <mxGeometry x="1412" y="240" width="50" height="20" as="geometry" />
        </mxCell>
        <mxCell id="66Gq4E4oxtWo8YFzugZ4-15" value="&lt;font style=&quot;font-size: 18px&quot;&gt;状态&lt;/font&gt;" style="text;html=1;strokeColor=none;fillColor=none;align=center;verticalAlign=middle;whiteSpace=wrap;rounded=0;dashed=1;" vertex="1" parent="1">
          <mxGeometry x="1687" y="240" width="50" height="20" as="geometry" />
        </mxCell>
        <mxCell id="66Gq4E4oxtWo8YFzugZ4-16" value="&lt;font style=&quot;font-size: 18px&quot;&gt;外部奖励&lt;/font&gt;" style="text;html=1;strokeColor=none;fillColor=none;align=center;verticalAlign=middle;whiteSpace=wrap;rounded=0;dashed=1;" vertex="1" parent="1">
          <mxGeometry x="1587" y="295" width="80" height="20" as="geometry" />
        </mxCell>
        <mxCell id="66Gq4E4oxtWo8YFzugZ4-17" value="&lt;font style=&quot;font-size: 18px&quot;&gt;内部奖励&lt;/font&gt;" style="text;html=1;strokeColor=none;fillColor=none;align=center;verticalAlign=middle;whiteSpace=wrap;rounded=0;dashed=1;" vertex="1" parent="1">
          <mxGeometry x="1581" y="566" width="86" height="20" as="geometry" />
        </mxCell>
        <mxCell id="66Gq4E4oxtWo8YFzugZ4-18" value="&lt;font style=&quot;font-size: 18px&quot;&gt;动作&lt;/font&gt;" style="text;html=1;strokeColor=none;fillColor=none;align=center;verticalAlign=middle;whiteSpace=wrap;rounded=0;dashed=1;" vertex="1" parent="1">
          <mxGeometry x="1487" y="566" width="50" height="20" as="geometry" />
        </mxCell>
        <mxCell id="66Gq4E4oxtWo8YFzugZ4-19" value="&lt;font style=&quot;font-size: 18px&quot;&gt;子目标&lt;/font&gt;" style="text;html=1;strokeColor=none;fillColor=none;align=center;verticalAlign=middle;whiteSpace=wrap;rounded=0;dashed=1;" vertex="1" parent="1">
          <mxGeometry x="1591" y="418" width="80" height="20" as="geometry" />
        </mxCell>
        <mxCell id="66Gq4E4oxtWo8YFzugZ4-20" value="&lt;font style=&quot;font-size: 20px ; background-color: rgb(247 , 247 , 247)&quot;&gt;&lt;b&gt;AGV&lt;/b&gt;&lt;/font&gt;" style="text;html=1;align=center;verticalAlign=middle;whiteSpace=wrap;rounded=0;dashed=1;" vertex="1" parent="1">
          <mxGeometry x="1693" y="748" width="60" height="20" as="geometry" />
        </mxCell>
        <mxCell id="66Gq4E4oxtWo8YFzugZ4-21" value="&lt;span style=&quot;font-size: 20px&quot;&gt;&lt;b&gt;元控制器&lt;/b&gt;&lt;/span&gt;" style="rounded=0;whiteSpace=wrap;html=1;strokeColor=none;fillColor=#CCE5FF;" vertex="1" parent="1">
          <mxGeometry x="1520" y="357" width="114" height="49.5" as="geometry" />
        </mxCell>
        <mxCell id="66Gq4E4oxtWo8YFzugZ4-22" value="&lt;span style=&quot;font-size: 20px&quot;&gt;&lt;b&gt;控制器&lt;/b&gt;&lt;/span&gt;" style="rounded=0;whiteSpace=wrap;html=1;fillColor=#CCE5FF;strokeColor=none;" vertex="1" parent="1">
          <mxGeometry x="1521" y="686" width="120" height="47" as="geometry" />
        </mxCell>
        <mxCell id="66Gq4E4oxtWo8YFzugZ4-23" value="" style="shape=image;verticalLabelPosition=bottom;labelBackgroundColor=#ffffff;verticalAlign=top;aspect=fixed;imageAspect=0;image=data:image/png,iVBORw0KGgoAAAANSUhEUgAAADgAAAAiCAYAAAAKyxrjAAADuklEQVRYCe2XbUxbZRTH99VPfjExJouLyjASXTRFtyF7YYDZontB3GjALBI2EiNDDJbEjShEF9RJpkRDu2VuoOOlmYNNGItuKyOCY4ArODag1jHHW2fX8tJS2nvv8zMlpt8Ig9wbUtKb3OTcnOc+Ob/zP/c5565gmV8rljkfEcBwVziiYETBeTMgEIqCLEtIUvCWUYLPijxry4pAzLvH4hdoXqJCeJkYsdHf2coVy1War3djGx5gwHaD9t876Rz04JmRF08wz5vaAQoFIfmYcnbRYjSQl7iGx1etZtWmdD4yfkBu7lZeiklgc2k/t0d984S5eLc2gEJG8TiY6KqnLDONfSnvkVdcSY3lEpd/Oo4pV8/2F6JY+Xwy+hovNmdYKShQpGGGeswYM3bwWsI75H1SxRXrKG7Jj3/0Fg2GFHZFP0NU/Lt8ZQMNBVS/0Qsh4Rr8hcav9ax75Fm2FJzmjHU0VGOy30vz52+SvmE9r7xtogPwhLzqG6qXqCKNYzV/RkHcEzz65AHKrtsZDMWtIM3cp6l4J2mpu9lW0hryaGWoDCgjTbfyc2kWO1bH8nJhG+13JwnMRi9ATOBzn+XInniSE7PJqrRrxRXaV11AJYC/5wTlOXp0sdkc7nVxb/r/A0TI+N136KvORL9WR0L6pxzt8oYC0cpQFVBIMzgbiyl+63We2/gx5oCMExCzp+oIzp5aTmTFoHt6LVvfP0a9U0HRssuDuoeMIs1gr8nHsC2O6FcNnHRLjEkC3/gYw73NWKqLyE98jOjoN0g7WEHL/SFGpyCgXZdQFzCo4ODZQxzaqSNKp+dgi4Puey76rjVRdeoHDhSfx7hnJetSc8gsLKf1gpmGfnB7AsxM+/H5JNUrVdUSRch4He1c+CaHjBefIiYuiU0ZBRhOXqT+ph1rRxNlKdGsT9jILkM5dc0OHrgncf5poeZ4I9W13fgVVJ1N1QUkOFhPMHK7DcuP5RiNJkxVDTRaB7FP+fBN3OHG+Qpqzac5d7Wbvr4hfNeOUZKrJ3lzBnvzT/Hbv6DmaKoy4AIqTAgY/wdPy1Gyk9YQv2U3+0vPYXEsF8DZXATwe4Y482EW31XW8atjAQl6yKVLp2DwS1PGmHbVUri3hO9r27mrwWm6dIDB36kHvbgv5rB937eYGm7h0aAnLhmgUGSm/mqjoyiWpP2H+bLuJiOTD1l3C1i2hIAKrr//wPJFKkVHjFRcHmAgOPaofC0ZoMocc24XAZwzNWHiiCgYJkLNGWZEwTlTEyaOZa/gf/203JNWz6Z2AAAAAElFTkSuQmCC;" vertex="1" parent="1">
          <mxGeometry x="1409.0033699544272" y="267.99513147989916" width="56" height="34" as="geometry" />
        </mxCell>
        <mxCell id="66Gq4E4oxtWo8YFzugZ4-24" value="" style="shape=image;verticalLabelPosition=bottom;labelBackgroundColor=#ffffff;verticalAlign=top;aspect=fixed;imageAspect=0;image=data:image/png,iVBORw0KGgoAAAANSUhEUgAAACEAAAAfCAYAAABplKSyAAADC0lEQVRYCe2WyWtTURSH/Q9cuNGNG4eNGxXBheJAF051rEOlgnOlglAHqlZFo4i14kSplVaqHXBC0FAF22oNopLiQEvEYm1N0lk0Q2PyXl7eu/eTCHmrqC8hSpG+zT2cdzjnO797DtwxjIBvzAhgYBQicQujSvwvSkiEFkEJBfD5A/iHFaJaFE3T0TSRaNLSmeZMxAHCeJrKKN+/jqzsTazYXU3DYzuNjW946vhiqXgiKD0IQyXW00Tdwc1sydlArq2CC9fvUm0r4ExpPdeehBL5LZ1pQEiIBlFenaIwewmL805T1aUSjnziYfEGTpZUUtlmqbYZlB6E6kdpPsbupQuZs/Yw55x+gqqK+0EFj5pbeDxg5rdkpAEByCgxv5ObB3NYPjuLufk1OAMK/uEA4YhCRLdU2wxKDwKB0H14Wi5TunMJM2etYVvNe1wDEYQ0c1s2UoaQUiIMAyENjG/tvL11jKKV85i09CRXHW56IpZrm4GpQUiJGggw4HIxqKooQsfoaeH1lTwmjZ1G7sVnNHk0M7lVIyUIYcTocb7k5vat3Or28lnXEbEPdDy3sX7sOOYX1FPr9FmtbcalABG/hiE+Oqo5kzWdootNPG/rI+hx8Kq+kAUTZlNQ8QJHX2IqJQgdLaoTixlmwWRGChACITpxu+5QVXyCG7ZSLhUd5uiu7eRv3sqqPWXce9PLoBLfHoFUvxN2v6XR3sqLlx6M3wxsShBS9uHzuXjX2k13Qw11tkMcyN9L4dFyKlu99A+rICXy+yChdjt1JfvIyyniyNlHdIZ+/komxF94WUkD2f8Ob90u5kwdz8TJ81hbXIO9l1+ubwpKJG0iqVPqCkFPGzd2LuN01V0edIVRjH+pBBIphvjqbeBE7iFqG17zSU3Kajozr4QUCH873pbjZG8s5/bTTkK/Gco4ScYhpNAJdzTjLFnEjG1lXHvSTTBqNp3UyDiEMHR6nfep3TGF1QU2zts7eP+HN07GIeIrqoUDfHO76PL0MxRQUWJJBTCdmYcwU1s3RiESWo0IJX4Aw4Bj8NoENQ4AAAAASUVORK5CYII=;" vertex="1" parent="1">
          <mxGeometry x="1695.5000366210938" y="267.99846481323243" width="33" height="31" as="geometry" />
        </mxCell>
        <mxCell id="66Gq4E4oxtWo8YFzugZ4-28" value="" style="shape=image;verticalLabelPosition=bottom;labelBackgroundColor=#ffffff;verticalAlign=top;aspect=fixed;imageAspect=0;image=data:image/png,iVBORw0KGgoAAAANSUhEUgAAAEYAAAAuCAYAAACViW+zAAADbElEQVRoBe2abbHqMBCGkYAGJOABB2hAAg5QgAMMoAABGMABGvjZM8+dWea9S9JumrTnY/rjTNKkSXaf/ciWOavX69Utf58MVguUTygwWcBkImYBs4BJh0wulSwe8xM85vF4dMfjsdvtdt1qtXr/bbfbf+PMmwVPp1O3Xq+78/n8HrO5OdpZPOb5fHaHw+ENQqH4Pu/t9/v3u38WzP1+7zabzVtRQOA1jJvl6eM1HhLP+p69P0c7qcegFOFgCtPPKYpX2XvW8v4cEFJnTAYGRaNQTDCfe3i2ubnbycBonsADrtfroJIeDAl4biB23iRgbrfbf2ERtbwHwz4m6NztJGDGKuiTNOE4NxA7rzkYkqslT1puGztsqB27bmjfMfPNwXAVq4LROsSHH/XMGIVarWkOxodD7nr2CpBoFejlcvk7YCjpVTn6HkDu2Rd4UaC5/WrHm3oMV7KCid5GNUABYF5KWwvE1jcF48OBWsYO6mv9d1QUKHtqsm+ZlyYFEynQUt5CAu8DqXMKNZrodX2u/+1gfM1DKEYTL+9p6LbMS5OCGXJtCz39pkLRPgXxMNappygc3y8JS/WeScH0CWXWJg/52kcF9H3CxSvf9xwJZ38Gz03B+CINgbGwP9igcItQ9utV3QfT76NhWJKX/D6p56Zg/E8NgEFpg0NrIaC/zajFSyys6yJf7ykAubGmYDjE8oYK7fsKxXtZVEG/rvUHZ3MwPjQ8FDxIk6vPL+ZdOUvauBqAPW28VdscDIIBB8GtIgUO+SB1DWt+Kalc9Yew1vkFHZqAQTByR6k74x3qUUPXu3qDXvHR8NP1Q/0qMD5sShIngvmrN6qgfgYAttQgQ1CYrwKj+QELlgqoocb6iMAe6BT5pQqMD4PSOLdaxkKpxNs0v5SEXxR8FRh/XZYohmd5bynxNl1bcu63gCnxGCvyzFtKv4ptHS0G8goDWUsCPx95rsoxejNEc4yHMiYUFIyHSoiTd6Ly5CBVgfF5AhdHUG8tnhnXEEC5MVBQRA0CBAtD5LG5VM2Ug5AarwLDhiqMWrKvD6Do1ZwSmryS25+9U+GV2qdvrBoMm2MxAOEB+sVrwmNFxslDLYTmTOBo1UyfMfOePqUjc03ARA76be8sYH7Cv5r9Jq9ZPGbxmOXfWT8q4TEhvIRSJpS+AFzqjABzC7puAAAAAElFTkSuQmCC;" vertex="1" parent="1">
          <mxGeometry x="1524" y="419" width="37.6" height="24.71" as="geometry" />
        </mxCell>
        <mxCell id="66Gq4E4oxtWo8YFzugZ4-29" value="" style="shape=image;verticalLabelPosition=bottom;labelBackgroundColor=#ffffff;verticalAlign=top;aspect=fixed;imageAspect=0;image=data:image/png,iVBORw0KGgoAAAANSUhEUgAAAJwAAABRCAYAAAAnzs8nAAAHv0lEQVR4Ae2b0VHEOAyG6YAS6IAS6IAS6IAS6IAOKIEOKIEOKIEOeNyb72b+GZ3OduLFkb2sHjJyso6tSJ8l28ne/Pz8nPJIG0QxcBPVUfaTUMNAApcRPjTDJXAJXAKX6ffvpt+McBnhMsJlhMsIFzoKErgELoHL1DuEgZzDJUhDQNqblRK4BC6B2ztast7lzfWmRriPj4/T8/Pz6eHh4d/j6enp9Pb21jXiXl5euu9JUOeBOgW47+/v0+Pj4+nm5qZ43N/fnz4/PzfBA1i1cXd3t+uehG0ebNg+HDhgAyiB0pJErxogtENk1P23t7enr6+vav1aO3k9FsBw4FqRTfBYCZwlkEi/tl4LzoQqFqqWvUOBe39//w8kFpitMqAC1evr6/8iJNGNiNd60PxtDejCgAMI5lkWLKIUczUOQPK/27qtMvcmUGsAteWHMOCIThYaVqcl5YDH1tsq19optZ3X5kMZAhzRjbQneJjst5xPxNuzsKBOptL5ELV86X8LA45IJODYzvCKlM5r0Q54SccJ22XBho9DgLMwsXCw53vK3ENK1qJhzx7dnnazTjyw4cClk+OdvJLNE7h8ed+dcX4DcAKXwCVwvxlBee/aKTsjXEa4vxfh2L5gK4RPj9jqOGelaiMX7dEG7emg/b3bLbatLMdGxEMjHNsX7L/ZTV/txSHZ5tjrcCCj/taGMPtze9vMerGwYe9DgAOOFmgWuj3vQYliNWhtW5T3tJegxYMmmw8HDth6P0EqfX6Egue09dt0LcOkPAbKocABzlbK8xGpFpVIx+d8PQKkCcsxsIyw6zDgSoDwkp7rQEDkKcHGNSKifRju8SkUkKlnv/L17VHHtpPl9cAbApyHDVhKcyn7At/CYoHzsAGRT5OsRu39KtN+QrYeZNYnQ4CzczZg84CoQ1aZgsNKrSxJyTayEc1qKdL2qbZq/ar/lPNhHAIcUBCJWrDhbKKe4LASENWGrrdgoy1WrqorWVt8JGjzQZMPhgBHY5qnqeGSrAFHZLIRC3hrkU3tClDq6tBvKY8FjCkN/mJRV5o6tew/DLhWJ/qN1KloZKW9zkPMiFRAS986ejal9Xx/XeIXv7/aa6dQ4GwUs8CpvJWSj3IoCxXpIEnKPqq/S2uXbOJBk52WjnB2QSCFrewdLaMcR79WD8ozoizP4/WYufIGNGzT8tuywJWiiDXu1iJhFFy+HYxKGrW6YGBfL+rc6kF5FnDM05hmeH38eW8mCEuptQWDHmDWlx4sWKSDJKk/CjDfj3SQjAZuL2jSb1ngWvO3WQ7WSlfGk4x2soVOOkhG6UIGsos39U+09xlAvyGXBa6lNA9rjR5VxpnWeCrP3ECWDpIRwNGHn6cxxQEmBiX+oCydrFwSOCbgVklbnhHdtLy3etgyxkav1tE7Wd47iKwelCOAs8EA8Hg2gSa9az5cErjSPEmGPcpxMpQkOgDSnomwdGvJo1bUvs8I4LANoJFSPWiy30UBh9G8IXXOg+ihjpREK/U5Qh6Vdr1uEcBh961pzUUBR2TxhuScaHMkZLZtQj/RVEdp7w2dGOWq05K1SGD7PKfs7RQF3JauFwMcjvFG1PlMY7L8lx5WztqekcOtLpRn2kg6IS8GuJpjMeZRackaqlYmennnMo+p1Y+67nVK4Dr/x1lyrIwaNX8rwVKa03GtVDfymmwjmcB1AldyLMacHU3sVoCce9TKswdY6SKZwHUCV3IsxpwZTWrvdWemeEEp0CQTuA7gao7FmDOjSSnNE3FHrjyZLpxzCDRJVs3ntDPyWRgM6CCdrFxq47fkWCk7M5qU3hmydaMo81vZWpnr+Y+WoyPjRQBXm79hbB7gt4499/5Smh/poASu/on7oZ8nlRwLbJEbvh7KGgwjI26tj6Ojmm1/5ADChstHuJbRRxvDQ9U6ByzrGJXRt3Vfz2+tZ1d/R8vRNl4euJpjMXTvRLPH2Vt1S6+0joi4LJjOOTyIgHNOO9yzZYue35cHruRYGXPm/K00rxwdDXoc6evKRpKr6LY8cCXHYsSZG76kOvqXMyVHzt88QL3n0kkygduxD1dzLEacueFbe687M+J6IAWaZAK3AzjmDzKYlzMNWNoXZCXtnT7zfCV7WTssnVJLjpUhZ6avUpofueFrHXRuWXaSnDlA7TMsDVzJsTLgzPRV+ryctw7WsLPLspNkArcjpRLhMJQ/Zr4/BaTSRvQe4NjGidrKEWiSCdwO4GZHiVr/pRXq1iIG0HRfBHQCTXIV4GrzcoJLzd6l64e+2ip1OPOawJEzkVyr6YQx7T0Rzre6UY7os/b89nptI783a10VcKU5HE71RmOe6b8o4Xzk6y/rTFteETieu/ZHKAZkj12uCjiihXeozoGR9Iq0UY3fua/HqBag3rL0kZwV4Xhe0iiDsTT3lX5IbEY22PMHpKsCDiNaQ22VAa93jtILmK/vdYoCTmDxzH7AeZ32nNMGoPptp6sCDufW3jZ4IzJqZ+wZej2igKMf3/eIc7+xfnXAAR2pgjmZH8mcMyKJalEpdJUIxwocm4w+/IC5SuC8k1kkcMyCzOojXay0v196OYG74H3FS4QvgUvgqvuQRwCdwCVwCdwRIyvbrP+TKtI2GeEywmWEixxx2Vds5MsIlxEuNML9AyDq7hwakEU2AAAAAElFTkSuQmCC;" vertex="1" parent="1">
          <mxGeometry x="1671" y="555.14" width="49.8" height="25.86" as="geometry" />
        </mxCell>
        <mxCell id="66Gq4E4oxtWo8YFzugZ4-31" value="" style="shape=image;verticalLabelPosition=bottom;labelBackgroundColor=#ffffff;verticalAlign=top;aspect=fixed;imageAspect=0;image=data:image/png,iVBORw0KGgoAAAANSUhEUgAAADoAAAAlCAYAAAATO/pmAAACBklEQVRoBe2XCbGDMBCGsVANtYCHSkBDLeAABziogiqoAQzgoB7y5mPmZ9IUctCD8MrOdDiyZPfLHkkL8yNS/Ain2UH/W6T3iO4R3egK7Km70cDNur1HdHZpNjrgjWjTNOZwOJiiKExd1w+I1+vVlGU5jE2NPyhn8DALej6fRwhA+HVdN7g8Ncai5CyToIAQScD4CfR2uxnGiCTv7/f7GHHGcpYnUJw/nU5j9HBeoEAej8cBUFBVVQ3jfJezPIG6zhIpgdrp6+rl/hwEvVwuI2judehb7CCo3XhyT8+XQKlJUpZajBEaFY3sW6ItMNQMvRElgqrPtm2Dvvd9P+jTzFIEfeyEnLXnpKQUBL4NiVeDQ4FAY5xQB06t5RRQ/EAfSA4x8u8l0NiJiLZ9SpJxrjFpnAKKLTu7ZOslUDkARIzIaGrTkp2YrHH9kE33vfvsTV1N4p5z3Ul4xkn0SalUWRVUjuM8hR8S0gldtqNUWRWUhqKI6jDvA1AjsutnSl9zxl5DjU3zTNmy33lT11YM3avVhxZFjsVeswLV/onzS2TV1E1xWPWMw0tk06BsMRw4YuQdoKEtbVmuOd7rzzmHAwySyuy9sR14CSh21OkpGWrZB/sWULjZawHFKJCx0eTbFFCVia+ZoePK20DdiVOeU0BT5rV1swC1HfrU/Q76qZVda96fiegfClxBENoV7/gAAAAASUVORK5CYII=;" vertex="1" parent="1">
          <mxGeometry x="1524" y="290.16999999999996" width="47.8" height="30.49" as="geometry" />
        </mxCell>
      </root>
    </mxGraphModel>
  </diagram>
</mxfile>
